<svg width="100" height="100" viewBox="0 0 100 100" fill="none" xmlns="http://www.w3.org/2000/svg">
<rect width="100" height="100" fill="white"/>
<g clip-path="url(#clip0_331_33)">
<path d="M50.1617 37.36C49.1599 37.3572 48.1797 37.6511 47.3448 38.2047C46.5098 38.7583 45.8576 39.5468 45.4703 40.4707C45.0829 41.3946 44.9779 42.4125 45.1684 43.396C45.3589 44.3795 45.8365 45.2846 46.5408 45.997C47.2451 46.7095 48.1447 47.1973 49.1259 47.3991C50.1072 47.6009 51.1263 47.5075 52.0545 47.1307C52.9828 46.754 53.7787 46.1108 54.3418 45.2822C54.905 44.4537 55.2101 43.4769 55.2187 42.4752C55.227 41.806 55.1024 41.1419 54.8519 40.5213C54.6015 39.9007 54.2302 39.3361 53.7597 38.8602C53.2893 38.3843 52.7289 38.0066 52.1113 37.7491C51.4936 37.4916 50.8309 37.3593 50.1617 37.36ZM50.7823 34C51.3108 34.1067 51.8442 34.1794 52.363 34.32C54.3834 34.8696 56.1262 36.1529 57.2508 37.9191C58.3753 39.6853 58.8008 41.8074 58.444 43.8706C58.0872 45.9339 56.9738 47.7898 55.3214 49.0758C53.669 50.3618 51.5964 50.9853 49.5088 50.8244C47.4211 50.6636 45.4685 49.73 44.0326 48.2061C42.5966 46.6822 41.7806 44.6776 41.7441 42.5841C41.7075 40.4905 42.453 38.4586 43.8348 36.8855C45.2167 35.3124 47.1355 34.3112 49.2163 34.0776C49.3181 34.0776 49.4199 34.0242 49.5217 34H50.7823Z" fill="#4F4F4F"/>
<path fill-rule="evenodd" clip-rule="evenodd" d="M61.9775 66V64.4388C62.017 62.8024 61.4558 61.2083 60.3998 59.9576C59.3439 58.7069 57.8664 57.8863 56.2465 57.6509C55.8565 57.5934 55.4625 57.5675 55.0684 57.5733H45.2745C43.6257 57.5293 42.0182 58.0928 40.7578 59.1566C39.4973 60.2204 38.6717 61.7103 38.4381 63.343C38.3855 63.7204 38.3645 64.1015 38.375 64.4824V66H35.0005V64.4436C34.9758 61.9867 35.8489 59.6053 37.4559 57.7466C39.0628 55.8878 41.2931 54.6797 43.7278 54.3491C44.1968 54.283 44.6699 54.2506 45.1435 54.2521H55.1751C57.5262 54.233 59.8095 55.0392 61.6275 56.5302C63.4454 58.0213 64.6828 60.1027 65.1242 62.4121C65.2566 63.0827 65.3216 63.7649 65.3181 64.4485V66H61.9775Z" fill="#4F4F4F"/>
</g>
<defs>
<clipPath id="clip0_331_33">
<rect width="32" height="32" fill="white" transform="translate(34 34)"/>
</clipPath>
</defs>
</svg>
