<svg width="262" height="79" viewBox="0 0 262 79" fill="none" xmlns="http://www.w3.org/2000/svg">
<path d="M83.9951 55.6581H76.1763V67.7662H79.4342V58.4435H83.9951V55.6581ZM84.8449 64.327C85.0433 65.0684 85.401 65.7572 85.8931 66.3451C86.3796 66.913 86.9904 67.3605 87.6778 67.6525C88.4719 67.9635 89.3184 68.1179 90.1708 68.1073C90.9494 68.1528 91.7285 68.0262 92.4529 67.7365C93.1774 67.4467 93.8295 67.0008 94.3634 66.4303C95.4403 65.1046 95.9769 63.4188 95.8649 61.7121C95.8638 60.8276 95.7398 59.9475 95.4966 59.0972C95.3045 58.3534 94.946 57.6633 94.4484 57.0792C93.9781 56.5061 93.3751 56.0572 92.6921 55.7718C91.8887 55.4585 91.0325 55.3041 90.1708 55.317C89.3926 55.2753 88.6147 55.4037 87.8908 55.6932C87.1669 55.9828 86.5143 56.4266 85.9781 56.994C84.9012 58.3197 84.3646 60.0055 84.4766 61.7121C84.4777 62.5967 84.6017 63.4768 84.8449 64.327ZM88.386 58.8414C88.5907 58.563 88.8606 58.3395 89.1719 58.1908C89.4832 58.042 89.8263 57.9727 90.1708 57.9887C90.5523 57.9539 90.9356 58.0324 91.273 58.2143C91.6105 58.3962 91.8871 58.6736 92.0687 59.012C92.466 59.8542 92.6509 60.7814 92.607 61.7121C92.6771 62.6967 92.4711 63.6813 92.0122 64.5544C91.8074 64.8485 91.5301 65.0842 91.2073 65.2386C90.8846 65.3931 90.5274 65.4609 90.1708 65.4355C89.7829 65.4497 89.3991 65.351 89.0659 65.1513C88.745 64.9716 88.4803 64.7059 88.3011 64.3839C88.092 64.0135 87.9482 63.6096 87.8761 63.1901C87.8162 62.6993 87.8162 62.203 87.8761 61.7121C87.7906 60.7196 88.0185 59.7252 88.5276 58.8699L88.386 58.8414ZM98.1595 72.6265H101.304V67.6525C101.616 67.7913 101.938 67.9054 102.267 67.9936C102.672 68.0441 103.081 68.0441 103.485 67.9936C104.292 68.0019 105.091 67.8472 105.837 67.5388C106.517 67.2357 107.118 66.7785 107.593 66.2029C108.079 65.5648 108.444 64.8421 108.67 64.0712C108.912 63.1438 109.026 62.1875 109.01 61.229C109.148 59.6018 108.75 57.9739 107.876 56.596C107.468 56.0977 106.946 55.7057 106.354 55.4533C105.762 55.2009 105.118 55.0957 104.477 55.1465C103.764 55.1243 103.055 55.2704 102.409 55.5728C101.812 55.9081 101.299 56.3745 100.907 56.9371L100.539 55.4875H98.2444L98.1595 72.6265ZM105.27 58.8699C105.648 59.6368 105.824 60.4882 105.78 61.3426C105.871 62.4353 105.644 63.531 105.128 64.4976C104.898 64.8192 104.59 65.0767 104.233 65.2458C103.876 65.4149 103.483 65.49 103.089 65.464C102.734 65.4708 102.381 65.4229 102.041 65.3218C101.78 65.2076 101.533 65.0646 101.304 64.8955V59.8362C101.449 59.3213 101.722 58.8519 102.097 58.4719C102.508 58.1498 103.021 57.9882 103.542 58.0172C103.88 57.9917 104.218 58.0574 104.522 58.2073C104.826 58.3572 105.084 58.586 105.27 58.8699ZM110.936 64.3555C111.146 65.0921 111.503 65.7786 111.984 66.3735C112.471 66.9414 113.081 67.3889 113.769 67.6809C114.573 67.9914 115.429 68.1458 116.29 68.1357C117.064 68.177 117.838 68.0484 118.557 67.7587C119.276 67.4691 119.924 67.0254 120.454 66.4587C121.531 65.133 122.068 63.4472 121.956 61.7406C121.969 60.855 121.845 59.9728 121.588 59.1257C121.395 58.3819 121.037 57.6917 120.539 57.1076C120.069 56.5345 119.466 56.0856 118.783 55.8002C117.989 55.4892 117.142 55.3348 116.29 55.3454C115.508 55.3034 114.725 55.4315 113.997 55.7209C113.268 56.0104 112.611 56.4543 112.069 57.0224C111.002 58.3523 110.476 60.0377 110.596 61.7406C110.588 62.6238 110.703 63.5038 110.936 64.3555ZM114.477 58.8699C114.686 58.5892 114.961 58.3645 115.277 58.2158C115.593 58.0671 115.941 57.9988 116.29 58.0172C116.667 57.9881 117.044 58.0693 117.376 58.2509C117.708 58.4325 117.98 58.7067 118.16 59.0404C118.567 59.8801 118.761 60.8075 118.726 61.7406C118.804 62.729 118.587 63.7183 118.103 64.5828C117.905 64.8767 117.633 65.1129 117.314 65.2676C116.996 65.4222 116.643 65.49 116.29 65.464C115.893 65.4821 115.499 65.3833 115.157 65.1797C114.836 65 114.571 64.7343 114.392 64.4123C114.183 64.0419 114.039 63.6381 113.967 63.2185C113.86 62.7335 113.812 62.2372 113.825 61.7406C113.74 60.748 113.968 59.7536 114.477 58.8983V58.8699ZM136.12 65.0376H134.364V55.7149H125.865C125.881 57.0158 125.815 58.3164 125.667 59.6089C125.539 60.5654 125.36 61.5143 125.129 62.4511C124.979 63.0539 124.78 63.6432 124.534 64.2133C124.398 64.5348 124.227 64.8399 124.024 65.1229H122.607V70.6653H124.902L125.27 67.823H133.372L133.741 70.6653H136.035L136.12 65.0376ZM127.253 65.0376C127.479 64.6126 127.66 64.1648 127.792 63.7017C127.966 63.1421 128.108 62.5727 128.216 61.9964C128.216 61.3711 128.443 60.7458 128.5 60.092C128.556 59.4383 128.5 58.813 128.67 58.2446H131.219V65.0376H127.253ZM138.585 58.6141C139.141 58.3826 139.72 58.2111 140.313 58.1024C140.968 57.9928 141.632 57.9357 142.296 57.9319C143.146 57.9319 143.684 58.1309 143.911 58.5288C144.201 59.1297 144.271 59.8139 144.109 60.4615C143.167 60.3765 142.218 60.3765 141.276 60.4615C140.509 60.5555 139.762 60.7764 139.066 61.1153C138.488 61.3793 137.997 61.8033 137.65 62.3374C137.296 62.8971 137.118 63.5508 137.14 64.2133C137.127 64.7116 137.224 65.2066 137.423 65.6629C137.591 66.0788 137.842 66.456 138.16 66.7714C138.49 67.0979 138.886 67.3498 139.321 67.5104C139.812 67.6872 140.33 67.7739 140.851 67.7662C141.614 67.7872 142.367 67.6006 143.033 67.2262C143.577 66.8971 144.041 66.4505 144.392 65.9187L144.902 67.5957H147.452C147.256 66.9968 147.132 66.3765 147.084 65.7482C147.084 65.0945 147.084 64.4123 147.084 63.7302C147.084 63.048 147.084 62.309 147.084 61.5984C147.084 60.8879 147.084 60.1773 147.084 59.4667C147.082 58.8738 147.015 58.2829 146.885 57.7045C146.748 57.2134 146.506 56.7578 146.177 56.3686C145.807 55.9826 145.35 55.6904 144.846 55.516C144.158 55.3047 143.44 55.2087 142.721 55.2317C141.772 55.2281 140.824 55.3041 139.888 55.4591C139.097 55.6026 138.327 55.8412 137.593 56.1697L138.585 58.6141ZM140.71 64.8955C140.573 64.7585 140.467 64.5939 140.398 64.4126C140.33 64.2312 140.301 64.0374 140.313 63.8439C140.313 63.5485 140.424 63.2641 140.625 63.048C140.873 62.8317 141.162 62.6674 141.474 62.5648C141.871 62.4503 142.28 62.3835 142.692 62.3659C143.173 62.3231 143.657 62.3231 144.137 62.3659V63.9575C143.928 64.3136 143.648 64.6231 143.316 64.8671C142.875 65.1705 142.348 65.3203 141.814 65.2934C141.409 65.3074 141.014 65.165 140.71 64.8955ZM169.038 67.7378H172.353V50.6841H169.35L165.072 58.3867L164.364 60.3478L163.571 58.4151L159.067 50.6841H156.064V67.7378H159.18V58.9267L158.698 55.5728L159.747 58.273L163.543 64.6113H164.591L168.188 58.3014L169.237 55.4591L168.869 58.8414L169.038 67.7378ZM174.931 64.2986C175.15 65.0376 175.516 65.7241 176.007 66.3166C176.484 66.8833 177.085 67.331 177.764 67.6241C178.568 67.9346 179.423 68.0889 180.285 68.0789C181.064 68.1244 181.843 67.9978 182.567 67.708C183.292 67.4183 183.944 66.9724 184.478 66.4019C185.544 65.072 186.071 63.3866 185.951 61.6837C185.959 60.8005 185.844 59.9205 185.611 59.0688C185.395 58.3344 185.039 57.649 184.563 57.0508C184.086 56.4841 183.485 56.0365 182.806 55.7433C182.002 55.4328 181.147 55.2785 180.285 55.2886C179.506 55.243 178.727 55.3696 178.003 55.6594C177.278 55.9492 176.626 56.3951 176.092 56.9655C175.015 58.2913 174.479 59.9771 174.591 61.6837C174.583 62.5669 174.697 63.4469 174.931 64.2986ZM178.359 58.8414C178.569 58.5626 178.845 58.3393 179.16 58.1908C179.476 58.0422 179.823 57.9729 180.172 57.9887C180.549 57.9597 180.926 58.0408 181.258 58.2224C181.589 58.404 181.862 58.6783 182.041 59.012C182.448 59.8517 182.643 60.7791 182.608 61.7121C182.678 62.6967 182.472 63.6813 182.013 64.5544C181.806 64.8465 181.529 65.0807 181.206 65.2349C180.884 65.3891 180.528 65.4581 180.172 65.4355C179.775 65.4504 179.382 65.3518 179.039 65.1513C178.718 64.9716 178.453 64.7059 178.274 64.3839C178.089 64.0027 177.947 63.6024 177.849 63.1901C177.755 62.703 177.708 62.2082 177.707 61.7121C177.636 60.7207 177.863 59.7307 178.359 58.8699V58.8414ZM195.838 64.5544C195.525 64.7586 195.193 64.93 194.846 65.066C194.409 65.2142 193.948 65.2816 193.486 65.265C193.044 65.2791 192.606 65.1813 192.212 64.9808C191.857 64.8061 191.554 64.5415 191.333 64.2133C191.091 63.8714 190.918 63.4852 190.823 63.0764C190.707 62.6118 190.65 62.1343 190.653 61.6553C190.556 60.6582 190.795 59.657 191.333 58.813C191.574 58.5242 191.878 58.2964 192.223 58.1482C192.568 58.0001 192.942 57.9357 193.316 57.9603C193.736 57.9588 194.154 58.0065 194.563 58.1024C194.944 58.207 195.314 58.3498 195.668 58.5288L196.404 55.9423C195.945 55.7068 195.46 55.5255 194.959 55.4023C194.254 55.2377 193.531 55.1613 192.806 55.1749C192.057 55.1266 191.306 55.2528 190.613 55.5437C189.92 55.8346 189.304 56.2823 188.812 56.8518C187.797 58.2051 187.304 59.8808 187.424 61.57C187.426 62.4492 187.521 63.3257 187.707 64.1849C187.87 64.9124 188.178 65.5991 188.614 66.2029C189.037 66.7651 189.591 67.2141 190.228 67.5104C191.012 67.8241 191.85 67.9787 192.693 67.9652C193.402 67.9725 194.108 67.8768 194.789 67.6809C195.416 67.5182 196.01 67.2491 196.546 66.8851L195.838 64.5544ZM205.384 67.7094H208.982L205.724 62.0248L204.365 61.0868L205.611 60.1773L208.444 55.5728H205.073L202.24 60.4047L201.475 60.7173V55.5728H198.33V67.6809H201.475V62.8206H202.325L205.384 67.7094ZM210.257 67.7094L212.24 67.8799H214.393C215.93 67.9869 217.468 67.6725 218.841 66.9704C219.31 66.6701 219.687 66.246 219.932 65.7447C220.177 65.2433 220.28 64.684 220.229 64.1281C220.266 63.442 220.055 62.7655 219.634 62.2238C219.15 61.6729 218.488 61.3107 217.764 61.2005C218.391 61.0128 218.927 60.5973 219.266 60.0352C219.586 59.5567 219.754 58.9916 219.747 58.4151C219.775 57.9686 219.688 57.5224 219.494 57.1194C219.301 56.7163 219.007 56.3697 218.642 56.1128C217.483 55.5062 216.178 55.2402 214.875 55.3454C213.94 55.3454 213.09 55.3454 212.297 55.3454H210.257V67.7094ZM213.317 62.508H214.931C215.517 62.4517 216.105 62.5917 216.603 62.9059C216.756 63.028 216.879 63.1837 216.962 63.3612C217.046 63.5386 217.088 63.7329 217.084 63.9291C217.098 64.1479 217.052 64.3662 216.952 64.5612C216.853 64.7562 216.702 64.9208 216.518 65.0376C215.951 65.3333 215.313 65.4614 214.676 65.4071H213.94H213.317V62.508ZM213.317 60.5752V58.0172H214.79C215.319 57.9756 215.849 58.0839 216.319 58.3298C216.461 58.4459 216.573 58.594 216.647 58.7619C216.721 58.9299 216.754 59.1129 216.744 59.2962C216.745 59.4839 216.702 59.6693 216.619 59.8372C216.535 60.0051 216.413 60.1508 216.263 60.2626C215.884 60.5106 215.44 60.6393 214.988 60.6321L213.317 60.5752ZM225.583 62.1953C226.055 62.0764 226.541 62.0191 227.028 62.0248C227.541 61.9796 228.054 62.1208 228.472 62.4227C228.622 62.5755 228.737 62.7585 228.81 62.9594C228.883 63.1604 228.913 63.3747 228.897 63.588C228.918 63.8148 228.891 64.0433 228.818 64.2588C228.745 64.4743 228.627 64.6718 228.472 64.8386C228.026 65.1488 227.484 65.2898 226.943 65.2366C226.486 65.2286 226.031 65.181 225.583 65.0945V62.1953ZM225.583 55.6297H222.438V67.7378H224.28H226.659C227.518 67.7614 228.376 67.6657 229.209 67.4535C229.833 67.3201 230.417 67.0373 230.909 66.6293C231.332 66.2626 231.654 65.7927 231.844 65.265C232.045 64.651 232.141 64.007 232.127 63.3607C232.135 62.8515 232.068 62.3439 231.929 61.8543C231.786 61.4008 231.533 60.9904 231.192 60.6605C230.821 60.2953 230.362 60.0312 229.861 59.8931C229.202 59.6812 228.512 59.5851 227.821 59.6089H226.744C226.354 59.6264 225.966 59.6739 225.583 59.751V55.6297ZM233.515 67.7378H236.66V55.6297H233.515V67.7378Z" fill="#9DC034"/>
<path d="M78.6409 40.0822C79.3513 40.044 80.0624 40.1405 80.7372 40.3664C80.9129 40.4498 81.0603 40.5832 81.161 40.75C81.2618 40.9167 81.3114 41.1095 81.3038 41.3044C81.3038 42.2423 80.5674 42.6971 79.0943 42.6971C78.512 42.7079 77.9308 42.641 77.3661 42.4981C76.8958 42.4073 76.4452 42.2341 76.0347 41.9865L75.3548 44.4309C75.8596 44.7242 76.4033 44.9443 76.9696 45.0846C77.7259 45.2928 78.5086 45.3886 79.2926 45.3688C80.0572 45.3748 80.8192 45.2792 81.5589 45.0846C82.1424 44.9241 82.6904 44.654 83.1736 44.2888C83.5764 43.9879 83.9057 43.5991 84.1367 43.1518C84.3403 42.6958 84.4464 42.202 84.4483 41.7023C84.4896 41.0069 84.3004 40.3173 83.9101 39.7411C83.4569 39.1817 82.8089 38.8159 82.0971 38.7179C82.4042 38.6161 82.6916 38.4623 82.947 38.2631C83.1677 38.0537 83.3584 37.8146 83.5136 37.5526C83.6767 37.308 83.8009 37.0395 83.8819 36.7567C83.9095 36.4732 83.9095 36.1876 83.8819 35.904C83.906 35.472 83.8227 35.0407 83.6398 34.6488C83.4569 34.2569 83.18 33.9167 82.8337 33.6586C81.9123 33.079 80.8303 32.8101 79.7458 32.8912C78.8856 32.8761 78.0274 32.9814 77.1961 33.2039C76.5244 33.3504 75.8762 33.5896 75.2698 33.9144L75.9496 36.302C76.3197 36.0947 76.7087 35.9234 77.1112 35.7903C77.6518 35.6215 78.2167 35.5446 78.7825 35.563C79.2865 35.5356 79.7902 35.623 80.2557 35.8188C80.4112 35.9187 80.5377 36.0581 80.6223 36.2228C80.7068 36.3875 80.7464 36.5717 80.7372 36.7567C80.7328 36.9419 80.6811 37.1228 80.5868 37.2821C80.4925 37.4414 80.3589 37.5737 80.199 37.6662C79.7776 37.9089 79.2964 38.0272 78.8109 38.0073H77.3379V40.0822H78.6409ZM98.6128 42.3276H96.8564V32.9765H88.3577C88.3782 34.2783 88.3025 35.5798 88.1312 36.8704C88.0233 37.828 87.8528 38.7775 87.6211 39.7127C87.4712 40.3154 87.2723 40.9048 87.0263 41.4749C86.8845 41.7931 86.7138 42.0976 86.5164 42.3844H85.1V47.9269H87.3946L87.7629 45.0846H95.8649L96.2332 47.9269H98.5279L98.6128 42.3276ZM89.7458 42.3276C89.9667 41.9003 90.147 41.453 90.2841 40.9917C90.4618 40.4233 90.6038 39.8442 90.7091 39.2579C90.7091 38.661 90.9356 38.0073 90.9923 37.382C91.0489 36.7567 91.1339 36.103 91.1622 35.5061H93.7119V42.3276H89.7458ZM100.313 49.8028H103.457V44.8288C103.763 44.9888 104.086 45.1128 104.42 45.1983C104.826 45.2328 105.233 45.2328 105.638 45.1983C106.446 45.2165 107.247 45.0615 107.99 44.7435C108.676 44.45 109.279 43.9912 109.746 43.4077C110.232 42.7798 110.597 42.0665 110.823 41.3044C111.063 40.3767 111.178 39.4206 111.163 38.4621C111.301 36.8349 110.903 35.207 110.029 33.8292C109.614 33.3414 109.089 32.9587 108.499 32.7118C107.908 32.4649 107.268 32.3609 106.63 32.408C105.917 32.3859 105.209 32.5319 104.562 32.8344C103.948 33.1443 103.428 33.6159 103.06 34.1987L102.692 32.7491H100.397L100.313 49.8028ZM107.423 36.0462C107.804 36.8123 107.979 37.6643 107.933 38.5189C108.025 39.6151 107.788 40.7138 107.253 41.6739C107.026 41.9913 106.722 42.2462 106.371 42.4151C106.019 42.5839 105.631 42.6614 105.242 42.6402C104.885 42.6502 104.529 42.5923 104.194 42.4697C103.925 42.3731 103.675 42.2287 103.457 42.0434V37.2399C103.595 36.7219 103.869 36.2507 104.25 35.8756C104.656 35.541 105.17 35.3688 105.695 35.3924C106.035 35.373 106.374 35.4442 106.678 35.599C106.981 35.7538 107.238 35.9865 107.423 36.2735V36.0462ZM114.024 36.1314C114.58 35.8999 115.159 35.7284 115.752 35.6198C116.406 35.5001 117.07 35.4336 117.735 35.4209C118.585 35.4209 119.123 35.6198 119.35 36.0177C119.629 36.6318 119.698 37.3211 119.548 37.9789C118.605 37.8935 117.657 37.8935 116.715 37.9789C115.95 38.0861 115.206 38.3064 114.505 38.6326C113.932 38.9168 113.443 39.3483 113.089 39.8832C112.735 40.4429 112.557 41.0966 112.579 41.7591C112.571 42.2542 112.657 42.7464 112.834 43.2087C113.012 43.6259 113.272 44.0029 113.599 44.3172C113.931 44.6348 114.327 44.8771 114.76 45.0278C115.241 45.2024 115.75 45.2891 116.262 45.2836C117.035 45.3222 117.803 45.1346 118.471 44.7435C119.009 44.4061 119.472 43.961 119.831 43.4361L120.341 45.113H122.891C122.692 44.5149 122.568 43.8943 122.522 43.2655C122.522 42.6118 122.522 41.9297 122.522 41.2475C122.522 40.5654 122.522 39.8548 122.522 39.1442C122.522 38.4337 122.522 37.6947 122.522 36.9841C122.526 36.3985 122.45 35.8151 122.296 35.2503C122.18 34.7567 121.946 34.2984 121.616 33.9144C121.24 33.5219 120.773 33.229 120.256 33.0618C119.58 32.8371 118.871 32.7313 118.16 32.7491C117.209 32.7434 116.261 32.829 115.327 33.0049C114.54 33.148 113.77 33.3768 113.032 33.6871L114.024 36.1314ZM116.148 42.4129C116.014 42.2738 115.91 42.1089 115.842 41.9281C115.774 41.7472 115.743 41.5544 115.752 41.3612C115.749 41.2145 115.775 41.0686 115.828 40.9319C115.882 40.7953 115.962 40.6707 116.063 40.5654C116.305 40.3394 116.596 40.1739 116.913 40.0822C117.309 39.9578 117.718 39.8815 118.131 39.8548C118.612 39.8127 119.096 39.8127 119.576 39.8548V41.4181C119.372 41.7776 119.091 42.0881 118.755 42.3276C118.314 42.631 117.787 42.7808 117.253 42.7539C116.852 42.7757 116.457 42.6437 116.148 42.3844V42.4129ZM125.299 45.2267L127.282 45.3688C128.046 45.3688 128.755 45.3688 129.435 45.3688C130.969 45.4846 132.507 45.1801 133.882 44.4877C134.354 44.1898 134.733 43.7662 134.978 43.2642C135.223 42.7622 135.325 42.2018 135.27 41.6454C135.295 40.9743 135.096 40.314 134.704 39.7695C134.214 39.2062 133.542 38.8339 132.806 38.7179C133.435 38.52 133.977 38.1079 134.336 37.5526C134.641 37.0565 134.807 36.487 134.817 35.904C134.848 35.458 134.759 35.0118 134.56 34.6119C134.361 34.212 134.058 33.873 133.684 33.6302C132.526 33.0206 131.219 32.7544 129.916 32.8628H127.338L125.299 33.0049V45.2267ZM128.386 39.9969H130.001C130.591 39.9375 131.183 40.0884 131.673 40.4233C131.822 40.5467 131.941 40.7035 132.02 40.8811C132.098 41.0587 132.135 41.2523 132.126 41.4465C132.139 41.6622 132.097 41.8776 132.002 42.0719C131.908 42.2662 131.765 42.4326 131.588 42.555C131.007 42.8393 130.363 42.9667 129.718 42.9245H129.01H128.386V39.9969ZM128.386 38.0642V35.5345H128.953H129.86C130.393 35.4823 130.928 35.6018 131.389 35.8756C131.529 35.9873 131.64 36.1305 131.714 36.2935C131.788 36.4565 131.822 36.6347 131.814 36.8136C131.815 37.0042 131.768 37.192 131.679 37.3605C131.59 37.529 131.462 37.673 131.304 37.7799C130.933 38.0442 130.484 38.1745 130.03 38.1494L128.386 38.0642ZM137.253 41.816C137.48 42.5518 137.845 43.2369 138.33 43.834C138.826 44.3845 139.435 44.8208 140.115 45.113C140.905 45.4375 141.754 45.5924 142.608 45.5678C143.384 45.6169 144.162 45.4948 144.886 45.21C145.611 44.9252 146.264 44.4846 146.8 43.9193C147.865 42.588 148.391 40.9036 148.273 39.2011C148.285 38.3176 148.17 37.4371 147.933 36.5862C147.727 35.8395 147.37 35.1431 146.885 34.5397C146.4 33.9899 145.8 33.5533 145.129 33.2607C144.329 32.9364 143.47 32.7816 142.608 32.806C141.831 32.7588 141.054 32.8818 140.33 33.1665C139.606 33.4512 138.953 33.8907 138.415 34.4545C137.339 35.7917 136.803 37.4859 136.913 39.2011C136.906 40.0843 137.02 40.9643 137.253 41.816ZM140.795 36.3304C141.006 36.0499 141.28 35.8237 141.595 35.6705C141.91 35.5173 142.257 35.4415 142.608 35.4493C142.992 35.4208 143.375 35.505 143.712 35.6918C144.05 35.8785 144.325 36.1597 144.506 36.5009C144.903 37.3431 145.088 38.2704 145.044 39.2011C145.12 40.1861 144.914 41.1724 144.449 42.0434C144.248 42.3426 143.972 42.584 143.649 42.7435C143.326 42.903 142.967 42.9752 142.608 42.9529C142.221 42.953 141.841 42.8552 141.503 42.6687C141.174 42.4865 140.907 42.2092 140.738 41.8728C140.536 41.5061 140.384 41.1143 140.285 40.7075C140.24 40.2158 140.24 39.7212 140.285 39.2295C140.214 38.238 140.441 37.2481 140.936 36.3872L140.795 36.3304ZM150.37 41.8728C150.586 42.607 150.942 43.2922 151.418 43.8908C151.914 44.4413 152.523 44.8777 153.203 45.1699C153.993 45.4943 154.842 45.6492 155.696 45.6246C156.472 45.6738 157.25 45.5516 157.974 45.2668C158.698 44.982 159.352 44.5415 159.888 43.9761C160.96 42.6477 161.496 40.9638 161.39 39.2579C161.393 38.3731 161.269 37.4924 161.021 36.643C160.823 35.8929 160.466 35.1948 159.973 34.5966C159.494 34.0402 158.893 33.6025 158.217 33.3176C157.417 32.9932 156.558 32.8384 155.696 32.8628C154.919 32.8156 154.142 32.9386 153.418 33.2233C152.694 33.508 152.041 33.9475 151.503 34.5113C150.427 35.8485 149.891 37.5428 150.001 39.2579C150.003 40.1425 150.126 41.0226 150.37 41.8728ZM153.911 36.3872C154.114 36.1054 154.383 35.8778 154.694 35.7242C155.005 35.5706 155.349 35.4957 155.696 35.5061C156.08 35.4739 156.465 35.5566 156.803 35.7437C157.141 35.9308 157.416 36.2141 157.594 36.5578C157.991 37.4 158.176 38.3272 158.132 39.2579C158.208 40.2429 158.002 41.2292 157.537 42.1002C157.336 42.3995 157.06 42.6408 156.737 42.8003C156.414 42.9599 156.055 43.032 155.696 43.0097C155.309 43.0098 154.929 42.912 154.591 42.7255C154.275 42.5265 154.013 42.2533 153.826 41.9297C153.622 41.5671 153.478 41.1735 153.401 40.7643C153.342 40.2734 153.342 39.7773 153.401 39.2863C153.315 38.2938 153.543 37.2994 154.052 36.4441L153.911 36.3872ZM162.013 45.3404H165.441L167.31 42.4981L168.075 40.7075L168.812 42.4981L170.653 45.3404H174.308L170.427 39.059L174.053 33.3744H170.653L169.01 35.9609L168.302 37.6378L167.622 35.9609L166.064 33.3744H162.325L165.922 39.2579L162.013 45.3404ZM175.866 50.2007H179.01V45.2267C179.316 45.3867 179.639 45.5107 179.973 45.5962C180.388 45.6317 180.805 45.6317 181.22 45.5962C182.027 45.6144 182.829 45.4594 183.571 45.1414C184.245 44.8401 184.837 44.3822 185.299 43.8056C185.796 43.1848 186.163 42.4692 186.376 41.7023C186.627 40.7761 186.751 39.8198 186.744 38.86C186.875 37.2296 186.466 35.6015 185.583 34.2271C185.167 33.7394 184.642 33.3566 184.052 33.1097C183.461 32.8629 182.821 32.7588 182.183 32.806C181.47 32.7838 180.762 32.9299 180.115 33.2323C179.436 33.4561 178.83 33.8586 178.359 34.3976L177.99 32.9481H175.526L175.866 50.2007ZM182.976 36.4441C183.357 37.2102 183.532 38.0622 183.486 38.9169C183.577 40.0095 183.351 41.1052 182.835 42.0718C182.601 42.3896 182.292 42.6442 181.936 42.8128C181.58 42.9815 181.188 43.0589 180.795 43.0382C180.438 43.0481 180.082 42.9902 179.747 42.8676C179.481 42.7635 179.233 42.6198 179.01 42.4413V37.2399C179.149 36.7158 179.434 36.2425 179.832 35.8756C180.226 35.5404 180.732 35.3677 181.248 35.3924C181.588 35.373 181.927 35.4442 182.231 35.599C182.534 35.7538 182.792 35.9865 182.976 36.2735V36.4441ZM189.577 36.1314C190.133 35.8999 190.713 35.7284 191.305 35.6198C191.96 35.5014 192.623 35.4349 193.288 35.4209C194.138 35.4209 194.676 35.6198 194.903 36.0177C195.182 36.6318 195.252 37.3211 195.101 37.9789C194.159 37.8944 193.211 37.8944 192.268 37.9789C191.503 38.0861 190.759 38.3064 190.059 38.6326C189.485 38.9168 188.996 39.3483 188.642 39.8832C188.288 40.4429 188.11 41.0966 188.132 41.7591C188.119 42.2574 188.216 42.7524 188.415 43.2087C188.583 43.6246 188.834 44.0018 189.152 44.3172C189.484 44.6348 189.88 44.8771 190.313 45.0278C190.804 45.2046 191.322 45.2913 191.843 45.2836C192.607 45.3183 193.365 45.1307 194.025 44.7435C194.569 44.4145 195.034 43.9678 195.384 43.4361L195.894 45.113H198.444C198.245 44.5149 198.122 43.8943 198.076 43.2655C198.076 42.6118 198.076 41.9297 198.076 41.2475V39.1442C198.076 38.4052 198.076 37.6947 198.076 36.9841C198.074 36.4006 198.007 35.8191 197.877 35.2503C197.74 34.7592 197.498 34.3035 197.169 33.9144C196.799 33.5284 196.342 33.2362 195.838 33.0618C195.152 32.8393 194.434 32.7336 193.713 32.7491C192.762 32.7401 191.814 32.8258 190.88 33.0049C190.091 33.1401 189.321 33.3691 188.585 33.6871L189.577 36.1314ZM191.702 42.4129C191.568 42.2738 191.463 42.1089 191.395 41.9281C191.327 41.7472 191.296 41.5544 191.305 41.3612C191.302 41.2145 191.328 41.0686 191.381 40.9319C191.435 40.7953 191.515 40.6707 191.617 40.5654C191.858 40.3394 192.149 40.1739 192.466 40.0822C192.862 39.9578 193.271 39.8815 193.685 39.8548C194.165 39.8127 194.649 39.8127 195.129 39.8548V41.4181C194.925 41.7776 194.644 42.0881 194.308 42.3276C193.868 42.631 193.34 42.7808 192.806 42.7539C192.405 42.7757 192.01 42.6437 191.702 42.3844V42.4129ZM207.934 45.2267H211.079V32.9765H207.934V37.5241H203.855V32.9765H200.739V45.0562H203.855V40.3096H207.792L207.934 45.2267ZM222.438 42.1286C222.078 42.4003 221.676 42.6115 221.249 42.7539C220.688 42.9663 220.092 43.0723 219.492 43.0666C219.077 43.1165 218.656 43.0736 218.259 42.9409C217.862 42.8082 217.5 42.5891 217.198 42.2992C216.679 41.6449 216.4 40.8326 216.404 39.9969H223.628C223.711 39.5936 223.767 39.1853 223.798 38.7747C223.798 38.3768 223.798 38.0357 223.798 37.6947C223.818 36.8901 223.683 36.0892 223.402 35.3356C223.154 34.7546 222.776 34.239 222.297 33.8292C221.848 33.4591 221.327 33.1879 220.767 33.0333C220.183 32.886 219.584 32.8097 218.982 32.806C218.198 32.7593 217.413 32.8767 216.677 33.1507C215.94 33.4247 215.269 33.8493 214.705 34.3976C213.599 35.741 213.06 37.4647 213.203 39.2011C213.103 40.8619 213.573 42.5071 214.535 43.8624C215.066 44.4615 215.729 44.9277 216.472 45.2238C217.215 45.5199 218.016 45.6377 218.812 45.5678C219.707 45.5835 220.597 45.449 221.447 45.1699C222.158 44.9641 222.829 44.6373 223.43 44.2035L222.438 42.1286ZM220.54 36.0177C220.902 36.6238 221.043 37.3373 220.937 38.0357H216.489C216.519 37.3158 216.766 36.622 217.198 36.0462C217.422 35.7898 217.702 35.5895 218.017 35.4612C218.332 35.3329 218.672 35.2802 219.011 35.3072C219.304 35.29 219.598 35.3458 219.864 35.4698C220.131 35.5938 220.364 35.782 220.54 36.0177ZM233.147 45.2267H236.291V32.9765H233.147V37.5241H229.209V32.9765H226.093V45.0562H229.209V40.3096H233.147V45.2267ZM246.291 45.2267H249.181V32.9765H247.198L242.864 38.661L241.872 40.3664V38.7179V33.0333H238.728V45.113H240.711L244.988 39.6558L246.036 37.8936V39.599L246.291 45.2267ZM258.558 45.2267H261.702V33.1754L259.946 32.9196C259.229 32.8749 258.51 32.8749 257.793 32.9196C256.233 32.8054 254.674 33.1618 253.317 33.9429C252.819 34.3147 252.423 34.8067 252.166 35.3731C251.908 35.9396 251.797 36.5622 251.844 37.1831C251.813 38.0354 252.084 38.8711 252.609 39.5422C253.1 40.1425 253.797 40.5377 254.563 40.6506L253.402 41.5602L251.051 45.3404H254.79L257.113 41.077L258.558 40.7928V45.2267ZM257.68 39.059C257.012 39.1249 256.34 38.9862 255.753 38.661C255.476 38.5453 255.24 38.3471 255.078 38.093C254.916 37.839 254.835 37.5413 254.847 37.2399C254.826 36.978 254.872 36.715 254.981 36.4761C255.09 36.2372 255.258 36.0305 255.47 35.8756C255.957 35.5314 256.546 35.3612 257.141 35.3924H257.736C257.943 35.4152 258.144 35.4729 258.331 35.563V38.9169L257.68 39.059Z" fill="#9DC034"/>
<path d="M91.0774 19.4191H88.9244V5.43506H78.8109C78.8463 7.4368 78.7707 9.43895 78.5844 11.4323C78.4505 12.8462 78.2328 14.2508 77.9328 15.6389C77.749 16.5206 77.4933 17.3857 77.168 18.2253C76.9995 18.6326 76.8103 19.0311 76.6014 19.4191H74.8167V25.3879H77.168L77.5079 22.3751H88.3861L88.7261 25.3879H91.0774V19.4191ZM80.0858 19.4191C80.5852 18.1329 80.9554 16.7999 81.1907 15.4399C81.6083 13.1128 81.8356 10.7553 81.8705 8.39102H85.61V19.4191H80.0858ZM101.077 19.4191C100.707 19.6741 100.308 19.884 99.8877 20.0444C99.3142 20.2444 98.7099 20.3406 98.1029 20.3286C97.6884 20.3656 97.2708 20.3165 96.876 20.1845C96.4812 20.0525 96.1178 19.8403 95.8083 19.5612C95.2783 18.9151 95.0059 18.0949 95.0435 17.259H102.239C102.239 16.8326 102.239 16.4347 102.437 16.0652C102.636 15.6957 102.437 15.2978 102.437 14.9567C102.46 14.1585 102.316 13.3643 102.012 12.626C101.793 12.0372 101.421 11.5173 100.936 11.1196C100.484 10.7389 99.9507 10.4667 99.3778 10.3238C98.7985 10.1514 98.1972 10.0652 97.593 10.068C96.8183 10.0293 96.044 10.1506 95.3179 10.4244C94.5919 10.6981 93.9296 11.1186 93.372 11.6597C92.2615 13.0017 91.7132 14.7236 91.8423 16.4631C91.7459 18.1366 92.2259 19.7925 93.2021 21.1529C93.7333 21.7519 94.3968 22.2181 95.1395 22.5142C95.8822 22.8103 96.6836 22.9281 97.4798 22.8582C98.3728 22.8578 99.2607 22.7237 100.114 22.4603C100.819 22.2461 101.481 21.9094 102.069 21.4655L101.077 19.4191ZM99.1794 13.3082C99.5284 13.9087 99.668 14.6088 99.5761 15.2978H95.1001C95.137 14.588 95.3835 13.9053 95.8083 13.3366C96.0293 13.0766 96.3094 12.8738 96.6249 12.7452C96.9405 12.6166 97.2823 12.566 97.6214 12.5976C97.9199 12.5729 98.2198 12.6252 98.4925 12.7496C98.7652 12.874 99.0017 13.0663 99.1794 13.3082ZM111.644 22.5172H114.789V10.4091H104.704V22.5172H107.848V13.1945H111.644V22.5172ZM118.217 13.4503C118.77 13.2167 119.351 13.0543 119.945 12.9671C120.597 12.8347 121.262 12.768 121.928 12.7681C122.777 12.7681 123.316 12.9671 123.542 13.365C123.833 13.9659 123.903 14.6501 123.741 15.2978C122.798 15.2127 121.85 15.2127 120.908 15.2978C120.14 15.3917 119.394 15.6126 118.698 15.9515C118.126 16.2255 117.637 16.6473 117.282 17.1737C116.928 17.7333 116.75 18.3871 116.772 19.0496C116.759 19.5478 116.855 20.0428 117.055 20.4992C117.223 20.9151 117.473 21.2923 117.792 21.6076C118.122 21.9341 118.518 22.186 118.953 22.3466C119.444 22.5235 119.962 22.6101 120.483 22.6024C121.254 22.6202 122.016 22.434 122.692 22.0624C123.222 21.7244 123.676 21.2791 124.024 20.755L124.534 22.4319H127.084C126.888 21.833 126.764 21.2128 126.715 20.5844C126.715 19.9307 126.715 19.2485 126.715 18.5664V16.4347C126.715 15.7336 126.715 15.023 126.715 14.303C126.712 13.7102 126.645 13.1194 126.517 12.5408C126.384 12.0475 126.142 11.5908 125.809 11.2049C125.444 10.8126 124.985 10.5193 124.477 10.3522C123.789 10.1409 123.071 10.0449 122.352 10.068C121.402 10.059 120.453 10.1447 119.52 10.3238C118.727 10.4454 117.955 10.6749 117.225 11.0059L118.217 13.4503ZM120.341 19.7317C120.204 19.5948 120.098 19.4301 120.03 19.2488C119.961 19.0675 119.932 18.8736 119.945 18.6801C119.944 18.3848 120.056 18.1003 120.256 17.8842C120.504 17.6679 120.793 17.5036 121.106 17.4011C121.503 17.2866 121.912 17.2198 122.324 17.2021C122.805 17.1594 123.288 17.1594 123.769 17.2021V18.7938C123.56 19.1498 123.28 19.4593 122.947 19.7033C122.507 20.0067 121.979 20.1565 121.446 20.1297C121.04 20.1436 120.645 20.0012 120.341 19.7317ZM129.52 27.349H132.636V22.4035C132.944 22.5503 133.267 22.6646 133.599 22.7446C134.013 22.7948 134.432 22.7948 134.846 22.7446C135.652 22.7506 136.451 22.596 137.197 22.2898C137.864 21.9779 138.454 21.5217 138.925 20.9539C139.43 20.3279 139.797 19.6013 140.001 18.8222C140.268 17.8991 140.392 16.9406 140.37 15.9799C140.509 14.3527 140.11 12.7249 139.237 11.347C138.824 10.8541 138.3 10.4659 137.71 10.2141C137.119 9.96219 136.477 9.85371 135.837 9.89744C135.111 9.87043 134.391 10.0268 133.741 10.3522C133.148 10.669 132.641 11.1278 132.268 11.6881L131.928 10.2385H129.633L129.52 27.349ZM136.602 13.6208C137.007 14.3685 137.194 15.2158 137.14 16.0652C137.228 17.1701 136.991 18.2766 136.46 19.2485C136.225 19.563 135.915 19.8136 135.559 19.9774C135.203 20.1412 134.812 20.2131 134.421 20.1865C134.066 20.1912 133.713 20.1433 133.372 20.0444C133.112 19.9302 132.865 19.7872 132.636 19.618V14.5019C132.783 13.9734 133.067 13.4931 133.458 13.1092C133.864 12.7798 134.381 12.6173 134.902 12.6544C135.239 12.6277 135.577 12.696 135.877 12.8517C136.178 13.0074 136.429 13.2443 136.602 13.5356V13.6208ZM151.021 10.3238H140.993V13.1661H144.392V22.4887H147.622V13.1661H151.021V10.3238ZM153.118 13.365C153.661 13.1311 154.232 12.9687 154.817 12.8818C155.48 12.7494 156.154 12.6828 156.829 12.6829C157.126 12.6404 157.429 12.6727 157.711 12.7769C157.993 12.881 158.245 13.0538 158.443 13.2798C158.711 13.887 158.78 14.5634 158.642 15.2125C157.699 15.1262 156.751 15.1262 155.809 15.2125C155.04 15.2982 154.292 15.5195 153.599 15.8662C153.024 16.147 152.528 16.567 152.155 17.0884C151.822 17.6563 151.656 18.3062 151.673 18.9643C151.665 19.4594 151.751 19.9515 151.928 20.4139C152.095 20.8371 152.357 21.2162 152.693 21.5224C153.013 21.8482 153.399 22.1003 153.826 22.2614C154.316 22.4382 154.835 22.5249 155.356 22.5172C156.127 22.5419 156.891 22.3552 157.565 21.9771C158.101 21.647 158.556 21.2002 158.897 20.6697L159.378 22.3466H161.956C161.761 21.7477 161.637 21.1275 161.588 20.4992C161.588 19.8454 161.588 19.1633 161.588 18.4811C161.588 17.799 161.588 17.06 161.588 16.3494C161.588 15.6389 161.588 14.9283 161.588 14.2177C161.599 13.6242 161.532 13.0317 161.39 12.4555C161.257 11.9623 161.015 11.5055 160.682 11.1196C160.322 10.7213 159.862 10.4268 159.35 10.2669C158.672 10.0552 157.963 9.9591 157.254 9.98271C156.303 9.97574 155.355 10.0614 154.421 10.2385C153.63 10.3684 152.859 10.5976 152.126 10.9207L153.118 13.365ZM155.242 19.6465C155.106 19.5095 154.999 19.3449 154.931 19.1635C154.863 18.9822 154.834 18.7883 154.846 18.5948C154.845 18.2995 154.957 18.0151 155.157 17.799C155.397 17.5712 155.689 17.4054 156.007 17.3158C156.403 17.1991 156.813 17.1323 157.225 17.1168C157.697 17.0741 158.171 17.0741 158.642 17.1168V18.7085C158.437 19.0681 158.157 19.3785 157.82 19.618C157.392 19.9233 156.872 20.0736 156.347 20.0444C156.146 20.0559 155.944 20.0266 155.754 19.9582C155.565 19.8899 155.391 19.7838 155.242 19.6465ZM174.733 22.4887H177.736V10.3806H174.449L171.9 14.8999L171.191 16.4631L170.512 14.9283L167.679 10.3806H164.421V22.4887H167.254V16.8042L166.942 14.303L167.849 16.4063L170.342 20.1581H171.475L173.741 16.4063L174.704 14.303L174.534 16.8326L174.733 22.4887ZM189.067 19.3907C188.704 19.6576 188.303 19.8684 187.877 20.016C187.314 20.218 186.719 20.3144 186.121 20.3002C185.706 20.3372 185.289 20.2881 184.894 20.1561C184.499 20.024 184.136 19.8119 183.826 19.5328C183.3 18.8831 183.019 18.0677 183.033 17.2305H190.257C190.257 16.8042 190.257 16.4063 190.455 16.0368C190.654 15.6673 190.455 15.2694 190.455 14.9283C190.478 14.1301 190.333 13.3359 190.03 12.5976C189.811 12.0087 189.439 11.4889 188.954 11.0912C188.501 10.7105 187.969 10.4383 187.396 10.2954C186.816 10.123 186.215 10.0368 185.611 10.0396C184.832 9.99688 184.052 10.1162 183.321 10.3901C182.589 10.664 181.922 11.0866 181.362 11.6312C180.251 12.9733 179.703 14.6952 179.832 16.4347C179.735 18.1082 180.215 19.764 181.192 21.1244C181.717 21.723 182.376 22.1892 183.114 22.4855C183.852 22.7817 184.649 22.8997 185.441 22.8298C186.343 22.8292 187.241 22.6951 188.104 22.4319C188.808 22.2177 189.47 21.8809 190.059 21.4371L189.067 19.3907ZM187.197 13.2798C187.546 13.8803 187.686 14.5804 187.594 15.2694H183.118C183.155 14.5596 183.401 13.8769 183.826 13.3082C184.047 13.0482 184.327 12.8454 184.643 12.7168C184.958 12.5882 185.3 12.5375 185.639 12.5692C185.938 12.5445 186.238 12.5968 186.51 12.7212C186.783 12.8455 187.02 13.0378 187.197 13.2798ZM199.804 22.4887H202.92V10.3806H199.804V14.9283H195.866V10.3806H192.722V22.4887H195.866V17.7137H199.804V22.4887ZM214.365 10.3806H204.336V13.2229H207.736V22.5456H210.965V13.2229H214.365V10.3806Z" fill="#9DC034"/>
<path d="M2.97467 3.89982V62.9624C2.97467 68.0501 7.56387 70.7218 12.0965 70.7218H22.3232C26.0645 70.8887 29.6519 72.2646 32.5501 74.6442C35.4451 72.2592 39.0342 70.8826 42.7767 70.7218H53.0034C57.5361 70.7218 62.1253 68.0501 62.1253 62.9624V3.89982H2.97467ZM32.5501 78.4813L31.5868 77.657C29.0379 75.3152 25.7714 73.912 22.3232 73.6778H12.0965C6.09077 73.6778 0 70.0113 0 62.9624V0.943848H65.1565V62.9624C65.1565 70.0113 59.0942 73.6778 53.0885 73.6778H42.8616C39.4134 73.912 36.1471 75.3152 33.5982 77.657L32.5501 78.4813Z" fill="#9DC034"/>
<path d="M5.86402 39.2579C8.52694 39.2579 8.35697 40.6222 8.69691 41.958C8.7007 41.6184 8.77581 41.2834 8.91737 40.9748C9.05893 40.6663 9.26386 40.3911 9.51856 40.1674V39.9116C9.80185 26.8087 26.0342 10.8635 44.6179 6.88428H5.72241L5.86402 39.2579Z" fill="#84BEE8"/>
<path d="M56.5445 6.88428C56.6847 6.97761 56.7998 7.10432 56.8794 7.2531C56.959 7.40188 57.0006 7.56811 57.0006 7.73696C57.0006 7.90581 56.959 8.07205 56.8794 8.22083C56.7998 8.36961 56.6847 8.49631 56.5445 8.58964C55.213 9.52759 43.4848 17.7134 53.7116 36.7567C53.8815 37.0409 54.0231 37.3251 54.1648 37.6093C56.5444 36.5293 59.3774 38.1778 59.3774 39.3431V6.88428H56.5445Z" fill="#84BEE8"/>
<path d="M35.3262 34.7386C34.6746 36.3587 33.5697 36.8987 32.7765 36.6429C31.9833 36.3871 31.1619 35.7903 31.7851 33.8007C32.4083 31.8111 34.0231 31.3279 34.618 31.6121C35.2129 31.8963 35.8644 33.1469 35.2411 34.7955L35.3262 34.7386ZM47.5643 20.0724C48.0037 16.5996 49.3308 13.2999 51.417 10.4939C53.1167 8.36224 54.2498 8.53277 53.9949 7.87904C53.7399 7.22532 51.7853 7.48112 49.7173 7.87904C42.2389 9.22934 35.0856 11.9979 28.6406 16.0364C15.6377 24.2506 7.33724 39.002 12.2948 48.8363C13.1819 50.9525 14.7654 52.6995 16.7812 53.7857C18.797 54.872 21.123 55.2318 23.3713 54.8051C25.6338 60.051 29.2647 64.5874 33.8814 67.9365C34.108 67.9365 34.193 67.9365 34.2497 67.9365C34.3064 67.9365 33.7114 67.0269 33.2864 66.4869C31.1782 64.1742 29.3958 61.5826 27.9889 58.7843C24.7269 52.0124 24.0615 44.2733 26.1193 37.0409C27.2425 32.2368 29.2714 27.6927 32.0967 23.6537L33.0032 22.4884C34.2497 20.783 34.1647 21.6641 34.0797 21.8347C33.9947 22.0052 33.5414 22.801 33.2864 23.3979C32.3935 25.4102 31.6087 27.4691 30.9353 29.5657C29.0992 34.6033 28.9698 40.1077 30.567 45.2266L33.3999 40.0253C35.0343 37.409 37.0381 35.0442 39.3489 33.0048C39.9824 32.434 40.6651 31.9204 41.3886 31.47C41.3886 31.47 41.7569 31.47 41.1903 32.1806C38.5747 35.249 36.5653 38.7891 35.2695 42.6117C34.8132 44.0343 34.5093 45.5016 34.3629 46.9888C36.8842 46.6194 36.0627 49.8311 34.3629 51.3091C34.3806 53.2306 35.0121 55.0957 36.1645 56.6305C37.3168 58.1653 38.9294 59.2888 40.7653 59.836C48.4141 61.5698 53.74 56.2263 53.9667 47.5289C54.1933 37.2967 45.9778 30.0204 47.4509 19.9587" fill="#9DC034"/>
<path d="M33.0317 48.0407C36.4028 46.5059 34.7598 50.883 33.0317 51.3093C31.6719 50.8261 30.1988 46.108 33.0317 48.0407Z" fill="#EC5238"/>
<path d="M28.6971 65.3502C25.8383 63.2748 23.6274 60.4257 22.3231 57.136C20.8411 57.3 19.3795 57.6142 17.9606 58.074C17.3712 57.2973 16.8677 56.4586 16.459 55.5728C13.2054 55.9937 10.1085 57.2249 7.45047 59.154C7.86713 59.8171 8.39411 60.4036 9.00853 60.8878L11.6149 60.433C9.61029 61.2675 7.79762 62.5057 6.28906 64.0712C6.90646 65.3015 7.74155 66.409 8.75366 67.3398C12.2492 66.6775 15.7759 66.1937 19.3203 65.8902C18.4009 66.4097 17.6 67.1165 16.9691 67.9651C17.4728 68.5705 18.0883 69.0724 18.782 69.4431C22.1658 68.2788 25.6194 67.3294 29.1222 66.6008C28.3561 66.2806 27.6694 65.7954 27.1107 65.1797H28.6971" fill="#E2B900"/>
<path d="M59.3775 59.069C56.9412 59.069 37.8476 63.1334 34.8447 65.6915C35.7598 66.6421 36.8216 67.4387 37.9892 68.0506C39.519 67.7948 42.8618 67.3684 46.4879 67.0273C45.8149 67.4426 45.2358 67.9944 44.788 68.6474C45.2818 69.2515 45.888 69.7535 46.5728 70.1254C49.9576 68.9646 53.411 68.0154 56.9129 67.2831C56.2967 67.0248 55.7307 66.6591 55.2414 66.2031H57.7911C58.8602 63.9712 59.3845 61.516 59.3208 59.0405" fill="#E2B900"/>
</svg>
