<svg width="387" height="400" viewBox="0 0 387 400" fill="none" xmlns="http://www.w3.org/2000/svg">
<g clip-path="url(#clip0_399_573)">
<path d="M261.095 36.4877C261.095 36.4877 197.298 13.8036 134.675 49.9235C72.0515 86.0435 40.4787 157.735 13.3074 215.195C-13.864 272.655 1.78972 331.048 49.5986 357.688C97.4075 384.329 129.914 345.057 196.981 343.131C264.049 341.204 282.084 350.838 337.736 312.919C393.389 275.001 403.451 185.558 359.547 119.389C315.643 53.2204 261.095 36.4877 261.095 36.4877Z" fill="#EBEBEB"/>
<path d="M277.45 164.946C248.335 155.363 190.208 138.554 190.105 138.511C190.105 138.511 132.859 155.363 103.727 164.946C112.65 208.952 115.622 252.951 124.544 296.957C144.583 311.078 190.679 339.971 191.03 339.714C191.467 340.031 236.638 311.078 256.667 296.957C265.556 252.951 268.528 208.987 277.45 164.946Z" stroke="#E7472C" stroke-width="5" stroke-linecap="round" stroke-linejoin="round"/>
<path d="M133.844 288.797L190.045 235.841L115.964 175.419L133.844 288.797Z" fill="#DADADA"/>
<path d="M247.411 289.876L188.572 235.841L265.188 175.419L247.411 289.876Z" fill="#DADADA"/>
<path d="M190.045 234.634L265.188 175.419L189.309 152.949L115.964 175.419L188.572 234.634V235.841L189.309 235.242L190.045 235.841V234.634Z" fill="white"/>
<path d="M247.411 289.876L189.309 236.543L133.844 288.797L190.987 326.578L247.411 289.876Z" fill="#C6C6C6"/>
<path d="M188.418 400.428C253.21 400.428 305.735 397.936 305.735 394.862C305.735 391.787 253.21 389.295 188.418 389.295C123.626 389.295 71.1008 391.787 71.1008 394.862C71.1008 397.936 123.626 400.428 188.418 400.428Z" fill="#EBEBEB"/>
<path d="M151.116 382.077C151.116 382.077 143.555 390.871 143.555 392.104C143.55 392.824 143.669 393.54 143.906 394.22H164.843C164.951 392.286 164.951 390.347 164.843 388.414C164.672 385.245 164.492 379.79 164.492 379.79C164.492 379.79 165.905 377.675 165.546 375.92C165.186 374.164 163.088 373.804 162.557 373.804C162.557 373.804 157.214 372.314 154.636 374.858L151.116 382.077Z" fill="#5A2916"/>
<path d="M143.555 392.104C143.55 392.824 143.669 393.54 143.906 394.219H164.843C164.843 394.219 164.929 392.918 164.92 391.051H144.043C143.809 391.364 143.643 391.723 143.555 392.104V392.104Z" fill="white" stroke="#5A2916" stroke-linecap="round" stroke-linejoin="round"/>
<path d="M161.333 394.399L161.855 388.242" stroke="#5A2916" stroke-linecap="round" stroke-linejoin="round"/>
<path d="M232.647 382.077C232.647 382.077 240.217 390.871 240.217 392.104C240.223 392.824 240.104 393.54 239.866 394.22H218.929C218.821 392.286 218.821 390.347 218.929 388.414C219.1 385.245 219.28 379.79 219.28 379.79C219.28 379.79 217.867 377.675 218.218 375.92C218.57 374.164 220.685 373.804 221.216 373.804C221.216 373.804 226.559 372.314 229.128 374.858L232.647 382.077Z" fill="#5A2916"/>
<path d="M240.217 392.104C240.223 392.824 240.104 393.54 239.866 394.219H218.929C218.929 394.219 218.835 392.918 218.852 391.051H239.729C239.963 391.364 240.13 391.723 240.217 392.104V392.104Z" fill="white" stroke="#5A2916" stroke-linecap="round" stroke-linejoin="round"/>
<path d="M222.449 394.399L221.918 388.242" stroke="#5A2916" stroke-linecap="round" stroke-linejoin="round"/>
<path d="M228.922 172.224C225.334 168.799 223.724 168.628 216.351 165.605C212.609 163.991 208.751 162.663 204.808 161.632C202.188 161.229 199.567 160.852 196.947 160.476C195.003 160.193 193.119 159.431 191.133 159.619C186.959 160.022 182.817 160.7 178.733 161.649C174.794 162.683 170.938 164.011 167.198 165.622C159.825 168.645 156.229 168.833 152.64 172.242C149.052 175.65 127.105 200.423 127.293 203.849C127.482 207.274 132.782 210.656 136.935 208.987C141.089 207.317 160.39 185.866 160.39 185.866C160.39 185.866 170.409 209.124 170.409 213.851C170.409 218.578 169.467 220.282 169.091 221.224C168.714 222.166 161.144 242.786 158.875 252.051C156.605 261.317 155.098 277.39 155.852 286.476C156.364 294.952 155.855 303.46 154.336 311.815C152.441 319.037 151.488 326.475 151.502 333.942C151.502 345.074 152.067 376.682 152.067 377.435V381.965L161.709 381.212L168.902 345.657L180.034 299.509L191.004 259.613L191.749 259.553L192.494 259.613L203.464 299.509L214.596 345.657L221.78 381.212L231.431 381.965V377.427C231.431 376.673 231.996 345.092 231.996 333.934C232.01 326.466 231.057 319.029 229.162 311.806C227.643 303.451 227.134 294.944 227.646 286.467C228.4 277.382 226.893 261.308 224.624 252.043C222.354 242.777 212.798 222.166 212.421 221.215C212.044 220.265 211.093 218.569 211.093 213.842C211.093 209.115 221.172 185.866 221.172 185.866C221.172 185.866 242.444 207.231 246.605 208.935C250.767 210.639 254.073 207.223 254.312 203.797C254.552 200.372 232.519 175.59 228.922 172.224Z" fill="#F8BC9E" stroke="#5A2916" stroke-miterlimit="10"/>
<path d="M227.698 286.45C228.451 277.365 226.944 261.291 224.675 252.026C222.406 242.76 212.849 222.149 212.472 221.198C212.335 220.855 212.113 220.402 211.899 219.734H169.664C169.442 220.402 169.228 220.855 169.091 221.198C168.714 222.149 161.144 242.76 158.875 252.026C156.605 261.291 155.098 277.365 155.852 286.45C156.364 294.927 155.855 303.434 154.336 311.789C152.441 319.012 151.488 326.449 151.502 333.917C151.502 345.049 152.067 376.656 152.067 377.41V381.965L161.709 381.212L168.902 345.657L180.035 299.509L191.004 259.613L191.749 259.553L192.494 259.613L203.464 299.509L214.596 345.657L221.781 381.212L231.432 381.965V377.427C231.432 376.673 231.997 345.092 231.997 333.934C232.01 326.466 231.057 319.029 229.162 311.806C227.659 303.444 227.167 294.93 227.698 286.45V286.45Z" fill="#E7472C"/>
<path d="M217.576 194.498L207.3 189.266L202.419 161.272L200.458 160.981L202.762 182.244H175.522L177.723 161.897C177.217 162.034 176.524 162.24 175.65 162.514L170.966 189.291L163.756 193.958C165.469 198.24 167.481 203.378 168.843 207.471H212.721C213.997 203.515 215.906 198.634 217.576 194.498Z" fill="#E7472C"/>
<path d="M221.173 185.84L216.677 181.576" stroke="#5A2916" stroke-linecap="round" stroke-linejoin="round"/>
<path d="M160.39 185.84L164.347 181.875" stroke="#5A2916" stroke-linecap="round" stroke-linejoin="round"/>
<path d="M151.827 362.193C151.956 370.405 152.067 377.067 152.067 377.41V381.965L161.709 381.212L165.554 362.21L151.827 362.193Z" fill="#CD9A67" stroke="#5A2916" stroke-miterlimit="10"/>
<path d="M151.116 382.077V378.54C151.116 376.074 152.178 372.905 156.751 372.734C161.324 372.563 161.966 381.058 162.172 381.931L151.116 382.077Z" fill="#5A2916"/>
<path d="M217.919 361.842L221.832 381.195L231.483 381.948V377.41C231.483 377.067 231.603 370.216 231.731 361.842H217.919Z" fill="#CD9A67" stroke="#5A2916" stroke-miterlimit="10"/>
<path d="M232.879 382.076V378.54C232.879 376.074 231.825 372.905 227.253 372.734C222.68 372.563 222.466 381.297 222.252 382.222L232.879 382.076Z" fill="#5A2916"/>
<path d="M161.546 383.198H152.692C152.61 383.198 152.529 383.182 152.453 383.151C152.377 383.119 152.308 383.073 152.25 383.015C152.192 382.957 152.146 382.888 152.114 382.813C152.083 382.737 152.067 382.655 152.067 382.573V382.573C152.067 382.407 152.133 382.248 152.25 382.131C152.367 382.014 152.526 381.948 152.692 381.948H161.546C161.712 381.948 161.871 382.014 161.988 382.131C162.106 382.248 162.172 382.407 162.172 382.573V382.573C162.172 382.655 162.155 382.737 162.124 382.813C162.093 382.888 162.047 382.957 161.988 383.015C161.93 383.073 161.862 383.119 161.786 383.151C161.71 383.182 161.628 383.198 161.546 383.198V383.198Z" fill="white" stroke="#263239" stroke-width="0.5" stroke-linecap="round" stroke-linejoin="round"/>
<path d="M160.425 384.646H151.57C151.404 384.646 151.245 384.58 151.128 384.463C151.011 384.345 150.945 384.186 150.945 384.02V384.02C150.945 383.855 151.011 383.696 151.128 383.578C151.245 383.461 151.404 383.395 151.57 383.395H160.425C160.59 383.395 160.749 383.461 160.867 383.578C160.984 383.696 161.05 383.855 161.05 384.02V384.02C161.05 384.186 160.984 384.345 160.867 384.463C160.749 384.58 160.59 384.646 160.425 384.646Z" fill="white" stroke="#263239" stroke-width="0.5" stroke-linecap="round" stroke-linejoin="round"/>
<path d="M159.303 386.093H150.448C150.283 386.093 150.124 386.027 150.006 385.91C149.889 385.792 149.823 385.633 149.823 385.468V385.468C149.822 385.385 149.837 385.303 149.868 385.227C149.899 385.151 149.945 385.081 150.004 385.023C150.062 384.965 150.131 384.919 150.208 384.888C150.284 384.857 150.366 384.841 150.448 384.842H159.303C159.469 384.842 159.628 384.908 159.745 385.026C159.862 385.143 159.928 385.302 159.928 385.468C159.928 385.633 159.862 385.792 159.745 385.91C159.628 386.027 159.469 386.093 159.303 386.093Z" fill="white" stroke="#263239" stroke-width="0.5" stroke-linecap="round" stroke-linejoin="round"/>
<path d="M158.173 387.54H149.318C149.152 387.54 148.993 387.474 148.876 387.357C148.759 387.24 148.693 387.081 148.693 386.915V386.915C148.693 386.749 148.759 386.59 148.876 386.473C148.993 386.356 149.152 386.29 149.318 386.29H158.173C158.255 386.289 158.337 386.304 158.413 386.335C158.489 386.366 158.559 386.412 158.617 386.47C158.675 386.529 158.721 386.598 158.752 386.674C158.783 386.751 158.799 386.832 158.798 386.915V386.915C158.798 387.081 158.732 387.24 158.615 387.357C158.497 387.474 158.338 387.54 158.173 387.54V387.54Z" fill="white" stroke="#263239" stroke-width="0.5" stroke-linecap="round" stroke-linejoin="round"/>
<path d="M222.56 383.198H231.414C231.496 383.198 231.578 383.182 231.654 383.151C231.729 383.119 231.798 383.073 231.856 383.015C231.914 382.957 231.96 382.888 231.992 382.813C232.023 382.737 232.039 382.655 232.039 382.573V382.573C232.039 382.407 231.974 382.248 231.856 382.131C231.739 382.014 231.58 381.948 231.414 381.948H222.56C222.394 381.948 222.235 382.014 222.118 382.131C222.001 382.248 221.935 382.407 221.935 382.573V382.573C221.935 382.655 221.951 382.737 221.982 382.813C222.014 382.888 222.06 382.957 222.118 383.015C222.176 383.073 222.245 383.119 222.321 383.151C222.396 383.182 222.478 383.198 222.56 383.198V383.198Z" fill="white" stroke="#263239" stroke-width="0.5" stroke-linecap="round" stroke-linejoin="round"/>
<path d="M223.69 384.646H232.553C232.719 384.646 232.878 384.58 232.995 384.463C233.113 384.345 233.178 384.186 233.178 384.02V384.02C233.178 383.855 233.113 383.696 232.995 383.578C232.878 383.461 232.719 383.395 232.553 383.395H223.69C223.524 383.395 223.366 383.461 223.248 383.578C223.131 383.696 223.065 383.855 223.065 384.02V384.02C223.065 384.186 223.131 384.345 223.248 384.463C223.366 384.58 223.524 384.646 223.69 384.646V384.646Z" fill="white" stroke="#263239" stroke-width="0.5" stroke-linecap="round" stroke-linejoin="round"/>
<path d="M224.821 386.093H233.692C233.858 386.093 234.017 386.027 234.134 385.91C234.252 385.792 234.317 385.633 234.317 385.468V385.468C234.317 385.302 234.252 385.143 234.134 385.026C234.017 384.908 233.858 384.842 233.692 384.842H224.838C224.755 384.841 224.674 384.857 224.597 384.888C224.521 384.919 224.452 384.965 224.393 385.023C224.335 385.081 224.289 385.151 224.258 385.227C224.227 385.303 224.212 385.385 224.213 385.468V385.468C224.213 385.631 224.276 385.787 224.39 385.904C224.503 386.021 224.658 386.088 224.821 386.093V386.093Z" fill="white" stroke="#263239" stroke-width="0.5" stroke-linecap="round" stroke-linejoin="round"/>
<path d="M225.985 387.54H234.84C235.005 387.54 235.165 387.474 235.282 387.357C235.399 387.24 235.465 387.081 235.465 386.915C235.466 386.832 235.451 386.751 235.42 386.674C235.389 386.598 235.343 386.529 235.284 386.47C235.226 386.412 235.157 386.366 235.08 386.335C235.004 386.304 234.922 386.289 234.84 386.29H225.985C225.819 386.29 225.66 386.356 225.543 386.473C225.426 386.59 225.36 386.749 225.36 386.915C225.36 387.081 225.426 387.24 225.543 387.357C225.66 387.474 225.819 387.54 225.985 387.54Z" fill="white" stroke="#263239" stroke-width="0.5" stroke-linecap="round" stroke-linejoin="round"/>
<path d="M136.987 198.497C136.987 198.497 158.31 215.101 161.983 217.55C165.657 219.999 169.322 220.522 169.502 221.746C169.682 222.971 170.546 225.069 169.673 226.465C168.8 227.86 166.702 232.759 165.477 233.315C164.252 233.872 160.759 234.36 159.885 233.838C159.012 233.315 160.587 232.271 161.11 232.125C161.628 231.98 162.154 231.863 162.685 231.774C161.109 230.487 159.75 228.955 158.661 227.235C157.748 225.377 156.989 223.446 156.391 221.464C156.391 221.464 137.338 214.827 132.414 211.856C127.49 208.884 125.418 206.084 127.867 202.068" fill="#F8BC9E"/>
<path d="M136.987 198.497C136.987 198.497 158.31 215.101 161.983 217.55C165.657 219.999 169.322 220.522 169.502 221.746C169.682 222.971 170.546 225.069 169.673 226.465C168.8 227.86 166.702 232.759 165.477 233.315C164.252 233.872 160.759 234.36 159.885 233.838C159.012 233.315 160.587 232.271 161.11 232.125C161.628 231.98 162.154 231.863 162.685 231.774C161.109 230.487 159.75 228.955 158.661 227.235C157.748 225.377 156.989 223.446 156.391 221.464C156.391 221.464 137.338 214.827 132.414 211.856C127.49 208.884 125.418 206.084 127.867 202.068" stroke="#5A2916" stroke-miterlimit="10"/>
<path d="M252.343 207.942C253.247 207.057 253.805 205.879 253.919 204.619C254.09 202.521 253.739 197.769 251.821 191.338C249.903 184.907 237.666 157.256 237.666 156.554C237.666 155.851 239.378 150.088 238.522 146.937C237.666 143.786 234.677 139.076 234.677 139.076L224.709 141.868C224.709 141.868 225.934 152.186 228.554 154.456C231.175 156.725 232.93 161.306 233.975 165.117C235.02 168.928 236.775 180.676 237.991 187.835C238.638 192.597 240.246 197.177 242.718 201.297" fill="#F8BC9E"/>
<path d="M252.343 207.942C253.247 207.057 253.805 205.879 253.919 204.619C254.09 202.521 253.739 197.769 251.821 191.338C249.903 184.907 237.666 157.256 237.666 156.554C237.666 155.851 239.378 150.088 238.522 146.937C237.666 143.786 234.677 139.076 234.677 139.076L224.709 141.868C224.709 141.868 225.934 152.186 228.554 154.456C231.175 156.725 232.93 161.306 233.975 165.117C235.02 168.928 236.775 180.676 237.991 187.835C238.638 192.597 240.246 197.177 242.718 201.297" stroke="#5A2916" stroke-miterlimit="10"/>
<path d="M237.931 139.136L233.632 148.564L212.429 141.328L218.569 127.867L237.931 139.136Z" fill="white" stroke="#5A2916" stroke-linecap="round" stroke-linejoin="round"/>
<path d="M213.2 141.345L224.384 132.611L236.792 139.427L233.298 147.468L213.2 141.345Z" fill="#E7472C"/>
<path d="M232.245 158.652C232.245 158.652 227.176 155.851 225.951 154.456C224.726 153.06 224.238 149.737 223.853 146.749C223.405 144.33 222.642 141.981 221.584 139.761C221.584 139.761 222.44 138.537 224.375 139.932C226.311 141.328 227.176 146.047 227.176 146.047C227.176 146.047 231.894 148.496 232.596 151.467" fill="#F8BC9E"/>
<path d="M232.245 158.652C232.245 158.652 227.176 155.851 225.951 154.456C224.726 153.06 224.238 149.737 223.853 146.749C223.405 144.33 222.642 141.981 221.584 139.761C221.584 139.761 222.44 138.537 224.375 139.932C226.311 141.328 227.176 146.047 227.176 146.047C227.176 146.047 231.894 148.496 232.596 151.467" stroke="#5A2916" stroke-miterlimit="10"/>
<path d="M173.629 116.435C169.281 113.411 164.404 111.23 159.251 110.004C151.313 108.291 142.425 119.834 140.909 130.615C139.393 141.397 138.074 160.878 138.074 160.878H161.709C161.709 160.878 157.744 131.181 160.39 122.292C163.037 113.403 172.49 117.942 172.49 117.942L173.629 116.435Z" fill="#5A2916"/>
<path d="M200.107 112.085C200.107 112.085 207.48 103.761 210.126 109.25C212.772 114.739 209.561 120.785 206.915 122.669C204.269 124.553 203.695 123.619 203.318 122.48C202.941 121.341 198.403 113.215 198.403 113.215L200.107 112.085Z" fill="#5A2916"/>
<path d="M182.895 153.873C182.895 153.873 176.464 155.201 173.064 159.362C169.665 163.524 170.033 175.059 170.033 179.058V191.535L181.756 191.723C181.756 191.723 180.249 174.896 180.043 170.734C179.838 166.573 180.232 160.33 180.797 158.438C181.358 156.856 182.061 155.329 182.895 153.873V153.873Z" fill="#CD9A67" stroke="#5A2916" stroke-miterlimit="10"/>
<path d="M196.51 154.259C196.51 154.259 204.834 156.905 206.726 162.95C208.619 168.996 209.749 183.759 210.152 187.347C210.554 190.935 210.717 192.271 210.717 192.271C210.717 192.271 206.178 193.778 203.721 193.778C202.138 193.767 200.558 193.641 198.994 193.402C198.994 193.402 199.37 172.601 198.24 166.735C197.704 163.721 196.945 160.75 195.971 157.847C195.971 157.847 196.322 155.038 196.51 154.259Z" fill="#CD9A67" stroke="#5A2916" stroke-miterlimit="10"/>
<path d="M180.6 168.251C180.6 168.251 179.272 165.793 180.223 160.304C181.173 154.815 180.6 146.877 180.6 146.877H175.684C172.841 146.877 166.607 144.419 165.845 139.881C165.083 135.342 166.034 120.399 175.265 113.026C184.496 105.653 195.877 109.601 195.877 109.601C197.341 110.16 198.671 111.022 199.779 112.13C200.887 113.238 201.749 114.568 202.308 116.032C204.389 121.17 208.353 127.944 209.492 127.944C210.631 127.944 213.842 127.944 213.269 130.59C213.038 132.013 212.381 133.332 211.385 134.375C211.385 134.375 211.196 143.263 211.196 145.909C211.196 148.555 209.484 148.932 205.142 149.335C204.2 149.416 203.253 149.447 202.308 149.429C201.282 149.763 200.342 150.32 199.558 151.06C198.773 151.801 198.162 152.706 197.769 153.711C196.442 157.136 197.958 168.465 197.958 168.465" fill="#F8BC9E"/>
<path d="M180.6 168.251C180.6 168.251 179.272 165.793 180.223 160.304C181.173 154.815 180.6 146.877 180.6 146.877H175.684C172.841 146.877 166.607 144.419 165.845 139.881C165.083 135.342 166.034 120.399 175.265 113.026C184.496 105.653 195.877 109.601 195.877 109.601C197.341 110.16 198.671 111.022 199.779 112.13C200.887 113.238 201.749 114.568 202.308 116.032C204.389 121.17 208.353 127.944 209.492 127.944C210.631 127.944 213.842 127.944 213.269 130.59C213.038 132.013 212.381 133.332 211.385 134.375C211.385 134.375 211.196 143.263 211.196 145.909C211.196 148.555 209.484 148.932 205.142 149.335C204.2 149.416 203.253 149.447 202.308 149.429C201.282 149.763 200.342 150.32 199.558 151.06C198.773 151.801 198.162 152.706 197.769 153.711C196.442 157.136 197.958 168.465 197.958 168.465" stroke="#5A2916" stroke-miterlimit="10"/>
<path d="M188.949 146.877C192.853 148.467 197.023 149.301 201.237 149.335" stroke="#5A2916" stroke-linecap="round" stroke-linejoin="round"/>
<path d="M202.753 124.758L204.834 128.723" stroke="#5A2916" stroke-linecap="round" stroke-linejoin="round"/>
<path d="M206.341 128.346C205.14 129.424 203.617 130.077 202.008 130.204" stroke="#5A2916" stroke-linecap="round" stroke-linejoin="round"/>
<path d="M202.376 121.538C202.376 121.538 200.484 119.269 198.78 121.35C197.076 123.431 197.264 124.561 197.264 124.561" stroke="#5A2916" stroke-linecap="round" stroke-linejoin="round"/>
<path d="M195.945 109.652C195.945 109.652 184.599 105.679 175.334 113.078C166.068 120.476 165.117 135.394 165.914 139.932C166.71 144.471 172.91 146.929 175.753 146.929H180.6L184.231 145.421C180.266 145.987 174.589 141.26 175.727 137.286C176.866 133.313 182.578 135.394 184.231 137.098C185.883 138.802 187.262 136.909 189.155 133.673C191.047 130.436 188.778 127.815 188.778 124.784C188.778 121.752 195.389 116.28 199.362 116.092C200.318 116.106 201.268 115.929 202.154 115.57C201.562 114.222 200.708 113.005 199.642 111.989C198.577 110.974 197.32 110.179 195.945 109.652V109.652Z" fill="#5A2916"/>
<path d="M233.881 43.7323L224.136 52.7323L228.083 65.3974L215.136 68.3004L212.233 81.2481L199.568 77.3004L190.576 87.0454L181.576 77.3004L168.911 81.2481L166.008 68.3004L153.069 65.3974L157.008 52.7323L147.263 43.7323L157.008 34.7408L153.069 22.0757L166.008 19.1728L168.911 6.22505L181.576 10.1727L190.576 0.427704L199.568 10.1727L212.233 6.22505L215.136 19.1728L228.083 22.0757L224.136 34.7408L233.881 43.7323Z" stroke="#5A2916" stroke-linecap="round" stroke-linejoin="round"/>
<path d="M190.576 74.6372C207.644 74.6372 221.481 60.8006 221.481 43.7323C221.481 26.6639 207.644 12.8273 190.576 12.8273C173.508 12.8273 159.671 26.6639 159.671 43.7323C159.671 60.8006 173.508 74.6372 190.576 74.6372Z" stroke="#5A2916" stroke-linecap="round" stroke-linejoin="round"/>
<path d="M346.514 186.534C346.514 186.534 346.608 175.701 335.878 167.789C325.148 159.876 314.239 158.575 305.632 164.946C297.026 171.317 292.068 178.244 293.121 188.195C294.175 198.146 301.282 208.91 309.649 214.373C318.015 219.836 331.399 219.168 338.327 211.71C345.255 204.251 347.987 196.853 346.514 186.534Z" stroke="#5A2916" stroke-linecap="round" stroke-linejoin="round"/>
<path d="M345.195 186.662C345.195 186.662 345.289 176.386 335.099 168.868C324.908 161.349 314.547 160.116 306.386 166.17C298.225 172.224 293.541 178.801 294.5 188.246C295.459 197.692 302.207 207.942 310.197 213.08C318.186 218.218 330.851 217.636 337.428 210.511C344.005 203.386 346.599 196.467 345.195 186.662Z" stroke="#5A2916" stroke-linecap="round" stroke-linejoin="round"/>
<path d="M321.166 169.236L319.968 178.219" stroke="#5A2916" stroke-linecap="round" stroke-linejoin="round"/>
<path d="M316.345 170.914L317.972 176.977" stroke="#5A2916" stroke-linecap="round" stroke-linejoin="round"/>
<path d="M312.012 171.745L315.857 178.21" stroke="#5A2916" stroke-linecap="round" stroke-linejoin="round"/>
<path d="M308.818 173.321C309.255 173.706 314.709 179.52 314.709 179.52" stroke="#5A2916" stroke-linecap="round" stroke-linejoin="round"/>
<path d="M307.345 175.89L312.629 181.302" stroke="#5A2916" stroke-linecap="round" stroke-linejoin="round"/>
<path d="M312.064 183.117L305.907 178.998" stroke="#5A2916" stroke-linecap="round" stroke-linejoin="round"/>
<path d="M311.738 184.376L305.23 181.233" stroke="#5A2916" stroke-linecap="round" stroke-linejoin="round"/>
<path d="M311.002 185.789L304.074 184.599" stroke="#5A2916" stroke-linecap="round" stroke-linejoin="round"/>
<path d="M312.749 187.322L305.127 188.092" stroke="#5A2916" stroke-linecap="round" stroke-linejoin="round"/>
<path d="M312.543 188.426L305.735 191.201" stroke="#5A2916" stroke-linecap="round" stroke-linejoin="round"/>
<path d="M313.904 190.396L307.225 193.025" stroke="#5A2916" stroke-linecap="round" stroke-linejoin="round"/>
<path d="M314.581 192.271L307.294 196.167" stroke="#5A2916" stroke-linecap="round" stroke-linejoin="round"/>
<path d="M315.36 193.727L308.253 198.3" stroke="#5A2916" stroke-linecap="round" stroke-linejoin="round"/>
<path d="M315.883 195.474L310.197 200.774" stroke="#5A2916" stroke-linecap="round" stroke-linejoin="round"/>
<path d="M317.698 196.039L314.761 203.498" stroke="#5A2916" stroke-linecap="round" stroke-linejoin="round"/>
<path d="M319.753 196.048L317.818 204.123" stroke="#5A2916" stroke-linecap="round" stroke-linejoin="round"/>
<path d="M321.886 197.144L321.612 205.656" stroke="#5A2916" stroke-linecap="round" stroke-linejoin="round"/>
<path d="M324.378 197.529L327.272 206.246" stroke="#5A2916" stroke-linecap="round" stroke-linejoin="round"/>
<path d="M326.364 196.442L332.17 203.6" stroke="#5A2916" stroke-linecap="round" stroke-linejoin="round"/>
<path d="M328.214 195.5L335.921 202.256" stroke="#5A2916" stroke-linecap="round" stroke-linejoin="round"/>
<path d="M328.771 193.402L338.978 198.771" stroke="#5A2916" stroke-linecap="round" stroke-linejoin="round"/>
<path d="M329.901 191.826L338.421 194.421" stroke="#5A2916" stroke-linecap="round" stroke-linejoin="round"/>
<path d="M328.831 190.113L336.546 188.649" stroke="#5A2916" stroke-linecap="round" stroke-linejoin="round"/>
<path d="M328.848 188.332L336.606 185.361" stroke="#5A2916" stroke-linecap="round" stroke-linejoin="round"/>
<path d="M335.587 182.406L326.853 187.09" stroke="#5A2916" stroke-linecap="round" stroke-linejoin="round"/>
<path d="M334.808 178.895L327.649 184.71" stroke="#5A2916" stroke-linecap="round" stroke-linejoin="round"/>
<path d="M332.615 176.712L327.657 182.655" stroke="#5A2916" stroke-linecap="round" stroke-linejoin="round"/>
<path d="M330.38 173.98L325.842 182.081" stroke="#5A2916" stroke-linecap="round" stroke-linejoin="round"/>
<path d="M327.52 174.297L324.789 180.642" stroke="#5A2916" stroke-linecap="round" stroke-linejoin="round"/>
<path d="M325.508 172.79L323.367 179.914" stroke="#5A2916" stroke-linecap="round" stroke-linejoin="round"/>
<path d="M323.795 171.805L321.603 180.171" stroke="#5A2916" stroke-linecap="round" stroke-linejoin="round"/>
<path d="M313.665 183.525C314.015 182.985 313.862 182.264 313.322 181.914C312.783 181.564 312.062 181.717 311.711 182.257C311.361 182.796 311.514 183.517 312.054 183.868C312.593 184.218 313.315 184.064 313.665 183.525Z" fill="#5A2916"/>
<path d="M314.71 179.52C314.558 179.694 314.359 179.818 314.136 179.878C313.914 179.938 313.679 179.931 313.461 179.858C313.242 179.784 313.051 179.647 312.91 179.465C312.77 179.282 312.686 179.062 312.671 178.833C312.655 178.603 312.708 178.374 312.823 178.174C312.938 177.974 313.109 177.813 313.315 177.711C313.522 177.608 313.754 177.569 313.982 177.599C314.21 177.628 314.425 177.725 314.598 177.876C314.829 178.081 314.971 178.368 314.991 178.676C315.012 178.983 314.911 179.287 314.71 179.52V179.52Z" fill="#5A2916"/>
<path d="M318.837 177.739C318.685 177.913 318.485 178.038 318.262 178.098C318.039 178.158 317.804 178.15 317.585 178.076C317.366 178.002 317.175 177.864 317.035 177.681C316.894 177.498 316.812 177.277 316.797 177.046C316.783 176.816 316.837 176.586 316.953 176.387C317.069 176.188 317.242 176.027 317.45 175.926C317.658 175.825 317.89 175.788 318.119 175.82C318.348 175.851 318.562 175.95 318.734 176.104C318.963 176.308 319.103 176.594 319.122 176.9C319.141 177.207 319.039 177.508 318.837 177.739V177.739Z" fill="#5A2916"/>
<path d="M324.241 180.677C324.09 180.851 323.89 180.977 323.668 181.038C323.445 181.099 323.209 181.093 322.99 181.02C322.772 180.946 322.579 180.81 322.438 180.627C322.297 180.445 322.213 180.224 322.198 179.994C322.182 179.764 322.235 179.534 322.35 179.334C322.465 179.134 322.637 178.973 322.844 178.87C323.051 178.768 323.284 178.73 323.513 178.76C323.741 178.791 323.956 178.888 324.129 179.041C324.358 179.245 324.497 179.53 324.518 179.836C324.539 180.142 324.439 180.443 324.241 180.677Z" fill="#5A2916"/>
<path d="M329.164 180.634C329.013 180.805 328.814 180.927 328.593 180.985C328.372 181.043 328.139 181.034 327.923 180.96C327.707 180.886 327.518 180.749 327.38 180.568C327.241 180.386 327.16 180.167 327.145 179.939C327.131 179.712 327.185 179.484 327.299 179.287C327.414 179.089 327.584 178.93 327.789 178.829C327.994 178.729 328.225 178.691 328.451 178.721C328.678 178.751 328.89 178.847 329.062 178.998C329.176 179.098 329.27 179.221 329.337 179.357C329.404 179.494 329.443 179.643 329.453 179.794C329.463 179.946 329.442 180.099 329.392 180.243C329.343 180.387 329.265 180.52 329.164 180.634V180.634Z" fill="#5A2916"/>
<path d="M328.291 183.982C328.076 184.155 327.806 184.246 327.53 184.239C327.254 184.232 326.99 184.127 326.784 183.943C326.578 183.758 326.445 183.507 326.407 183.234C326.369 182.96 326.43 182.682 326.578 182.449C326.678 182.334 326.8 182.24 326.936 182.172C327.073 182.104 327.221 182.064 327.373 182.053C327.525 182.043 327.678 182.063 327.822 182.112C327.966 182.16 328.1 182.237 328.214 182.338C328.44 182.547 328.575 182.836 328.589 183.144C328.604 183.452 328.497 183.753 328.291 183.982V183.982Z" fill="#5A2916"/>
<path d="M329.207 187.621C329.055 187.791 328.856 187.912 328.636 187.969C328.415 188.026 328.182 188.017 327.967 187.942C327.752 187.867 327.563 187.731 327.426 187.549C327.288 187.368 327.207 187.149 327.192 186.922C327.178 186.695 327.232 186.468 327.346 186.271C327.46 186.073 327.63 185.914 327.834 185.813C328.038 185.712 328.268 185.674 328.494 185.703C328.72 185.732 328.932 185.828 329.104 185.977C329.219 186.078 329.313 186.201 329.38 186.339C329.447 186.476 329.487 186.625 329.496 186.778C329.506 186.931 329.485 187.084 329.436 187.228C329.386 187.373 329.308 187.507 329.207 187.621V187.621Z" fill="#5A2916"/>
<path d="M330.732 192.04C330.581 192.215 330.381 192.34 330.159 192.401C329.936 192.463 329.7 192.456 329.482 192.383C329.263 192.31 329.07 192.173 328.929 191.991C328.788 191.808 328.704 191.588 328.689 191.357C328.673 191.127 328.726 190.897 328.841 190.697C328.956 190.497 329.128 190.336 329.335 190.234C329.542 190.132 329.775 190.093 330.004 190.124C330.232 190.154 330.447 190.252 330.62 190.404C330.851 190.607 330.992 190.893 331.012 191.199C331.033 191.506 330.932 191.808 330.732 192.04V192.04Z" fill="#5A2916"/>
<path d="M330.56 195.748C330.409 195.919 330.21 196.041 329.989 196.099C329.768 196.157 329.535 196.149 329.319 196.074C329.103 196 328.914 195.864 328.776 195.682C328.637 195.5 328.556 195.282 328.541 195.054C328.527 194.826 328.581 194.599 328.695 194.401C328.81 194.203 328.98 194.044 329.185 193.944C329.39 193.843 329.621 193.805 329.847 193.835C330.073 193.865 330.286 193.962 330.458 194.112C330.572 194.213 330.666 194.335 330.733 194.471C330.8 194.608 330.839 194.757 330.849 194.909C330.858 195.061 330.838 195.213 330.788 195.357C330.739 195.501 330.661 195.634 330.56 195.748V195.748Z" fill="#5A2916"/>
<path d="M328.154 198.788C328.002 198.962 327.802 199.086 327.579 199.146C327.356 199.206 327.121 199.199 326.902 199.125C326.683 199.05 326.492 198.913 326.352 198.729C326.211 198.546 326.129 198.325 326.114 198.095C326.1 197.865 326.154 197.635 326.27 197.436C326.386 197.236 326.559 197.076 326.767 196.975C326.974 196.874 327.207 196.837 327.436 196.868C327.665 196.9 327.879 196.999 328.051 197.152C328.166 197.253 328.259 197.375 328.326 197.511C328.393 197.648 328.433 197.797 328.443 197.949C328.452 198.101 328.431 198.253 328.382 198.397C328.332 198.541 328.255 198.674 328.154 198.788V198.788Z" fill="#5A2916"/>
<path d="M325.551 200.877C325.399 201.051 325.2 201.175 324.977 201.235C324.755 201.295 324.52 201.288 324.302 201.214C324.083 201.141 323.892 201.004 323.751 200.822C323.611 200.639 323.527 200.419 323.512 200.189C323.496 199.96 323.549 199.731 323.664 199.531C323.779 199.331 323.95 199.17 324.156 199.068C324.363 198.965 324.595 198.926 324.823 198.956C325.051 198.985 325.266 199.082 325.44 199.233C325.555 199.334 325.649 199.456 325.717 199.593C325.785 199.73 325.826 199.879 325.836 200.032C325.846 200.185 325.826 200.338 325.778 200.483C325.729 200.628 325.652 200.762 325.551 200.877V200.877Z" fill="#5A2916"/>
<path d="M322.639 200.424C322.487 200.596 322.287 200.72 322.064 200.779C321.841 200.838 321.606 200.829 321.388 200.754C321.17 200.68 320.98 200.542 320.84 200.359C320.7 200.176 320.618 199.955 320.604 199.725C320.589 199.496 320.644 199.267 320.759 199.067C320.875 198.868 321.047 198.708 321.254 198.607C321.461 198.505 321.693 198.468 321.921 198.499C322.15 198.529 322.364 198.627 322.536 198.779C322.651 198.881 322.745 199.003 322.812 199.141C322.879 199.278 322.919 199.427 322.928 199.58C322.938 199.733 322.917 199.886 322.868 200.031C322.818 200.175 322.74 200.309 322.639 200.424V200.424Z" fill="#5A2916"/>
<path d="M319.873 200.012C319.721 200.182 319.522 200.303 319.302 200.36C319.081 200.417 318.848 200.408 318.633 200.333C318.418 200.258 318.229 200.122 318.092 199.94C317.954 199.759 317.873 199.54 317.858 199.313C317.844 199.086 317.898 198.859 318.012 198.662C318.126 198.465 318.296 198.305 318.5 198.205C318.704 198.104 318.934 198.065 319.16 198.094C319.386 198.124 319.598 198.219 319.77 198.368C319.885 198.469 319.979 198.592 320.046 198.73C320.113 198.867 320.153 199.016 320.162 199.169C320.172 199.322 320.151 199.475 320.102 199.619C320.052 199.764 319.974 199.898 319.873 200.012V200.012Z" fill="#5A2916"/>
<path d="M314.547 198.163C314.395 198.334 314.197 198.456 313.976 198.514C313.755 198.572 313.522 198.564 313.306 198.489C313.09 198.415 312.901 198.278 312.762 198.097C312.624 197.915 312.542 197.696 312.528 197.469C312.514 197.241 312.567 197.013 312.682 196.816C312.796 196.618 312.967 196.459 313.172 196.358C313.377 196.258 313.607 196.22 313.834 196.25C314.06 196.28 314.272 196.376 314.444 196.527C314.673 196.731 314.813 197.017 314.832 197.324C314.851 197.63 314.749 197.932 314.547 198.163V198.163Z" fill="#5A2916"/>
<path d="M315.138 194.566C314.986 194.74 314.787 194.864 314.565 194.924C314.342 194.984 314.107 194.977 313.889 194.903C313.671 194.83 313.479 194.693 313.339 194.511C313.198 194.328 313.115 194.108 313.099 193.878C313.084 193.649 313.137 193.419 313.251 193.22C313.366 193.02 313.537 192.859 313.743 192.756C313.95 192.654 314.182 192.615 314.41 192.645C314.639 192.674 314.853 192.771 315.027 192.922C315.142 193.023 315.236 193.145 315.304 193.282C315.373 193.419 315.413 193.568 315.423 193.721C315.434 193.874 315.414 194.027 315.365 194.172C315.316 194.317 315.239 194.451 315.138 194.566V194.566Z" fill="#5A2916"/>
<path d="M312.654 190.062C312.504 190.233 312.306 190.357 312.085 190.416C311.865 190.475 311.631 190.468 311.415 190.394C311.199 190.321 311.009 190.186 310.87 190.005C310.73 189.824 310.648 189.606 310.632 189.378C310.617 189.15 310.669 188.923 310.782 188.725C310.896 188.526 311.066 188.366 311.27 188.265C311.474 188.163 311.705 188.124 311.931 188.153C312.158 188.181 312.371 188.277 312.543 188.426C312.773 188.629 312.914 188.915 312.935 189.221C312.956 189.527 312.855 189.83 312.654 190.062V190.062Z" fill="#5A2916"/>
<path d="M309.905 185.583C309.755 185.758 309.555 185.884 309.333 185.945C309.11 186.006 308.874 185.999 308.655 185.926C308.437 185.853 308.244 185.717 308.103 185.534C307.962 185.351 307.878 185.131 307.863 184.901C307.847 184.67 307.9 184.441 308.015 184.241C308.13 184.041 308.302 183.879 308.509 183.777C308.716 183.675 308.949 183.637 309.178 183.667C309.406 183.697 309.621 183.795 309.794 183.948C310.023 184.152 310.162 184.437 310.183 184.743C310.204 185.048 310.104 185.35 309.905 185.583Z" fill="#5A2916"/>
<path d="M325.833 182.081C325.682 182.252 325.483 182.374 325.262 182.432C325.041 182.49 324.808 182.482 324.592 182.407C324.376 182.333 324.187 182.197 324.049 182.015C323.91 181.833 323.829 181.615 323.814 181.387C323.8 181.159 323.854 180.932 323.968 180.734C324.083 180.536 324.253 180.377 324.458 180.277C324.663 180.176 324.894 180.138 325.12 180.168C325.346 180.198 325.559 180.295 325.731 180.445C325.96 180.649 326.099 180.936 326.118 181.242C326.138 181.548 326.035 181.85 325.833 182.081V182.081Z" fill="#5A2916"/>
<path d="M315.669 181.644C315.518 181.816 315.32 181.939 315.099 181.998C314.879 182.057 314.646 182.05 314.429 181.977C314.213 181.904 314.023 181.768 313.884 181.587C313.744 181.406 313.662 181.188 313.646 180.96C313.631 180.732 313.683 180.505 313.797 180.307C313.91 180.109 314.08 179.949 314.284 179.847C314.489 179.745 314.719 179.706 314.945 179.735C315.172 179.764 315.385 179.859 315.557 180.009C315.672 180.108 315.767 180.23 315.834 180.366C315.902 180.503 315.943 180.651 315.953 180.803C315.963 180.955 315.944 181.108 315.895 181.252C315.846 181.396 315.769 181.53 315.669 181.644V181.644Z" fill="#5A2916"/>
<path d="M293.944 124.167C309.91 124.167 322.853 111.224 322.853 95.2576C322.853 79.2913 309.91 66.348 293.944 66.348C277.977 66.348 265.034 79.2913 265.034 95.2576C265.034 111.224 277.977 124.167 293.944 124.167Z" stroke="#5A2916" stroke-linecap="round" stroke-linejoin="round"/>
<path d="M293.944 121.949C308.685 121.949 320.635 109.999 320.635 95.2576C320.635 80.5162 308.685 68.5659 293.944 68.5659C279.202 68.5659 267.252 80.5162 267.252 95.2576C267.252 109.999 279.202 121.949 293.944 121.949Z" stroke="#5A2916" stroke-linecap="round" stroke-linejoin="round"/>
<path d="M289.919 74.954L293.164 92.2347C293.192 92.3995 293.172 92.569 293.104 92.7221C293.037 92.8752 292.927 93.0053 292.787 93.0964C292.646 93.1874 292.482 93.2355 292.315 93.2345C292.148 93.2336 291.985 93.1837 291.846 93.091L276.963 83.1062C276.459 82.7581 276.049 82.2912 275.769 81.7469C275.489 81.2026 275.347 80.5976 275.356 79.9855C275.366 79.3733 275.526 78.7729 275.822 78.2374C276.119 77.7018 276.543 77.2476 277.057 76.915L284.241 72.6333C284.747 72.3052 285.324 72.1043 285.924 72.0478C286.524 71.9913 287.129 72.0808 287.687 72.3089C288.245 72.5369 288.739 72.8966 289.128 73.3572C289.517 73.8178 289.788 74.3657 289.919 74.954V74.954Z" stroke="#5A2916" stroke-linecap="round" stroke-linejoin="round"/>
<path d="M276.749 83.7486L291.255 93.6735C291.395 93.7683 291.504 93.9026 291.568 94.0594C291.632 94.2162 291.648 94.3884 291.614 94.5543C291.58 94.7201 291.498 94.8722 291.377 94.9913C291.257 95.1104 291.104 95.1912 290.938 95.2234L273.357 98.6487C272.758 98.7509 272.142 98.705 271.564 98.515C270.986 98.325 270.464 97.9966 270.042 97.5585C269.62 97.1204 269.311 96.5858 269.143 96.0013C268.974 95.4167 268.951 94.7998 269.076 94.2044L271.105 86.0692C271.238 85.4862 271.509 84.9436 271.896 84.4872C272.282 84.0307 272.772 83.6738 273.325 83.4464C273.878 83.2189 274.478 83.1276 275.074 83.1802C275.669 83.2328 276.244 83.4278 276.749 83.7486V83.7486Z" stroke="#5A2916" stroke-linecap="round" stroke-linejoin="round"/>
<path d="M273.649 99.2739L290.921 96.037C291.085 96.0089 291.255 96.0298 291.408 96.0969C291.561 96.1641 291.691 96.2746 291.782 96.4148C291.873 96.555 291.921 96.7188 291.92 96.886C291.92 97.0532 291.87 97.2165 291.777 97.3557L281.818 112.222C281.469 112.725 281.001 113.135 280.456 113.415C279.911 113.695 279.306 113.837 278.693 113.827C278.08 113.818 277.479 113.658 276.943 113.362C276.407 113.065 275.952 112.641 275.618 112.127L271.337 104.943C271.01 104.438 270.811 103.862 270.755 103.264C270.699 102.665 270.788 102.062 271.015 101.506C271.242 100.949 271.6 100.456 272.058 100.067C272.517 99.6785 273.062 99.4064 273.649 99.2739Z" stroke="#5A2916" stroke-linecap="round" stroke-linejoin="round"/>
<path d="M282.435 112.453L292.359 97.9465C292.454 97.8063 292.589 97.6973 292.745 97.6334C292.902 97.5695 293.074 97.5534 293.24 97.5874C293.406 97.6213 293.558 97.7036 293.677 97.8239C293.796 97.9442 293.877 98.0972 293.909 98.2634L297.335 115.844C297.439 116.444 297.395 117.06 297.205 117.639C297.016 118.218 296.688 118.742 296.249 119.164C295.811 119.587 295.275 119.896 294.689 120.063C294.104 120.231 293.486 120.252 292.89 120.125L284.755 118.104C284.171 117.972 283.627 117.701 283.169 117.314C282.712 116.927 282.354 116.436 282.127 115.881C281.899 115.327 281.808 114.726 281.862 114.129C281.915 113.533 282.112 112.958 282.435 112.453V112.453Z" stroke="#5A2916" stroke-linecap="round" stroke-linejoin="round"/>
<path d="M297.969 115.553L294.723 98.2719C294.693 98.1057 294.714 97.9346 294.781 97.7798C294.848 97.6251 294.96 97.4938 295.102 97.4023C295.244 97.3108 295.409 97.2632 295.578 97.2656C295.747 97.268 295.911 97.3201 296.05 97.4156L310.925 107.392C311.429 107.739 311.84 108.206 312.12 108.75C312.401 109.293 312.544 109.898 312.535 110.51C312.527 111.122 312.368 111.723 312.072 112.259C311.776 112.795 311.353 113.25 310.839 113.583L303.646 117.908C303.139 118.238 302.559 118.439 301.956 118.495C301.353 118.551 300.746 118.458 300.187 118.227C299.627 117.995 299.133 117.63 298.747 117.164C298.36 116.698 298.093 116.145 297.969 115.553V115.553Z" stroke="#5A2916" stroke-linecap="round" stroke-linejoin="round"/>
<path d="M311.139 106.767L296.632 96.8076C296.492 96.7127 296.383 96.5784 296.319 96.4217C296.255 96.2649 296.239 96.0927 296.273 95.9268C296.307 95.761 296.389 95.6089 296.51 95.4897C296.63 95.3706 296.783 95.2899 296.949 95.2577L314.53 91.7895C315.129 91.6874 315.745 91.7333 316.323 91.9233C316.901 92.1133 317.423 92.4416 317.845 92.8797C318.268 93.3178 318.576 93.8524 318.745 94.437C318.913 95.0216 318.936 95.6384 318.811 96.2339L316.782 104.369C316.659 104.959 316.395 105.51 316.013 105.975C315.63 106.441 315.141 106.807 314.587 107.043C314.033 107.278 313.429 107.376 312.829 107.328C312.228 107.28 311.648 107.088 311.139 106.767V106.767Z" stroke="#5A2916" stroke-linecap="round" stroke-linejoin="round"/>
<path d="M314.239 91.2329L296.966 94.4698C296.802 94.4978 296.632 94.477 296.479 94.4098C296.326 94.3427 296.196 94.2322 296.105 94.0919C296.014 93.9517 295.966 93.7879 295.967 93.6207C295.968 93.4535 296.017 93.2902 296.11 93.1511L306.095 78.2681C306.444 77.7663 306.912 77.358 307.456 77.0791C308 76.8002 308.604 76.6592 309.216 76.6685C309.827 76.6778 310.427 76.8371 310.962 77.1325C311.498 77.4278 311.952 77.8501 312.286 78.3623L316.568 85.5469C316.898 86.0531 317.1 86.6319 317.157 87.2336C317.214 87.8352 317.124 88.4417 316.895 89.001C316.666 89.5602 316.305 90.0555 315.842 90.4442C315.379 90.833 314.829 91.1036 314.239 91.2329V91.2329Z" stroke="#5A2916" stroke-linecap="round" stroke-linejoin="round"/>
<path d="M305.453 78.0625L295.528 92.5687C295.432 92.709 295.297 92.8178 295.14 92.8812C294.983 92.9447 294.81 92.96 294.644 92.9251C294.478 92.8902 294.326 92.8068 294.207 92.6854C294.089 92.564 294.009 92.4102 293.978 92.2433L290.51 74.6715C290.408 74.0718 290.454 73.4562 290.644 72.8783C290.834 72.3004 291.162 71.7777 291.6 71.3556C292.038 70.9336 292.573 70.625 293.157 70.4566C293.742 70.2883 294.359 70.2654 294.954 70.3898L303.098 72.4107C303.685 72.5388 304.233 72.8068 304.694 73.1919C305.156 73.5769 305.518 74.0678 305.749 74.6226C305.98 75.1775 306.074 75.78 306.022 76.3789C305.971 76.9778 305.775 77.5553 305.453 78.0625V78.0625Z" stroke="#5A2916" stroke-linecap="round" stroke-linejoin="round"/>
<path d="M279.84 68.0435C275.83 63.6859 270.676 60.5435 264.965 58.975C255.546 56.406 249.363 61.544 245.373 65.5002C242.581 68.1416 239.405 70.3445 235.953 72.034C241.186 73.8917 246.804 74.3925 252.283 73.4897C261.703 72.034 266.096 66.6391 268.605 65.8684C274.89 63.8132 279.84 68.0435 279.84 68.0435Z" stroke="#5A2916" stroke-linecap="round" stroke-linejoin="round"/>
<path d="M37.2588 115.947C37.2588 115.947 31.5814 118.593 31.8297 123.191C32.078 127.79 32.7888 129.014 32.3349 143.537C31.881 158.061 30.9219 167.335 36.8991 175.967C42.8763 184.598 57.1771 194.292 61.8098 194.806C66.4425 195.32 71.041 193.093 72.4453 191.535C73.8497 189.976 75.8707 187.519 77.806 188.024C79.7413 188.529 84.5197 185.455 85.787 180.317C87.0544 175.179 89.0582 162.753 82.6871 149.814C76.316 136.875 66.4938 127.224 60.2426 119.183C53.9914 111.143 48.6051 111.947 46.8754 112.607L43.6214 113.831C43.6214 113.831 40.9667 113.309 37.2588 115.947Z" stroke="#5A2916" stroke-linecap="round" stroke-linejoin="round"/>
<path d="M49.9581 132.559C50.073 132.876 50.0919 133.22 50.0125 133.547C49.9332 133.874 49.7591 134.171 49.5119 134.4C49.2648 134.629 48.9556 134.78 48.6231 134.834C48.2906 134.888 47.9495 134.843 47.6426 134.704C47.3356 134.565 47.0764 134.339 46.8974 134.054C46.7184 133.768 46.6275 133.436 46.6361 133.1C46.6446 132.763 46.7523 132.436 46.9457 132.16C47.139 131.884 47.4095 131.672 47.7231 131.549C47.9359 131.465 48.1634 131.425 48.3919 131.431C48.6204 131.437 48.8454 131.489 49.0537 131.583C49.262 131.677 49.4493 131.812 49.6047 131.98C49.76 132.147 49.8801 132.344 49.9581 132.559Z" fill="#5A2916"/>
<path d="M51.294 136.13C51.4089 136.447 51.4278 136.79 51.3485 137.118C51.2691 137.445 51.0949 137.742 50.8478 137.971C50.6006 138.2 50.2915 138.351 49.959 138.405C49.6265 138.459 49.2855 138.414 48.9785 138.275C48.6716 138.136 48.4124 137.91 48.2333 137.625C48.0543 137.339 47.9634 137.007 47.972 136.671C47.9806 136.334 48.0883 136.007 48.2816 135.731C48.475 135.455 48.7454 135.243 49.059 135.12C49.2718 135.036 49.4992 134.996 49.7277 135.002C49.9562 135.008 50.1813 135.06 50.3896 135.154C50.5979 135.248 50.7852 135.383 50.9405 135.551C51.0958 135.718 51.2161 135.915 51.294 136.13Z" fill="#5A2916"/>
<path d="M63.0257 145.55C63.1391 145.867 63.1565 146.21 63.0758 146.537C62.9951 146.864 62.8198 147.16 62.572 147.387C62.3241 147.615 62.0146 147.765 61.6821 147.818C61.3496 147.871 61.0089 147.824 60.7026 147.685C60.3963 147.545 60.1379 147.318 59.9598 147.032C59.7817 146.747 59.6917 146.415 59.7011 146.078C59.7105 145.742 59.8189 145.416 60.0127 145.14C60.2065 144.865 60.4771 144.653 60.7907 144.531C61.0041 144.448 61.2321 144.408 61.461 144.414C61.6899 144.421 61.9152 144.473 62.1236 144.568C62.332 144.663 62.5192 144.799 62.6742 144.967C62.8292 145.136 62.9486 145.334 63.0257 145.55V145.55Z" fill="#5A2916"/>
<path d="M61.6816 150.063C61.7964 150.379 61.8154 150.723 61.736 151.05C61.6567 151.378 61.4825 151.674 61.2353 151.903C60.9882 152.132 60.6791 152.283 60.3466 152.337C60.0141 152.391 59.673 152.346 59.3661 152.207C59.0591 152.069 58.7999 151.842 58.6209 151.557C58.4418 151.272 58.3508 150.94 58.3594 150.603C58.368 150.266 58.4758 149.94 58.6692 149.664C58.8625 149.388 59.1329 149.175 59.4466 149.052C59.6594 148.969 59.8867 148.929 60.1153 148.935C60.3438 148.941 60.5689 148.992 60.7772 149.086C60.9855 149.18 61.1727 149.315 61.328 149.483C61.4834 149.651 61.6036 149.848 61.6816 150.063Z" fill="#5A2916"/>
<path d="M64.5671 158.969C64.4236 159.274 64.1934 159.53 63.9051 159.704C63.6169 159.879 63.2834 159.965 62.9467 159.951C62.6099 159.937 62.2847 159.824 62.0118 159.626C61.739 159.428 61.5306 159.154 61.4128 158.838C61.2949 158.523 61.2729 158.179 61.3494 157.851C61.426 157.522 61.5977 157.224 61.843 156.993C62.0884 156.762 62.3965 156.608 62.7287 156.551C63.061 156.495 63.4026 156.537 63.7108 156.674C63.9194 156.766 64.1075 156.899 64.264 157.065C64.4204 157.231 64.5421 157.427 64.6219 157.641C64.7017 157.855 64.7379 158.082 64.7285 158.31C64.7191 158.538 64.6642 158.762 64.5671 158.969V158.969Z" fill="#5A2916"/>
<path d="M61.7414 168.337C61.5979 168.642 61.3676 168.898 61.0794 169.072C60.7911 169.247 60.4578 169.333 60.121 169.319C59.7842 169.305 59.4591 169.192 59.1862 168.994C58.9133 168.796 58.7048 168.522 58.587 168.207C58.4692 167.891 58.4472 167.547 58.5238 167.219C58.6003 166.891 58.7719 166.592 59.0173 166.361C59.2626 166.13 59.5707 165.977 59.903 165.92C60.2352 165.863 60.5768 165.905 60.8851 166.042C61.0937 166.134 61.2819 166.267 61.4383 166.434C61.5948 166.6 61.7165 166.795 61.7963 167.009C61.876 167.223 61.9123 167.451 61.9029 167.679C61.8935 167.907 61.8385 168.13 61.7414 168.337V168.337Z" fill="#5A2916"/>
<path d="M65.3977 170.692C65.2542 170.997 65.0239 171.252 64.7357 171.427C64.4474 171.602 64.1141 171.688 63.7773 171.674C63.4406 171.66 63.1154 171.547 62.8425 171.349C62.5696 171.151 62.3612 170.877 62.2433 170.561C62.1255 170.246 62.1034 169.902 62.18 169.574C62.2565 169.246 62.4282 168.947 62.6736 168.716C62.9189 168.485 63.227 168.331 63.5593 168.275C63.8915 168.218 64.2332 168.26 64.5414 168.397C64.75 168.489 64.9381 168.622 65.0945 168.788C65.251 168.954 65.3728 169.15 65.4526 169.364C65.5323 169.578 65.5686 169.805 65.5592 170.033C65.5498 170.261 65.4948 170.485 65.3977 170.692V170.692Z" fill="#5A2916"/>
<path d="M62.7776 164.458C62.6342 164.763 62.4039 165.018 62.1156 165.193C61.8274 165.368 61.4939 165.454 61.1571 165.44C60.8204 165.426 60.4952 165.313 60.2223 165.115C59.9494 164.917 59.7411 164.643 59.6232 164.327C59.5054 164.012 59.4833 163.668 59.5599 163.34C59.6364 163.011 59.8081 162.713 60.0535 162.482C60.2988 162.251 60.6069 162.097 60.9392 162.04C61.2714 161.984 61.6131 162.026 61.9213 162.163C62.1299 162.255 62.318 162.388 62.4745 162.554C62.6309 162.72 62.7526 162.916 62.8324 163.13C62.9122 163.344 62.9484 163.571 62.939 163.799C62.9296 164.027 62.8748 164.251 62.7776 164.458V164.458Z" fill="#5A2916"/>
<path d="M63.6509 166.787C63.5074 167.092 63.2772 167.348 62.9889 167.522C62.7007 167.697 62.3672 167.783 62.0304 167.769C61.6936 167.755 61.3685 167.642 61.0956 167.444C60.8227 167.246 60.6143 166.972 60.4965 166.657C60.3787 166.341 60.3566 165.997 60.4332 165.669C60.5097 165.341 60.6814 165.042 60.9268 164.811C61.1721 164.58 61.4802 164.427 61.8125 164.37C62.1447 164.313 62.4864 164.355 62.7946 164.492C63.0032 164.584 63.1913 164.717 63.3478 164.884C63.5042 165.05 63.6259 165.245 63.7057 165.459C63.7855 165.673 63.8217 165.9 63.8123 166.128C63.8029 166.356 63.7481 166.58 63.6509 166.787V166.787Z" fill="#5A2916"/>
<path d="M51.1145 162.522C50.971 162.827 50.7407 163.083 50.4525 163.258C50.1642 163.433 49.8308 163.519 49.494 163.505C49.1573 163.491 48.8321 163.378 48.5592 163.18C48.2863 162.982 48.078 162.708 47.9601 162.392C47.8423 162.076 47.8202 161.733 47.8968 161.404C47.9733 161.076 48.145 160.778 48.3904 160.547C48.6357 160.316 48.9438 160.162 49.2761 160.105C49.6083 160.048 49.95 160.091 50.2582 160.227C50.4668 160.32 50.6549 160.453 50.8114 160.619C50.9678 160.785 51.0895 160.981 51.1693 161.195C51.2491 161.408 51.2853 161.636 51.2759 161.864C51.2665 162.092 51.2116 162.316 51.1145 162.522V162.522Z" fill="#5A2916"/>
<path d="M59.9858 142.262C60.1007 142.578 60.1196 142.922 60.0402 143.249C59.9609 143.577 59.7867 143.873 59.5395 144.102C59.2924 144.331 58.9832 144.482 58.6507 144.536C58.3182 144.59 57.9771 144.545 57.6702 144.406C57.3632 144.267 57.104 144.041 56.925 143.756C56.7459 143.471 56.655 143.139 56.6636 142.802C56.6722 142.465 56.78 142.138 56.9734 141.863C57.1667 141.587 57.4371 141.374 57.7508 141.251C57.9636 141.168 58.191 141.128 58.4195 141.133C58.648 141.139 58.8731 141.191 59.0814 141.285C59.2897 141.379 59.4769 141.514 59.6323 141.682C59.7876 141.85 59.9078 142.047 59.9858 142.262Z" fill="#5A2916"/>
<path d="M61.1506 155.243C61.2654 155.56 61.2844 155.904 61.205 156.231C61.1257 156.558 60.9515 156.855 60.7043 157.084C60.4572 157.313 60.1481 157.464 59.8156 157.518C59.4831 157.572 59.142 157.527 58.8351 157.388C58.5281 157.249 58.2689 157.023 58.0899 156.738C57.9108 156.452 57.8198 156.121 57.8284 155.784C57.837 155.447 57.9448 155.12 58.1382 154.844C58.3315 154.569 58.6019 154.356 58.9156 154.233C59.1284 154.15 59.3557 154.11 59.5843 154.115C59.8128 154.121 60.0379 154.173 60.2462 154.267C60.4544 154.361 60.6417 154.496 60.797 154.664C60.9524 154.831 61.0726 155.029 61.1506 155.243V155.243Z" fill="#5A2916"/>
<path d="M57.2287 150.362C57.3436 150.679 57.3624 151.023 57.2831 151.35C57.2037 151.677 57.0296 151.974 56.7825 152.203C56.5353 152.432 56.2261 152.583 55.8936 152.637C55.5611 152.691 55.2201 152.646 54.9131 152.507C54.6062 152.368 54.3469 152.142 54.1679 151.857C53.9889 151.571 53.898 151.24 53.9066 150.903C53.9152 150.566 54.0228 150.239 54.2162 149.963C54.4095 149.688 54.68 149.475 54.9936 149.352C55.2064 149.269 55.4339 149.229 55.6624 149.234C55.8909 149.24 56.1159 149.292 56.3242 149.386C56.5325 149.48 56.7198 149.615 56.8752 149.783C57.0305 149.95 57.1507 150.148 57.2287 150.362V150.362Z" fill="#5A2916"/>
<path d="M68.2238 153.822C68.3387 154.139 68.3576 154.482 68.2783 154.81C68.1989 155.137 68.0247 155.434 67.7776 155.663C67.5304 155.891 67.2212 156.042 66.8887 156.096C66.5562 156.151 66.2152 156.105 65.9082 155.967C65.6013 155.828 65.3421 155.602 65.1631 155.316C64.9841 155.031 64.8931 154.699 64.9017 154.362C64.9103 154.026 65.0181 153.699 65.2114 153.423C65.4048 153.147 65.6752 152.934 65.9888 152.811C66.2016 152.728 66.429 152.688 66.6575 152.694C66.886 152.7 67.1111 152.751 67.3194 152.845C67.5277 152.94 67.7149 153.075 67.8703 153.242C68.0256 153.41 68.1458 153.607 68.2238 153.822Z" fill="#5A2916"/>
<path d="M69.6882 165.031C69.8008 165.348 69.8177 165.691 69.7367 166.017C69.6558 166.344 69.4807 166.639 69.2331 166.866C68.9855 167.094 68.6766 167.243 68.3446 167.296C68.0126 167.349 67.6724 167.303 67.3663 167.164C67.0602 167.025 66.8018 166.799 66.6233 166.514C66.4447 166.23 66.354 165.899 66.3623 165.562C66.3707 165.226 66.4778 164.9 66.6703 164.625C66.8628 164.349 67.1321 164.136 67.4447 164.012C67.6585 163.928 67.8872 163.887 68.1171 163.893C68.347 163.899 68.5734 163.951 68.7828 164.046C68.9922 164.141 69.1802 164.277 69.3358 164.446C69.4913 164.616 69.6112 164.815 69.6882 165.031Z" fill="#5A2916"/>
<path d="M73.6784 178.544C73.7926 178.861 73.811 179.204 73.7314 179.53C73.6518 179.857 73.4778 180.153 73.2309 180.382C72.9841 180.61 72.6753 180.761 72.3434 180.815C72.0114 180.87 71.6708 180.825 71.3641 180.687C71.0574 180.549 70.7981 180.323 70.6187 180.039C70.4393 179.754 70.3476 179.423 70.3552 179.087C70.3627 178.75 70.4691 178.424 70.6611 178.148C70.8531 177.871 71.1223 177.658 71.4349 177.534C71.6482 177.449 71.8764 177.408 72.1059 177.413C72.3353 177.418 72.5614 177.469 72.7707 177.564C72.98 177.658 73.1681 177.793 73.3241 177.962C73.48 178.13 73.6005 178.328 73.6784 178.544V178.544Z" fill="#5A2916"/>
<path d="M69.534 161.889C69.6481 162.205 69.6664 162.548 69.5869 162.875C69.5073 163.202 69.3332 163.498 69.0863 163.727C68.8395 163.955 68.5309 164.106 68.1989 164.16C67.8669 164.214 67.5262 164.17 67.2195 164.031C66.9128 163.893 66.6536 163.668 66.4742 163.383C66.2947 163.099 66.2031 162.768 66.2106 162.431C66.2182 162.095 66.3246 161.768 66.5166 161.492C66.7086 161.216 66.9777 161.002 67.2904 160.878C67.5037 160.793 67.7318 160.752 67.9613 160.758C68.1907 160.763 68.4169 160.814 68.6262 160.908C68.8355 161.002 69.0236 161.138 69.1796 161.306C69.3355 161.475 69.4561 161.673 69.534 161.889Z" fill="#5A2916"/>
<path d="M65.5434 161.752C65.6583 162.068 65.6772 162.412 65.5978 162.739C65.5185 163.067 65.3443 163.363 65.0971 163.592C64.85 163.821 64.5409 163.972 64.2084 164.026C63.8759 164.08 63.5347 164.035 63.2278 163.896C62.9208 163.757 62.6617 163.531 62.4827 163.246C62.3037 162.961 62.2127 162.629 62.2213 162.292C62.2299 161.955 62.3376 161.629 62.531 161.353C62.7243 161.077 62.9948 160.864 63.3084 160.741C63.5212 160.658 63.7486 160.618 63.9771 160.624C64.2056 160.629 64.4307 160.681 64.639 160.775C64.8473 160.869 65.0345 161.004 65.1899 161.172C65.3452 161.34 65.4654 161.537 65.5434 161.752V161.752Z" fill="#5A2916"/>
<path d="M68.0783 171.026C68.1925 171.342 68.2109 171.685 68.1313 172.012C68.0517 172.339 67.8777 172.635 67.6308 172.863C67.384 173.092 67.0753 173.243 66.7434 173.297C66.4114 173.351 66.0707 173.306 65.764 173.168C65.4573 173.03 65.198 172.805 65.0186 172.52C64.8392 172.236 64.7475 171.905 64.7551 171.568C64.7626 171.232 64.869 170.905 65.061 170.629C65.253 170.353 65.5222 170.139 65.8348 170.015C66.0481 169.93 66.2763 169.889 66.5058 169.895C66.7352 169.9 66.9613 169.951 67.1706 170.045C67.3799 170.139 67.5681 170.275 67.7241 170.443C67.88 170.612 68.0004 170.81 68.0783 171.026V171.026Z" fill="#5A2916"/>
<path d="M70.8699 158.635C70.984 158.951 71.0025 159.294 70.9229 159.621C70.8433 159.948 70.6692 160.244 70.4224 160.473C70.1756 160.701 69.8668 160.852 69.5348 160.906C69.2028 160.96 68.8623 160.915 68.5555 160.777C68.2488 160.639 67.9895 160.414 67.8101 160.129C67.6307 159.845 67.539 159.514 67.5466 159.177C67.5541 158.841 67.6605 158.514 67.8525 158.238C68.0446 157.962 68.3137 157.748 68.6263 157.624C68.8396 157.539 69.0678 157.498 69.2973 157.503C69.5268 157.509 69.7528 157.56 69.9621 157.654C70.1714 157.748 70.3597 157.884 70.5156 158.052C70.6716 158.221 70.792 158.419 70.8699 158.635V158.635Z" fill="#5A2916"/>
<path d="M67.0422 163.533C67.1571 163.849 67.1761 164.193 67.0967 164.52C67.0173 164.848 66.8431 165.144 66.596 165.373C66.3488 165.602 66.0397 165.753 65.7072 165.807C65.3747 165.861 65.0336 165.816 64.7266 165.677C64.4196 165.539 64.1605 165.312 63.9815 165.027C63.8024 164.742 63.7114 164.41 63.72 164.073C63.7286 163.736 63.8364 163.41 64.0298 163.134C64.2231 162.858 64.4936 162.645 64.8072 162.522C65.02 162.439 65.2474 162.399 65.4759 162.405C65.7044 162.411 65.9295 162.462 66.1378 162.556C66.3461 162.65 66.5334 162.785 66.6887 162.953C66.844 163.121 66.9643 163.318 67.0422 163.533V163.533Z" fill="#5A2916"/>
<path d="M70.7669 169.767C70.8818 170.084 70.9007 170.427 70.8214 170.754C70.742 171.082 70.5678 171.379 70.3207 171.607C70.0735 171.836 69.7644 171.987 69.4319 172.041C69.0994 172.095 68.7584 172.05 68.4514 171.912C68.1445 171.773 67.8853 171.547 67.7062 171.261C67.5272 170.976 67.4363 170.644 67.4449 170.307C67.4535 169.97 67.5612 169.644 67.7545 169.368C67.9479 169.092 68.2183 168.879 68.5319 168.756C68.7447 168.673 68.9721 168.633 69.2006 168.639C69.4291 168.645 69.6542 168.696 69.8625 168.79C70.0708 168.884 70.2582 169.019 70.4135 169.187C70.5688 169.355 70.689 169.552 70.7669 169.767V169.767Z" fill="#5A2916"/>
<path d="M71.3152 176.343C71.4293 176.66 71.4478 177.003 71.3682 177.33C71.2886 177.657 71.1145 177.953 70.8677 178.181C70.6209 178.41 70.3121 178.561 69.9801 178.615C69.6481 178.669 69.3076 178.624 69.0008 178.486C68.6941 178.348 68.4348 178.123 68.2554 177.838C68.076 177.554 67.9843 177.222 67.9919 176.886C67.9994 176.55 68.1058 176.223 68.2979 175.947C68.4899 175.671 68.759 175.457 69.0716 175.333C69.2849 175.248 69.5131 175.207 69.7426 175.212C69.9721 175.217 70.1982 175.269 70.4074 175.363C70.6167 175.457 70.8049 175.593 70.9608 175.761C71.1168 175.929 71.2373 176.128 71.3152 176.343Z" fill="#5A2916"/>
<path d="M70.7927 173.286C70.9076 173.603 70.9266 173.946 70.8472 174.274C70.7678 174.601 70.5936 174.898 70.3465 175.127C70.0993 175.356 69.7901 175.507 69.4576 175.561C69.1251 175.615 68.784 175.57 68.4771 175.431C68.1701 175.292 67.911 175.066 67.732 174.781C67.5529 174.495 67.4619 174.163 67.4705 173.827C67.4791 173.49 67.5869 173.163 67.7803 172.887C67.9736 172.611 68.244 172.399 68.5577 172.276C68.7705 172.192 68.9979 172.152 69.2264 172.158C69.4549 172.164 69.68 172.216 69.8883 172.31C70.0966 172.404 70.2839 172.539 70.4392 172.707C70.5945 172.874 70.7148 173.071 70.7927 173.286Z" fill="#5A2916"/>
<path d="M72.4111 181.327C72.5252 181.644 72.5436 181.987 72.464 182.314C72.3844 182.64 72.2103 182.937 71.9635 183.165C71.7166 183.394 71.408 183.544 71.076 183.599C70.744 183.653 70.4035 183.608 70.0968 183.47C69.7901 183.332 69.5308 183.106 69.3514 182.822C69.1719 182.537 69.0803 182.206 69.0878 181.87C69.0954 181.534 69.2018 181.207 69.3938 180.931C69.5858 180.655 69.8549 180.441 70.1675 180.317C70.3808 180.232 70.6089 180.191 70.8384 180.196C71.0679 180.201 71.294 180.253 71.5033 180.347C71.7126 180.441 71.9008 180.576 72.0567 180.745C72.2127 180.913 72.3332 181.111 72.4111 181.327V181.327Z" fill="#5A2916"/>
<path d="M60.1144 173.586C60.2293 173.903 60.2483 174.246 60.1689 174.574C60.0895 174.901 59.9153 175.198 59.6682 175.427C59.421 175.656 59.1119 175.807 58.7794 175.861C58.4469 175.915 58.1058 175.87 57.7988 175.731C57.4919 175.592 57.2327 175.366 57.0536 175.08C56.8746 174.795 56.7837 174.463 56.7923 174.127C56.8009 173.79 56.9087 173.463 57.102 173.187C57.2954 172.911 57.5657 172.699 57.8793 172.576C58.0922 172.492 58.3196 172.452 58.5481 172.458C58.7766 172.464 59.0016 172.515 59.2099 172.61C59.4182 172.704 59.6056 172.839 59.7609 173.006C59.9162 173.174 60.0365 173.371 60.1144 173.586V173.586Z" fill="#5A2916"/>
<path d="M55.9525 140.746C56.0674 141.063 56.0864 141.406 56.007 141.733C55.9276 142.061 55.7535 142.358 55.5064 142.586C55.2592 142.815 54.95 142.966 54.6175 143.02C54.285 143.075 53.944 143.029 53.637 142.891C53.33 142.752 53.0708 142.526 52.8918 142.24C52.7127 141.955 52.6218 141.623 52.6304 141.286C52.639 140.949 52.7467 140.623 52.9401 140.347C53.1334 140.071 53.4039 139.858 53.7175 139.735C53.9303 139.652 54.1578 139.612 54.3863 139.618C54.6148 139.624 54.8398 139.675 55.0481 139.769C55.2564 139.863 55.4438 139.998 55.5991 140.166C55.7544 140.334 55.8746 140.531 55.9525 140.746Z" fill="#5A2916"/>
<path d="M53.8631 148.324C53.9772 148.641 53.9957 148.984 53.9161 149.311C53.8365 149.638 53.6624 149.934 53.4156 150.162C53.1687 150.391 52.86 150.542 52.528 150.596C52.196 150.65 51.8554 150.605 51.5487 150.467C51.242 150.329 50.9827 150.104 50.8033 149.819C50.6238 149.534 50.5322 149.203 50.5397 148.867C50.5473 148.531 50.6537 148.204 50.8457 147.928C51.0377 147.652 51.3069 147.438 51.6195 147.314C51.8328 147.229 52.061 147.188 52.2905 147.193C52.5199 147.198 52.746 147.25 52.9553 147.344C53.1646 147.438 53.3528 147.574 53.5087 147.742C53.6646 147.91 53.7852 148.108 53.8631 148.324V148.324Z" fill="#5A2916"/>
<path d="M56.5776 152.101C56.6902 152.418 56.7071 152.76 56.6261 153.087C56.5452 153.413 56.3701 153.708 56.1225 153.936C55.8749 154.163 55.5659 154.313 55.2339 154.366C54.9019 154.419 54.5616 154.373 54.2556 154.234C53.9495 154.095 53.6912 153.869 53.5127 153.584C53.3342 153.299 53.2434 152.968 53.2518 152.632C53.2601 152.296 53.3671 151.97 53.5596 151.694C53.7521 151.418 54.0215 151.205 54.3341 151.082C54.5479 150.997 54.7765 150.957 55.0064 150.962C55.2363 150.968 55.4627 151.02 55.6721 151.115C55.8815 151.21 56.0696 151.346 56.2252 151.516C56.3807 151.685 56.5006 151.884 56.5776 152.101Z" fill="#5A2916"/>
<path d="M47.2953 149.686C47.4102 150.003 47.4291 150.346 47.3497 150.673C47.2704 151.001 47.0963 151.298 46.8491 151.527C46.602 151.755 46.2928 151.906 45.9603 151.96C45.6278 152.015 45.2867 151.969 44.9798 151.831C44.6728 151.692 44.4136 151.466 44.2345 151.18C44.0555 150.895 43.9646 150.563 43.9732 150.226C43.9818 149.89 44.0895 149.563 44.2828 149.287C44.4762 149.011 44.7466 148.798 45.0603 148.675C45.2731 148.592 45.5005 148.552 45.7291 148.558C45.9576 148.564 46.1826 148.615 46.3909 148.709C46.5992 148.804 46.7865 148.938 46.9418 149.106C47.0972 149.274 47.2173 149.471 47.2953 149.686Z" fill="#5A2916"/>
<path d="M45.968 154.61C46.0828 154.926 46.1018 155.27 46.0224 155.597C45.943 155.925 45.7689 156.221 45.5217 156.45C45.2746 156.679 44.9654 156.83 44.6329 156.884C44.3004 156.938 43.9593 156.893 43.6524 156.754C43.3454 156.616 43.0862 156.389 42.9072 156.104C42.7281 155.819 42.6372 155.487 42.6458 155.15C42.6544 154.813 42.7622 154.487 42.9555 154.211C43.1489 153.935 43.4193 153.722 43.733 153.599C43.9458 153.516 44.1731 153.476 44.4016 153.482C44.6302 153.488 44.8551 153.539 45.0634 153.633C45.2717 153.727 45.4591 153.862 45.6144 154.03C45.7698 154.198 45.89 154.395 45.968 154.61V154.61Z" fill="#5A2916"/>
<path d="M47.4577 157.093C47.5726 157.41 47.5915 157.753 47.5121 158.081C47.4328 158.408 47.2586 158.705 47.0114 158.934C46.7643 159.163 46.4551 159.314 46.1226 159.368C45.7901 159.422 45.4491 159.377 45.1421 159.238C44.8352 159.099 44.576 158.873 44.397 158.587C44.218 158.302 44.127 157.97 44.1356 157.634C44.1442 157.297 44.2519 156.97 44.4453 156.694C44.6387 156.418 44.9091 156.206 45.2227 156.083C45.4355 155.999 45.6629 155.959 45.8914 155.965C46.1199 155.971 46.345 156.023 46.5533 156.117C46.7616 156.211 46.9488 156.346 47.1042 156.513C47.2595 156.681 47.3797 156.878 47.4577 157.093Z" fill="#5A2916"/>
<path d="M51.2942 157.427C51.4083 157.744 51.4268 158.087 51.3472 158.413C51.2676 158.74 51.0935 159.036 50.8467 159.265C50.5998 159.493 50.2911 159.644 49.9591 159.698C49.6271 159.753 49.2866 159.708 48.9798 159.57C48.6731 159.432 48.4138 159.206 48.2344 158.922C48.055 158.637 47.9633 158.306 47.9709 157.97C47.9784 157.633 48.0848 157.307 48.2769 157.031C48.4689 156.754 48.738 156.541 49.0506 156.417C49.2639 156.332 49.4921 156.291 49.7216 156.296C49.9511 156.301 50.1771 156.352 50.3864 156.447C50.5957 156.541 50.7839 156.676 50.9398 156.845C51.0958 157.013 51.2163 157.211 51.2942 157.427V157.427Z" fill="#5A2916"/>
<path d="M57.2882 165.554C57.4024 165.87 57.4208 166.213 57.3412 166.54C57.2617 166.867 57.0876 167.163 56.8408 167.391C56.5939 167.62 56.2852 167.771 55.9532 167.825C55.6212 167.879 55.2807 167.834 54.974 167.696C54.6672 167.558 54.408 167.333 54.2286 167.048C54.0491 166.764 53.9575 166.433 53.965 166.096C53.9726 165.76 54.079 165.433 54.271 165.157C54.463 164.881 54.7321 164.667 55.0447 164.543C55.258 164.458 55.4862 164.417 55.7157 164.423C55.9452 164.428 56.1712 164.479 56.3805 164.573C56.5898 164.667 56.778 164.803 56.9339 164.971C57.0898 165.14 57.2104 165.338 57.2882 165.554Z" fill="#5A2916"/>
<path d="M47.5091 163.267C47.624 163.584 47.6429 163.928 47.5636 164.255C47.4842 164.582 47.3101 164.879 47.063 165.108C46.8158 165.337 46.5066 165.488 46.1741 165.542C45.8416 165.596 45.5006 165.551 45.1936 165.412C44.8867 165.273 44.6274 165.047 44.4484 164.762C44.2694 164.476 44.1785 164.144 44.1871 163.808C44.1957 163.471 44.3033 163.144 44.4967 162.868C44.6901 162.593 44.9605 162.38 45.2741 162.257C45.4869 162.173 45.7144 162.133 45.9429 162.139C46.1714 162.145 46.3964 162.197 46.6047 162.291C46.813 162.385 47.0004 162.52 47.1557 162.688C47.311 162.855 47.4311 163.052 47.5091 163.267Z" fill="#5A2916"/>
<path d="M49.9069 167.232C50.0218 167.549 50.0408 167.892 49.9614 168.22C49.882 168.547 49.7078 168.844 49.4607 169.073C49.2135 169.302 48.9045 169.453 48.572 169.507C48.2395 169.561 47.8984 169.515 47.5914 169.377C47.2845 169.238 47.0253 169.012 46.8462 168.726C46.6672 168.441 46.5762 168.109 46.5848 167.772C46.5934 167.436 46.7012 167.109 46.8945 166.833C47.0879 166.557 47.3583 166.345 47.6719 166.222C47.8848 166.138 48.1121 166.098 48.3406 166.104C48.5691 166.11 48.7942 166.161 49.0025 166.256C49.2108 166.35 49.3981 166.485 49.5534 166.652C49.7087 166.82 49.829 167.017 49.9069 167.232Z" fill="#5A2916"/>
<path d="M53.0498 167.677C53.1639 167.994 53.1823 168.337 53.1027 168.664C53.0231 168.991 52.849 169.287 52.6022 169.515C52.3553 169.744 52.0467 169.895 51.7147 169.949C51.3827 170.003 51.0421 169.958 50.7353 169.82C50.4286 169.682 50.1695 169.457 49.99 169.172C49.8106 168.887 49.719 168.556 49.7265 168.22C49.7341 167.884 49.8405 167.557 50.0325 167.281C50.2245 167.005 50.4936 166.791 50.8062 166.667C51.0195 166.582 51.2476 166.541 51.4771 166.546C51.7066 166.551 51.9327 166.603 52.142 166.697C52.3513 166.791 52.5395 166.927 52.6954 167.095C52.8514 167.263 52.9719 167.461 53.0498 167.677Z" fill="#5A2916"/>
<path d="M53.3151 139.247C53.4299 139.564 53.4489 139.907 53.3695 140.235C53.2901 140.562 53.1159 140.859 52.8688 141.088C52.6217 141.317 52.3126 141.468 51.9801 141.522C51.6476 141.576 51.3065 141.531 50.9995 141.392C50.6926 141.253 50.4334 141.027 50.2543 140.742C50.0753 140.456 49.9844 140.124 49.993 139.788C50.0016 139.451 50.1093 139.124 50.3026 138.848C50.496 138.572 50.7664 138.36 51.08 138.237C51.2929 138.153 51.5202 138.113 51.7487 138.119C51.9772 138.125 52.2023 138.177 52.4106 138.271C52.6189 138.365 52.8063 138.5 52.9616 138.668C53.117 138.835 53.2371 139.032 53.3151 139.247V139.247Z" fill="#5A2916"/>
<path d="M56.6461 145.875C56.7609 146.192 56.7799 146.535 56.7005 146.863C56.6212 147.19 56.447 147.487 56.1998 147.716C55.9527 147.945 55.6436 148.096 55.3111 148.15C54.9786 148.204 54.6375 148.159 54.3306 148.02C54.0236 147.881 53.7644 147.655 53.5854 147.37C53.4063 147.084 53.3155 146.752 53.324 146.416C53.3326 146.079 53.4403 145.752 53.6337 145.476C53.827 145.2 54.0974 144.988 54.4111 144.865C54.6239 144.781 54.8512 144.741 55.0798 144.747C55.3083 144.753 55.5334 144.805 55.7417 144.899C55.95 144.993 56.1372 145.128 56.2925 145.296C56.4479 145.463 56.5681 145.66 56.6461 145.875Z" fill="#5A2916"/>
<path d="M54.5139 144.437C54.6288 144.753 54.6477 145.097 54.5683 145.424C54.489 145.752 54.3148 146.048 54.0676 146.277C53.8205 146.506 53.5114 146.657 53.1789 146.711C52.8464 146.765 52.5053 146.72 52.1984 146.581C51.8914 146.442 51.6322 146.216 51.4532 145.931C51.2741 145.646 51.1831 145.314 51.1917 144.977C51.2003 144.64 51.3081 144.314 51.5014 144.038C51.6948 143.762 51.9652 143.549 52.2789 143.426C52.4917 143.343 52.719 143.303 52.9476 143.309C53.1761 143.314 53.4012 143.366 53.6095 143.46C53.8178 143.554 54.005 143.689 54.1603 143.857C54.3157 144.025 54.4359 144.222 54.5139 144.437V144.437Z" fill="#5A2916"/>
<path d="M52.2874 152.64C52.4015 152.957 52.4199 153.3 52.3403 153.627C52.2607 153.953 52.0866 154.25 51.8398 154.478C51.5929 154.707 51.2843 154.857 50.9523 154.912C50.6203 154.966 50.2797 154.921 49.973 154.783C49.6663 154.645 49.407 154.419 49.2276 154.135C49.0482 153.85 48.9565 153.519 48.9641 153.183C48.9716 152.847 49.078 152.52 49.27 152.244C49.462 151.968 49.7312 151.754 50.0438 151.63C50.2571 151.545 50.4852 151.504 50.7147 151.509C50.9442 151.514 51.1703 151.566 51.3796 151.66C51.5889 151.754 51.7771 151.889 51.933 152.058C52.089 152.226 52.2095 152.424 52.2874 152.64V152.64Z" fill="#5A2916"/>
<path d="M48.4514 144.685C48.5663 145.002 48.5851 145.345 48.5057 145.673C48.4264 146 48.2523 146.297 48.0051 146.526C47.758 146.755 47.4488 146.905 47.1163 146.96C46.7838 147.014 46.4427 146.968 46.1358 146.83C45.8288 146.691 45.5696 146.465 45.3906 146.179C45.2115 145.894 45.1206 145.562 45.1292 145.225C45.1378 144.889 45.2455 144.562 45.4388 144.286C45.6322 144.01 45.9026 143.797 46.2163 143.675C46.4291 143.591 46.6565 143.551 46.8851 143.557C47.1136 143.563 47.3386 143.614 47.5469 143.708C47.7551 143.803 47.9425 143.938 48.0978 144.105C48.2532 144.273 48.3734 144.47 48.4514 144.685V144.685Z" fill="#5A2916"/>
<path d="M56.5949 158.206C56.7098 158.523 56.7287 158.867 56.6493 159.194C56.57 159.521 56.3959 159.818 56.1487 160.047C55.9016 160.276 55.5924 160.427 55.2599 160.481C54.9274 160.535 54.5863 160.49 54.2793 160.351C53.9724 160.212 53.7131 159.986 53.5341 159.701C53.3551 159.415 53.2642 159.084 53.2728 158.747C53.2814 158.41 53.389 158.083 53.5824 157.807C53.7758 157.532 54.0462 157.319 54.3598 157.196C54.5727 157.112 54.8001 157.073 55.0286 157.078C55.2572 157.084 55.4821 157.136 55.6904 157.23C55.8987 157.324 56.0861 157.459 56.2414 157.627C56.3968 157.794 56.5169 157.992 56.5949 158.206Z" fill="#5A2916"/>
<path d="M59.3009 161.341C59.4157 161.657 59.4347 162.001 59.3553 162.328C59.2759 162.656 59.1019 162.952 58.8547 163.181C58.6076 163.41 58.2984 163.561 57.9659 163.615C57.6334 163.669 57.2923 163.624 56.9854 163.485C56.6784 163.346 56.4192 163.12 56.2402 162.835C56.0611 162.55 55.9702 162.218 55.9788 161.881C55.9874 161.544 56.0951 161.217 56.2885 160.942C56.4818 160.666 56.7522 160.453 57.0659 160.33C57.2787 160.247 57.506 160.207 57.7345 160.213C57.9631 160.218 58.1881 160.27 58.3964 160.364C58.6047 160.458 58.7921 160.593 58.9474 160.761C59.1028 160.929 59.2229 161.126 59.3009 161.341Z" fill="#5A2916"/>
<path d="M59.9517 163.439C60.0666 163.755 60.0856 164.099 60.0062 164.426C59.9268 164.753 59.7526 165.05 59.5055 165.279C59.2583 165.508 58.9493 165.659 58.6168 165.713C58.2843 165.767 57.9432 165.722 57.6362 165.583C57.3293 165.444 57.0701 165.218 56.891 164.933C56.712 164.647 56.6211 164.316 56.6297 163.979C56.6383 163.642 56.746 163.315 56.9393 163.04C57.1327 162.764 57.4031 162.551 57.7167 162.428C57.9296 162.345 58.1569 162.305 58.3854 162.31C58.6139 162.316 58.839 162.368 59.0473 162.462C59.2556 162.556 59.443 162.691 59.5983 162.859C59.7536 163.027 59.8738 163.224 59.9517 163.439V163.439Z" fill="#5A2916"/>
<path d="M46.6785 160.176C46.7934 160.493 46.8124 160.836 46.733 161.164C46.6536 161.491 46.4794 161.788 46.2323 162.017C45.9851 162.245 45.6761 162.396 45.3436 162.45C45.0111 162.505 44.67 162.459 44.3631 162.321C44.0561 162.182 43.7969 161.956 43.6178 161.67C43.4388 161.385 43.3479 161.053 43.3565 160.716C43.3651 160.38 43.4728 160.053 43.6661 159.777C43.8595 159.501 44.1299 159.288 44.4435 159.165C44.6564 159.082 44.8837 159.042 45.1122 159.048C45.3408 159.054 45.5658 159.105 45.7741 159.199C45.9824 159.294 46.1698 159.429 46.3251 159.596C46.4805 159.764 46.6006 159.961 46.6785 160.176V160.176Z" fill="#5A2916"/>
<path d="M50.8061 164.124C50.921 164.44 50.9398 164.784 50.8605 165.111C50.7811 165.439 50.607 165.735 50.3599 165.964C50.1127 166.193 49.8035 166.344 49.471 166.398C49.1385 166.452 48.7975 166.407 48.4905 166.268C48.1835 166.13 47.9243 165.903 47.7453 165.618C47.5663 165.333 47.4754 165.001 47.484 164.664C47.4926 164.327 47.6002 164.001 47.7936 163.725C47.9869 163.449 48.2574 163.236 48.571 163.113C48.7838 163.03 49.0113 162.99 49.2398 162.996C49.4683 163.001 49.6933 163.053 49.9016 163.147C50.1099 163.241 50.2972 163.376 50.4526 163.544C50.6079 163.712 50.7282 163.909 50.8061 164.124V164.124Z" fill="#5A2916"/>
<path d="M56.8516 170.974C56.9665 171.291 56.9854 171.635 56.9061 171.962C56.8267 172.289 56.6525 172.586 56.4054 172.815C56.1582 173.044 55.8491 173.195 55.5166 173.249C55.1841 173.303 54.8431 173.258 54.5361 173.119C54.2292 172.98 53.97 172.754 53.7909 172.469C53.6119 172.183 53.521 171.851 53.5296 171.515C53.5382 171.178 53.6459 170.851 53.8392 170.575C54.0326 170.299 54.303 170.087 54.6166 169.964C54.8295 169.88 55.0568 169.84 55.2853 169.846C55.5138 169.852 55.7389 169.904 55.9472 169.998C56.1555 170.092 56.3428 170.227 56.4982 170.395C56.6535 170.562 56.7736 170.759 56.8516 170.974V170.974Z" fill="#5A2916"/>
<path d="M59.2409 169.245C59.3558 169.561 59.3747 169.905 59.2954 170.232C59.216 170.56 59.0418 170.856 58.7947 171.085C58.5475 171.314 58.2383 171.465 57.9058 171.519C57.5733 171.573 57.2323 171.528 56.9253 171.389C56.6184 171.25 56.3591 171.024 56.1801 170.739C56.0011 170.454 55.9102 170.122 55.9188 169.785C55.9274 169.448 56.0351 169.121 56.2285 168.846C56.4219 168.57 56.6923 168.357 57.0059 168.234C57.2187 168.151 57.4461 168.111 57.6746 168.116C57.9031 168.122 58.1281 168.174 58.3364 168.268C58.5447 168.362 58.732 168.497 58.8874 168.665C59.0427 168.833 59.1629 169.03 59.2409 169.245V169.245Z" fill="#5A2916"/>
<path d="M53.1267 171.933C53.2416 172.25 53.2605 172.594 53.1812 172.921C53.1018 173.248 52.9276 173.545 52.6805 173.774C52.4333 174.003 52.1242 174.154 51.7917 174.208C51.4592 174.262 51.118 174.217 50.8111 174.078C50.5041 173.939 50.245 173.713 50.066 173.428C49.8869 173.142 49.7959 172.81 49.8045 172.474C49.8131 172.137 49.9209 171.81 50.1142 171.534C50.3076 171.259 50.578 171.046 50.8917 170.923C51.1045 170.839 51.3318 170.8 51.5604 170.805C51.7889 170.811 52.014 170.863 52.2223 170.957C52.4306 171.051 52.6178 171.186 52.7732 171.354C52.9285 171.521 53.0488 171.718 53.1267 171.933V171.933Z" fill="#5A2916"/>
<path d="M56.5091 174.836C56.624 175.153 56.6429 175.497 56.5635 175.824C56.4842 176.151 56.3101 176.448 56.0629 176.677C55.8158 176.906 55.5066 177.057 55.1741 177.111C54.8416 177.165 54.5006 177.12 54.1936 176.981C53.8867 176.842 53.6274 176.616 53.4484 176.331C53.2694 176.045 53.1785 175.713 53.1871 175.377C53.1957 175.04 53.3033 174.713 53.4967 174.437C53.6901 174.162 53.9605 173.949 54.2741 173.826C54.4869 173.742 54.7143 173.702 54.9428 173.708C55.1713 173.714 55.3964 173.766 55.6047 173.86C55.813 173.954 56.0003 174.089 56.1557 174.257C56.311 174.424 56.4311 174.621 56.5091 174.836V174.836Z" fill="#5A2916"/>
<path d="M65.9802 166.393C66.095 166.71 66.114 167.053 66.0346 167.381C65.9553 167.708 65.7811 168.005 65.5339 168.234C65.2868 168.462 64.9776 168.613 64.6451 168.667C64.3126 168.722 63.9715 168.676 63.6646 168.538C63.3576 168.399 63.0984 168.173 62.9194 167.887C62.7403 167.602 62.6494 167.27 62.658 166.933C62.6666 166.597 62.7744 166.27 62.9678 165.994C63.1611 165.718 63.4315 165.505 63.7452 165.382C63.958 165.299 64.1853 165.259 64.4139 165.265C64.6424 165.271 64.8675 165.322 65.0758 165.416C65.284 165.511 65.4713 165.646 65.6266 165.813C65.782 165.981 65.9022 166.178 65.9802 166.393Z" fill="#5A2916"/>
<path d="M69.2173 180.368C69.3322 180.685 69.351 181.028 69.2716 181.356C69.1923 181.683 69.0182 181.98 68.771 182.209C68.5239 182.438 68.2147 182.589 67.8822 182.643C67.5497 182.697 67.2086 182.652 66.9016 182.513C66.5947 182.374 66.3355 182.148 66.1564 181.862C65.9774 181.577 65.8865 181.245 65.8951 180.909C65.9037 180.572 66.0114 180.245 66.2047 179.969C66.3981 179.693 66.6685 179.481 66.9821 179.358C67.195 179.274 67.4224 179.234 67.6509 179.24C67.8795 179.246 68.1044 179.298 68.3127 179.392C68.521 179.486 68.7084 179.621 68.8637 179.788C69.0191 179.956 69.1393 180.153 69.2173 180.368V180.368Z" fill="#5A2916"/>
<path d="M66.9049 175.453C67.0182 175.77 67.0357 176.113 66.955 176.44C66.8742 176.767 66.6989 177.063 66.451 177.29C66.2031 177.518 65.8937 177.668 65.5612 177.721C65.2288 177.774 64.8881 177.727 64.5818 177.588C64.2755 177.448 64.0171 177.221 63.839 176.936C63.6609 176.65 63.5709 176.318 63.5803 175.982C63.5897 175.645 63.6981 175.319 63.8919 175.043C64.0857 174.768 64.3563 174.556 64.6699 174.434C64.8833 174.351 65.1111 174.311 65.34 174.317C65.569 174.324 65.7943 174.376 66.0027 174.471C66.2111 174.566 66.3983 174.702 66.5532 174.871C66.7082 175.039 66.8278 175.237 66.9049 175.453Z" fill="#5A2916"/>
<path d="M62.8888 174.34C63.0037 174.656 63.0227 175 62.9433 175.327C62.8639 175.655 62.6897 175.951 62.4426 176.18C62.1955 176.409 61.8863 176.56 61.5538 176.614C61.2213 176.668 60.8802 176.623 60.5733 176.484C60.2663 176.346 60.0071 176.119 59.828 175.834C59.649 175.549 59.5581 175.217 59.5667 174.88C59.5753 174.543 59.6831 174.217 59.8764 173.941C60.0698 173.665 60.3402 173.452 60.6539 173.329C60.8667 173.246 61.094 173.206 61.3225 173.212C61.5511 173.217 61.776 173.269 61.9843 173.363C62.1926 173.457 62.38 173.592 62.5353 173.76C62.6906 173.928 62.8109 174.125 62.8888 174.34Z" fill="#5A2916"/>
<path d="M64.139 177.602C64.2539 177.919 64.2728 178.262 64.1934 178.59C64.1141 178.917 63.9399 179.214 63.6927 179.443C63.4456 179.672 63.1365 179.823 62.804 179.877C62.4715 179.931 62.1305 179.886 61.8235 179.747C61.5165 179.608 61.2573 179.382 61.0783 179.096C60.8993 178.811 60.8084 178.479 60.817 178.143C60.8256 177.806 60.9332 177.479 61.1266 177.203C61.3199 176.927 61.5904 176.715 61.904 176.592C62.1168 176.508 62.3442 176.468 62.5727 176.474C62.8012 176.48 63.0263 176.532 63.2346 176.626C63.4429 176.72 63.6301 176.855 63.7855 177.022C63.9408 177.19 64.061 177.387 64.139 177.602Z" fill="#5A2916"/>
<path d="M64.5331 171.368C64.6465 171.685 64.6639 172.029 64.5832 172.355C64.5025 172.682 64.3272 172.978 64.0793 173.206C63.8315 173.434 63.5219 173.583 63.1895 173.636C62.857 173.689 62.5163 173.643 62.21 173.503C61.9037 173.363 61.6453 173.137 61.4672 172.851C61.289 172.565 61.199 172.233 61.2084 171.897C61.2178 171.56 61.3262 171.234 61.52 170.959C61.7139 170.684 61.9844 170.472 62.2981 170.349C62.5115 170.266 62.7394 170.226 62.9684 170.233C63.1973 170.239 63.4226 170.291 63.631 170.386C63.8394 170.481 64.0265 170.617 64.1815 170.786C64.3364 170.955 64.456 171.153 64.5331 171.368Z" fill="#5A2916"/>
<path d="M69.2084 176.789C69.3233 177.105 69.3423 177.449 69.2629 177.776C69.1835 178.104 69.0093 178.4 68.7622 178.629C68.515 178.858 68.2058 179.009 67.8733 179.063C67.5408 179.117 67.1998 179.072 66.8928 178.933C66.5859 178.795 66.3267 178.568 66.1476 178.283C65.9686 177.998 65.8777 177.666 65.8863 177.329C65.8949 176.992 66.0027 176.666 66.196 176.39C66.3894 176.114 66.6598 175.901 66.9734 175.778C67.1863 175.695 67.4136 175.655 67.6421 175.661C67.8706 175.667 68.0956 175.718 68.3039 175.812C68.5122 175.906 68.6996 176.041 68.8549 176.209C69.0102 176.377 69.1305 176.574 69.2084 176.789Z" fill="#5A2916"/>
<path d="M64.9954 149.643C65.1103 149.96 65.1293 150.303 65.0499 150.631C64.9705 150.958 64.7963 151.255 64.5492 151.484C64.302 151.713 63.993 151.864 63.6605 151.918C63.328 151.972 62.9869 151.927 62.6799 151.788C62.373 151.649 62.1138 151.423 61.9347 151.137C61.7557 150.852 61.6648 150.52 61.6734 150.183C61.682 149.847 61.7897 149.52 61.983 149.244C62.1764 148.968 62.4468 148.756 62.7604 148.633C62.9733 148.549 63.2006 148.509 63.4291 148.515C63.6576 148.521 63.8827 148.572 64.091 148.667C64.2993 148.761 64.4866 148.896 64.6419 149.063C64.7972 149.231 64.9175 149.428 64.9954 149.643Z" fill="#5A2916"/>
<path d="M62.3066 148.967C62.1297 148.68 62.0411 148.348 62.0519 148.011C62.0627 147.675 62.1724 147.349 62.3674 147.075C62.5624 146.8 62.8339 146.589 63.1481 146.468C63.4623 146.347 63.8051 146.321 64.1339 146.394C64.4626 146.467 64.7626 146.635 64.9963 146.877C65.2301 147.12 65.3871 147.426 65.448 147.757C65.5089 148.088 65.4708 148.43 65.3386 148.739C65.2063 149.049 64.9857 149.313 64.7044 149.498C64.5131 149.623 64.2984 149.709 64.0732 149.751C63.848 149.792 63.6169 149.788 63.3934 149.739C63.1698 149.689 62.9585 149.595 62.7718 149.463C62.5852 149.33 62.427 149.161 62.3066 148.967V148.967Z" fill="#5A2916"/>
<path d="M46.5243 114.559C46.5243 114.559 44.7602 116.606 45.9248 120.314C47.0894 124.022 51.3796 130.478 53.6317 134.015C55.8839 137.552 66.4767 142.998 70.0562 152.486" stroke="#5A2916" stroke-linecap="round" stroke-linejoin="round"/>
<path d="M71.1182 155.303C72.3354 159.982 72.9115 164.805 72.8308 169.638" stroke="#5A2916" stroke-linecap="round" stroke-linejoin="round"/>
<path d="M46.0448 126.728C45.2206 130.8 44.6968 134.927 44.4778 139.076C44.238 145.156 41.0524 150.268 43.2532 160.279" stroke="#5A2916" stroke-linecap="round" stroke-linejoin="round"/>
<path d="M56.7747 179.615C56.7747 179.615 61.7585 181.199 64.9868 181.824" stroke="#5A2916" stroke-linecap="round" stroke-linejoin="round"/>
<path d="M74.1751 67.0673C73.1049 67.5427 72.1838 68.2995 71.5097 69.2571C70.8356 70.2147 70.4339 71.3371 70.3473 72.505C70.2187 73.6577 70.3189 74.8244 70.6422 75.9383C70.9655 77.0521 71.5054 78.0912 72.2312 78.996C72.2312 78.996 68.3349 82.3785 69.3711 86.3775C69.9204 88.6911 71.3607 90.6945 73.3787 91.9522C73.3787 91.9522 73.0276 97.0217 78.5167 99.6592C84.0058 102.297 87.4739 100.027 88.7926 98.0493C90.1114 96.0712 90.668 95.035 90.668 95.035C90.668 95.035 97.0562 93.2281 98.1523 89.76C99.2484 86.2919 96.6451 82.8494 93.6651 81.2738C93.6651 81.2738 96.7308 79.0816 97.0904 76.7352C97.0904 76.7352 100.516 81.1111 104.318 79.8523C108.12 78.5935 110.526 75.5706 107.966 71.9569C107.966 71.9569 111.545 72.0083 113.712 70.8951C114.938 70.3199 115.949 69.3691 116.598 68.1805C118.151 68.5521 119.787 68.3323 121.188 67.5639C123.397 66.2623 125.863 63.6591 124.613 60.1053C123.363 56.5515 121.188 55.4383 121.188 55.4383C121.188 55.4383 117.848 50.8741 114.902 49.11C111.956 47.346 110.321 47.7827 110.321 47.7827C110.321 47.7827 105.44 44.5629 100.045 45.4021C94.6499 46.2413 93.9135 47.8427 93.9135 47.8427C90.0372 47.8021 86.2116 48.7261 82.7812 50.5315C77.3178 53.4945 76.7869 58.3498 76.7869 58.3498C75.4083 59.2747 74.394 60.6499 73.9176 62.2402C73.4412 63.8304 73.5322 65.5368 74.1751 67.0673V67.0673Z" stroke="#5A2916" stroke-linecap="round" stroke-linejoin="round"/>
<path d="M101.15 55.7037C93.0487 55.9007 89.9317 63.6162 89.9317 63.6162C89.9317 63.6162 89.0754 63.5391 87.1658 63.3422C85.7839 63.293 84.4078 63.5443 83.1325 64.0786C69.9793 70.5268 77.2152 82.6781 77.2152 82.6781C77.2152 82.6781 72.4712 85.4954 73.2333 90.7961" stroke="#5A2916" stroke-linecap="round" stroke-linejoin="round"/>
<path d="M93.6738 93.8447C93.6738 93.8447 101.809 92.9884 106.27 96.799C110.732 100.61 110.646 105.842 111.134 106.33C111.622 106.818 117.18 104.258 120.211 102.254C123.243 100.25 126.086 97.2357 126.017 96.1568C125.949 95.0778 119.775 87.2167 120.477 78.0369C121.179 68.857 121.145 67.5982 121.145 67.5982" stroke="#5A2916" stroke-linecap="round" stroke-linejoin="round"/>
<path d="M104.275 79.8865C105.261 82.8149 106.871 85.4943 108.994 87.739" stroke="#5A2916" stroke-linecap="round" stroke-linejoin="round"/>
<path d="M111.237 71.8884C111.237 71.8884 111.734 80.4517 113.892 82.2328C116.05 84.014 119.098 76.2385 116.546 68.2147" stroke="#5A2916" stroke-linecap="round" stroke-linejoin="round"/>
<path d="M113.112 81.1967C113.112 81.1967 114.037 83.9113 118.439 85.1958" stroke="#5A2916" stroke-linecap="round" stroke-linejoin="round"/>
<path d="M97.022 84.3308C97.022 84.3308 99.7708 84.2109 104.198 89.1947" stroke="#5A2916" stroke-linecap="round" stroke-linejoin="round"/>
<path d="M98.0667 86.7543C98.0667 86.7543 99.8307 85.5896 101.364 86.4117" stroke="#5A2916" stroke-linecap="round" stroke-linejoin="round"/>
<path d="M318.906 267.731C318.201 267.188 317.735 266.391 317.607 265.51C317.48 264.63 317.699 263.734 318.22 263.013C320.07 260.212 326.296 256.95 328.788 257.112C331.28 257.275 332.307 258.097 333.069 257.481C333.831 256.864 334.962 255.348 333.009 254.638C331.057 253.927 326.741 253.559 321.466 256.299C316.191 259.039 313.879 262.644 312.312 262.379C310.745 262.113 309.563 259.69 306.797 257.429C304.031 255.169 297.001 255.365 292.959 259.69C288.917 264.014 284.395 275.147 281.561 282.134C278.727 289.122 279.737 295.956 283.274 298.019C286.81 300.083 287.975 298.824 287.975 298.824C288.603 300.194 289.566 301.383 290.775 302.281C291.985 303.179 293.401 303.758 294.894 303.962C299.946 304.545 300.957 303.192 300.957 303.192C303.571 301.961 305.842 300.105 307.568 297.788C310.496 293.892 313.81 287.846 317.741 285.183C321.672 282.52 325.628 276.859 324.172 272.338C322.716 267.817 318.906 267.731 318.906 267.731Z" stroke="#5A2916" stroke-linecap="round" stroke-linejoin="round"/>
<path d="M320.841 280.293C320.841 280.293 318.067 283.196 312.492 287.923C306.917 292.65 306.866 298.644 303.235 301.916" stroke="#5A2916" stroke-linecap="round" stroke-linejoin="round"/>
<path d="M303.774 259.313C303.774 259.313 311.738 260.084 311.738 266.344" stroke="#5A2916" stroke-linecap="round" stroke-linejoin="round"/>
<path d="M308.75 267.397C308.75 267.397 312.56 265.307 315.934 267.286C319.308 269.264 320.096 271.233 320.096 271.233" stroke="#5A2916" stroke-linecap="round" stroke-linejoin="round"/>
<path d="M289.773 293.618C289.371 294.317 289.014 295.04 288.703 295.784" stroke="#5A2916" stroke-linecap="round" stroke-linejoin="round"/>
<path d="M307.396 268.981C307.396 268.981 303.971 271.088 299.518 278.401C296.615 283.136 293.524 287.572 291.315 291.066" stroke="#5A2916" stroke-linecap="round" stroke-linejoin="round"/>
<path d="M50.0608 225.505C49.2045 225.608 48.3481 225.745 47.5431 225.908C35.76 228.16 30.1254 238.153 28.9351 248.6C28.0025 255.935 29.5069 263.373 33.2167 269.769C37.2843 276.551 43.9722 280.31 50.0094 285.363C55.8666 290.261 60.4737 298.876 69.7049 297.899C84.8106 296.298 79.8952 279.377 80.3748 270.043C81.3767 251.135 77.7288 221.926 50.0608 225.505Z" stroke="#5A2916" stroke-linecap="round" stroke-linejoin="round"/>
<path d="M50.5663 229.384C49.8299 229.479 49.0763 229.599 48.3227 229.744C37.7985 231.748 32.7718 240.671 31.7099 249.996C30.8879 256.545 32.2419 263.183 35.5634 268.887C39.2028 274.95 45.1629 278.307 50.5578 282.811C55.7899 287.178 59.8918 294.868 68.1297 294.003C81.6083 292.573 77.2239 277.467 77.652 269.17C78.5169 252.266 75.2714 226.19 50.5663 229.384Z" stroke="#5A2916" stroke-linecap="round" stroke-linejoin="round"/>
<path d="M62.9617 268.487C68.8128 265.249 70.6101 257.301 66.9759 250.734C63.3417 244.167 55.6524 241.468 49.8012 244.706C43.9501 247.944 42.1529 255.893 45.787 262.46C49.4212 269.027 57.1106 271.725 62.9617 268.487Z" stroke="#5A2916" stroke-linecap="round" stroke-linejoin="round"/>
<path d="M33.0627 82.4469C30.4356 82.8547 27.9806 84.0078 25.9894 85.7695C23.2406 88.2186 21.1598 91.327 18.5823 93.9645C22.1617 94.6581 25.5614 96.0454 29.0723 97.013C32.5833 97.9807 36.3596 98.5202 39.8535 97.484C43.3473 96.4479 46.4643 93.5192 46.8068 89.8884L51.6194 89.1862V87.7733L46.1817 88.7152C46.1817 88.7152 43.1075 85.0844 42.6879 84.759C41.3221 83.7449 39.7655 83.0174 38.1114 82.6201C36.4574 82.2227 34.7401 82.1639 33.0627 82.4469Z" stroke="#5A2916" stroke-linecap="round" stroke-linejoin="round"/>
<path d="M46.8069 89.8884C46.8069 89.8884 43.099 89.6658 33.8763 91.3185C29.3473 92.1995 24.7733 92.8312 20.175 93.211" stroke="#5A2916" stroke-linecap="round" stroke-linejoin="round"/>
<path d="M24.4226 89.9055L28.6786 92.5002L26.5463 95.1034" stroke="#5A2916" stroke-linecap="round" stroke-linejoin="round"/>
<path d="M31.042 87.0626L34.827 91.5583C34.827 91.5583 31.7528 95.3433 31.7528 96.0454" stroke="#5A2916" stroke-linecap="round" stroke-linejoin="round"/>
<path d="M37.9012 85.1701L40.9754 90.1368L37.1904 95.5745" stroke="#5A2916" stroke-linecap="round" stroke-linejoin="round"/>
<path d="M127.508 27.0852C125.879 24.9855 123.683 23.3958 121.179 22.5039C117.703 21.2707 113.978 20.9539 110.424 19.9349C111.546 23.3602 111.965 27.051 112.821 30.5962C113.678 34.1414 115.022 37.6952 117.617 40.2556C120.212 42.816 124.279 44.1347 127.619 42.679L130.565 46.5582L131.806 45.8731L128.381 41.5914C128.381 41.5914 130.094 37.1471 130.162 36.6247C130.385 34.9378 130.265 33.2233 129.809 31.584C129.352 29.9447 128.57 28.4145 127.508 27.0852Z" stroke="#5A2916" stroke-linecap="round" stroke-linejoin="round"/>
<path d="M127.619 42.7133C127.619 42.7133 126.035 39.365 120.126 32.0862C117.164 28.5298 114.4 24.8135 111.845 20.9539" stroke="#5A2916" stroke-linecap="round" stroke-linejoin="round"/>
<path d="M116.803 23.1204L116.581 28.1043L113.275 27.4963" stroke="#5A2916" stroke-linecap="round" stroke-linejoin="round"/>
<path d="M122.489 27.5476L120.383 33.0282C120.383 33.0282 115.579 32.1718 114.962 32.5058" stroke="#5A2916" stroke-linecap="round" stroke-linejoin="round"/>
<path d="M127.456 32.6428L124.596 37.7294L118.002 37.0444" stroke="#5A2916" stroke-linecap="round" stroke-linejoin="round"/>
<path d="M263.809 41.4887C265.548 39.4807 266.677 37.0177 267.063 34.3897C267.594 30.7418 267.183 27.0253 267.449 23.3517C264.263 25.1243 260.769 26.2546 257.464 27.7789C254.159 29.3031 250.93 31.3241 248.901 34.3726C246.871 37.4211 246.392 41.66 248.473 44.6486L245.244 48.288L246.16 49.3669L249.706 45.1367C249.706 45.1367 254.398 45.9416 254.929 45.9159C256.631 45.8137 258.295 45.3689 259.821 44.6082C261.347 43.8474 262.703 42.7864 263.809 41.4887V41.4887Z" stroke="#5A2916" stroke-linecap="round" stroke-linejoin="round"/>
<path d="M248.498 44.6571C248.498 44.6571 251.478 42.4392 257.464 35.2375C260.361 31.6441 263.454 28.2136 266.729 24.9615" stroke="#5A2916" stroke-linecap="round" stroke-linejoin="round"/>
<path d="M265.608 30.2194L260.684 30.973L260.632 27.6162" stroke="#5A2916" stroke-linecap="round" stroke-linejoin="round"/>
<path d="M262.379 36.659L256.582 35.6571C256.582 35.6571 256.496 30.7846 256.042 30.2451" stroke="#5A2916" stroke-linecap="round" stroke-linejoin="round"/>
<path d="M258.355 42.5248L252.797 40.7094L252.189 34.1157" stroke="#5A2916" stroke-linecap="round" stroke-linejoin="round"/>
<path d="M331.091 138.485C333.687 139.056 336.392 138.869 338.884 137.946C342.309 136.661 345.409 134.52 348.757 132.996C345.683 131.052 343.011 128.526 340.091 126.351C337.171 124.176 333.849 122.309 330.218 122.009C326.587 121.71 322.614 123.302 320.987 126.565L316.243 125.478L315.729 126.796L321.141 127.884C321.141 127.884 322.682 132.388 322.956 132.842C323.863 134.282 325.05 135.524 326.448 136.493C327.846 137.463 329.425 138.14 331.091 138.485V138.485Z" stroke="#5A2916" stroke-linecap="round" stroke-linejoin="round"/>
<path d="M320.987 126.565C320.987 126.565 324.352 128.115 333.549 129.922C338.094 130.741 342.591 131.81 347.019 133.125" stroke="#5A2916" stroke-linecap="round" stroke-linejoin="round"/>
<path d="M341.855 134.674L338.824 130.701L341.753 129.048" stroke="#5A2916" stroke-linecap="round" stroke-linejoin="round"/>
<path d="M334.645 134.914L332.752 129.357C332.752 129.357 337.034 126.942 337.248 126.282" stroke="#5A2916" stroke-linecap="round" stroke-linejoin="round"/>
<path d="M327.572 134.195L326.51 128.449L332.007 124.75" stroke="#5A2916" stroke-linecap="round" stroke-linejoin="round"/>
<path d="M349.297 241.69C351.892 242.26 354.597 242.073 357.089 241.15C360.514 239.866 363.606 237.725 366.963 236.201C363.88 234.257 361.217 231.731 358.288 229.556C355.359 227.381 352.045 225.514 348.415 225.214C344.784 224.914 340.81 226.507 339.183 229.77L334.439 228.682L333.926 230.001L339.337 231.088C339.337 231.088 340.887 235.593 341.161 236.038C342.066 237.481 343.252 238.725 344.651 239.696C346.049 240.668 347.629 241.346 349.297 241.69Z" stroke="#5A2916" stroke-linecap="round" stroke-linejoin="round"/>
<path d="M339.166 229.77C339.166 229.77 342.532 231.32 351.729 233.127C356.274 233.946 360.771 235.015 365.199 236.329" stroke="#5A2916" stroke-linecap="round" stroke-linejoin="round"/>
<path d="M360.035 237.879L357.012 233.906L359.941 232.253" stroke="#5A2916" stroke-linecap="round" stroke-linejoin="round"/>
<path d="M352.833 238.102L350.932 232.544C350.932 232.544 355.171 230.129 355.428 229.47" stroke="#5A2916" stroke-linecap="round" stroke-linejoin="round"/>
<path d="M345.76 237.4L344.69 231.654L350.187 227.954" stroke="#5A2916" stroke-linecap="round" stroke-linejoin="round"/>
<path d="M268.562 331.553C271.157 332.127 273.862 331.942 276.355 331.022C279.78 329.738 282.871 327.597 286.228 326.064C283.145 324.12 280.482 321.594 277.562 319.419C274.642 317.244 271.311 315.386 267.68 315.077C264.049 314.769 260.084 316.379 258.449 319.633L253.713 318.545L253.199 319.864L258.611 320.96C258.611 320.96 260.153 325.456 260.427 325.91C261.332 327.35 262.52 328.593 263.918 329.562C265.316 330.532 266.896 331.209 268.562 331.553V331.553Z" stroke="#5A2916" stroke-linecap="round" stroke-linejoin="round"/>
<path d="M258.449 319.633C258.449 319.633 261.814 321.192 271.011 322.99C275.56 323.809 280.06 324.881 284.49 326.201" stroke="#5A2916" stroke-linecap="round" stroke-linejoin="round"/>
<path d="M279.318 327.743L276.295 323.778L279.223 322.125" stroke="#5A2916" stroke-linecap="round" stroke-linejoin="round"/>
<path d="M272.116 328.016L270.215 322.459C270.215 322.459 274.453 320.044 274.71 319.385" stroke="#5A2916" stroke-linecap="round" stroke-linejoin="round"/>
<path d="M265.043 327.263L263.972 321.526L269.478 317.826" stroke="#5A2916" stroke-linecap="round" stroke-linejoin="round"/>
<path d="M109.174 306.548C106.706 305.561 104.008 305.302 101.398 305.803C97.7844 306.505 94.4019 308.115 90.8396 309.066C93.5627 311.489 95.7806 314.418 98.3068 317.047C100.833 319.676 103.804 322.048 107.341 322.947C110.878 323.846 115.048 322.947 117.189 319.967L121.693 321.816L122.412 320.601L117.274 318.631C117.274 318.631 116.487 313.938 116.29 313.493C115.634 311.915 114.666 310.486 113.443 309.292C112.22 308.098 110.767 307.165 109.174 306.548V306.548Z" stroke="#5A2916" stroke-linecap="round" stroke-linejoin="round"/>
<path d="M117.231 319.967C117.231 319.967 114.166 317.878 105.388 314.598C101.039 313.046 96.7794 311.254 92.6292 309.229" stroke="#5A2916" stroke-linecap="round" stroke-linejoin="round"/>
<path d="M97.9383 308.552L100.276 312.962L97.1162 314.11" stroke="#5A2916" stroke-linecap="round" stroke-linejoin="round"/>
<path d="M105.08 309.485L106.039 315.283C106.039 315.283 101.467 316.995 101.107 317.578" stroke="#5A2916" stroke-linecap="round" stroke-linejoin="round"/>
<path d="M111.948 311.361L112.059 317.201L106.022 319.95" stroke="#5A2916" stroke-linecap="round" stroke-linejoin="round"/>
<path d="M49.8982 196.553C47.4311 195.566 44.7335 195.305 42.1228 195.799C38.5091 196.501 35.1265 198.12 31.5728 199.07C34.2873 201.494 36.5053 204.422 39.0315 207.043C41.5576 209.663 44.5376 212.052 48.0657 212.943C51.5937 213.833 55.7726 212.943 57.922 209.963L62.4178 211.821L63.1456 210.597L58.0076 208.636C58.0076 208.636 57.2198 203.943 57.0228 203.498C56.3677 201.918 55.3984 200.487 54.1737 199.294C52.949 198.1 51.4944 197.167 49.8982 196.553V196.553Z" stroke="#5A2916" stroke-linecap="round" stroke-linejoin="round"/>
<path d="M57.9222 209.963C57.9222 209.963 54.8566 207.882 46.0792 204.602C41.7272 203.047 37.4647 201.252 33.3113 199.225" stroke="#5A2916" stroke-linecap="round" stroke-linejoin="round"/>
<path d="M38.6634 198.557L41.0012 202.967L37.8413 204.114" stroke="#5A2916" stroke-linecap="round" stroke-linejoin="round"/>
<path d="M45.8049 199.49L46.7726 205.287C46.7726 205.287 42.1912 207 41.8315 207.582" stroke="#5A2916" stroke-linecap="round" stroke-linejoin="round"/>
<path d="M52.6729 201.365L52.7842 207.205L46.7556 209.954" stroke="#5A2916" stroke-linecap="round" stroke-linejoin="round"/>
<path d="M256.025 148.607C258.618 149.177 261.32 148.99 263.809 148.067C267.235 146.783 270.335 144.642 273.691 143.118C270.609 141.174 267.945 138.648 265.017 136.473C262.088 134.298 258.774 132.431 255.143 132.131C251.513 131.832 247.539 133.424 245.912 136.687L241.168 135.591L240.654 136.918L246.066 138.006C246.066 138.006 247.608 142.51 247.89 142.955C248.794 144.398 249.981 145.642 251.379 146.614C252.778 147.585 254.358 148.263 256.025 148.607Z" stroke="#5A2916" stroke-linecap="round" stroke-linejoin="round"/>
<path d="M245.912 136.687C245.912 136.687 249.277 138.237 258.474 140.044C263.02 140.863 267.517 141.932 271.945 143.246" stroke="#5A2916" stroke-linecap="round" stroke-linejoin="round"/>
<path d="M266.781 144.796L263.758 140.823L266.687 139.17" stroke="#5A2916" stroke-linecap="round" stroke-linejoin="round"/>
<path d="M259.579 145.036L257.678 139.478C257.678 139.478 261.96 137.064 262.174 136.404" stroke="#5A2916" stroke-linecap="round" stroke-linejoin="round"/>
<path d="M252.506 144.317L251.435 138.571L256.933 134.871" stroke="#5A2916" stroke-linecap="round" stroke-linejoin="round"/>
<path d="M110.98 127.961C109.349 125.864 107.154 124.275 104.652 123.38C101.175 122.155 97.4503 121.83 93.8965 120.853C95.0183 124.321 95.4379 127.969 96.2943 131.506C97.1506 135.043 98.495 138.614 101.09 141.174C103.684 143.734 107.752 145.053 111.092 143.597L114.029 147.468C114.448 147.245 114.885 147.014 115.271 146.783L111.845 142.501C111.845 142.501 113.558 138.057 113.626 137.526C113.854 135.836 113.736 134.117 113.281 132.473C112.827 130.829 112.044 129.294 110.98 127.961V127.961Z" stroke="#5A2916" stroke-linecap="round" stroke-linejoin="round"/>
<path d="M111.091 143.597C111.091 143.597 109.507 140.241 103.599 132.97C100.635 129.415 97.8706 125.699 95.3179 121.838" stroke="#5A2916" stroke-linecap="round" stroke-linejoin="round"/>
<path d="M100.276 123.996L100.054 128.98L96.748 128.372" stroke="#5A2916" stroke-linecap="round" stroke-linejoin="round"/>
<path d="M105.954 128.423L103.847 133.912C103.847 133.912 99.0516 133.056 98.4265 133.39" stroke="#5A2916" stroke-linecap="round" stroke-linejoin="round"/>
<path d="M110.929 133.518L108.069 138.614L101.475 137.92" stroke="#5A2916" stroke-linecap="round" stroke-linejoin="round"/>
</g>
<defs>
<clipPath id="clip0_399_573">
<rect width="386.484" height="400" fill="white"/>
</clipPath>
</defs>
</svg>
