<svg width="710" height="710" viewBox="0 0 710 710" fill="none" xmlns="http://www.w3.org/2000/svg">
<mask id="mask0_76_3236" style="mask-type:alpha" maskUnits="userSpaceOnUse" x="0" y="0" width="710" height="710">
<rect width="710" height="710" fill="#EC5238"/>
</mask>
<g mask="url(#mask0_76_3236)">
<path d="M297.614 475.679C422.231 480.819 523.934 441.572 547.434 369.051C560.532 328.632 552.933 285.694 503.63 269.717C476.239 260.842 410.217 269.013 347.043 323.142L401.808 154.143C455.732 122.092 515.005 103.639 577.518 123.897C677.494 156.294 728.534 275.185 691.54 389.346C642.615 540.325 508.829 629.866 249.541 624.026L297.614 475.679Z" fill="#C49468"/>
<path d="M277.954 536.348C147.375 420.853 133.145 318.844 154.892 251.733C171.79 199.589 208.675 174.207 257.367 189.986C284.758 198.862 324.885 241.361 347.023 323.205L401.781 154.227C376.91 96.6201 339.74 46.9374 277.268 26.6933C177.314 -5.69721 69.1926 61.6179 29.27 174.83C-32.2204 349.209 28.974 532.034 228.203 689.875L277.954 536.348Z" fill="#C4441D"/>
</g>
</svg>
