<svg width="180" height="132" viewBox="0 0 180 132" fill="none" xmlns="http://www.w3.org/2000/svg">
<path d="M148.523 36.985V21.4609H136.397V36.985C136.395 39.6716 137.097 42.3114 138.434 44.6392C139.771 46.967 141.695 48.9008 144.012 50.2462L157.739 58.1786V44.0658L150.124 39.6373C149.658 39.3703 149.271 38.9842 149.003 38.5182C148.734 38.0523 148.594 37.5232 148.596 36.985" fill="#D3994E"/>
<path d="M157.666 52.0714L171.393 44.1147C173.714 42.7731 175.641 40.8401 176.978 38.5115C178.315 36.1828 179.015 33.541 179.008 30.8535V0H157.666V12.1662H166.809V30.7562C166.814 31.292 166.677 31.8194 166.413 32.2852C166.149 32.7509 165.767 33.1384 165.306 33.4084L157.666 37.8126V52.0714Z" fill="#EC5238"/>
<path d="M157.666 0.0244141L136.3 21.4613H157.666V0.0244141Z" fill="#59190F"/>
<path d="M102.857 67.3521H107.44L112 72.5592L116.244 67.3521H120.682V82.6815H115.589V75.1628L111.903 79.3966H111.806L107.95 75.1628V82.6571H102.857V67.3521Z" fill="#59190F"/>
<path d="M131.377 66.9627C132.473 66.8772 133.575 67.0235 134.611 67.3921C135.648 67.7607 136.595 68.3434 137.393 69.1025C138.191 69.8616 138.821 70.7802 139.242 71.799C139.664 72.8177 139.868 73.9139 139.841 75.0167C139.871 76.1215 139.67 77.2204 139.25 78.242C138.83 79.2637 138.2 80.1853 137.402 80.9471C136.604 81.7088 135.655 82.2937 134.617 82.6638C133.579 83.0338 132.475 83.1807 131.377 83.095C130.279 83.1807 129.175 83.0338 128.137 82.6638C127.099 82.2937 126.15 81.7088 125.352 80.9471C124.554 80.1853 123.924 79.2637 123.504 78.242C123.084 77.2204 122.883 76.1215 122.913 75.0167C122.886 73.9139 123.09 72.8177 123.512 71.799C123.933 70.7802 124.563 69.8616 125.361 69.1025C126.159 68.3434 127.107 67.7607 128.143 67.3921C129.179 67.0235 130.281 66.8772 131.377 66.9627ZM131.377 78.3259C131.801 78.3309 132.221 78.2469 132.61 78.0791C132.999 77.9113 133.349 77.6635 133.637 77.3517C133.925 77.0399 134.144 76.671 134.282 76.2688C134.419 75.8666 134.47 75.4401 134.433 75.0167C134.459 74.5968 134.4 74.176 134.259 73.78C134.117 73.3839 133.897 73.021 133.611 72.7135C133.324 72.4059 132.979 72.1602 132.595 71.9914C132.211 71.8226 131.796 71.7343 131.377 71.7318C130.957 71.7307 130.541 71.8167 130.155 71.9843C129.769 72.1518 129.422 72.3975 129.135 72.7058C128.849 73.0141 128.628 73.3784 128.488 73.7761C128.348 74.1737 128.291 74.596 128.321 75.0167C128.291 75.4385 128.348 75.862 128.488 76.2609C128.628 76.6598 128.848 77.0257 129.134 77.3359C129.421 77.6461 129.768 77.894 130.153 78.0643C130.539 78.2346 130.956 78.3236 131.377 78.3259Z" fill="#59190F"/>
<path d="M142.048 82.6571V67.3521H147.117V75.3574L152.549 67.3521L157.642 67.3764V82.6571H152.549V74.6761L147.117 82.6571H142.048Z" fill="#59190F"/>
<path d="M75.3546 111.272H72.8809V116.333H71.9351V110.445H75.3546V111.272Z" fill="#EC5238"/>
<path d="M75.7672 113.414C75.7132 112.59 75.9446 111.774 76.4221 111.102C76.6645 110.839 76.962 110.632 77.2932 110.498C77.6244 110.363 77.9811 110.303 78.3379 110.323C78.7291 110.314 79.1178 110.389 79.4778 110.542C79.7915 110.674 80.0667 110.883 80.278 111.151C80.4966 111.452 80.6608 111.79 80.7631 112.148C80.865 112.562 80.9139 112.987 80.9086 113.414C80.963 114.229 80.7313 115.038 80.2537 115.701C80.0113 115.964 79.7138 116.171 79.3826 116.305C79.0514 116.44 78.6947 116.499 78.3379 116.479C77.9467 116.489 77.5581 116.414 77.1981 116.26C76.8763 116.143 76.5973 115.931 76.3978 115.652C76.1702 115.365 76.0049 115.034 75.9127 114.679C75.8123 114.265 75.7634 113.84 75.7672 113.414ZM76.7373 113.414C76.7002 113.696 76.7002 113.983 76.7373 114.265C76.7813 114.515 76.8718 114.754 77.0041 114.971C77.12 115.18 77.2869 115.355 77.4891 115.482C77.7184 115.612 77.9777 115.679 78.2409 115.676C79.308 115.676 79.8415 114.922 79.8415 113.414C79.8677 113.122 79.8677 112.829 79.8415 112.538C79.7922 112.281 79.7021 112.035 79.5748 111.808C79.4425 111.61 79.2686 111.444 79.0654 111.321C78.8435 111.197 78.5915 111.138 78.3379 111.151C77.2708 111.151 76.7373 111.905 76.7373 113.414Z" fill="#EC5238"/>
<path d="M86.3896 115.968C86.1309 116.146 85.8438 116.277 85.5408 116.357C85.2111 116.406 84.876 116.406 84.5464 116.357C84.1497 116.364 83.7552 116.298 83.3823 116.163C83.0861 116.013 82.8287 115.797 82.6305 115.53C82.4081 115.246 82.2582 114.912 82.194 114.557C82.0936 114.143 82.0447 113.718 82.0485 113.292C81.9945 112.468 82.2257 111.652 82.7032 110.98C82.943 110.72 83.2366 110.515 83.5633 110.381C83.8901 110.246 84.2421 110.185 84.5949 110.201C84.9176 110.172 85.2422 110.172 85.5649 110.201C85.8082 110.265 86.0441 110.355 86.2683 110.469L86.0016 111.272L85.3953 111.029C85.1615 111.004 84.9256 111.004 84.6919 111.029C83.5763 111.029 83.0185 111.783 83.0185 113.292C82.9937 113.575 82.9937 113.86 83.0185 114.143C83.0602 114.398 83.1597 114.639 83.3095 114.849C83.4431 115.06 83.6263 115.236 83.8431 115.36C84.1062 115.493 84.3974 115.559 84.6919 115.554C84.9496 115.556 85.205 115.506 85.4437 115.408C85.6385 115.346 85.8197 115.247 85.9773 115.116L86.3896 115.968Z" fill="#EC5238"/>
<path d="M89.2513 114.362L89.5666 115.506L89.8091 114.362L90.9733 110.567H91.8949L90.1729 115.847C90.0274 116.236 89.9062 116.601 89.7607 116.966C89.6469 117.3 89.509 117.625 89.3483 117.939C89.2101 118.188 89.0296 118.41 88.8148 118.596C88.6304 118.769 88.3876 118.864 88.1357 118.864C87.9032 118.908 87.6648 118.908 87.4324 118.864L87.6022 118.061H87.8932C88.0163 118.052 88.1362 118.017 88.2449 117.959C88.3536 117.9 88.4487 117.819 88.5238 117.72C88.7911 117.372 88.9663 116.962 89.0331 116.528L86.6079 110.64H87.6749L89.2513 114.362Z" fill="#EC5238"/>
<path d="M98.0549 117.842H97.4243L97.2545 116.358H92.8406L92.6467 117.842H92.0161V115.53H92.7194C92.7194 115.53 92.865 115.287 92.962 115.068C93.0666 114.758 93.1476 114.441 93.2044 114.119C93.322 113.622 93.411 113.118 93.4712 112.61C93.4712 112.002 93.4712 111.297 93.6167 110.469H97.1575V115.53H98.0063L98.0549 117.842ZM96.2602 115.53V111.297H94.4899C94.5116 111.653 94.5116 112.011 94.4899 112.367C94.4899 112.756 94.4899 113.146 94.3201 113.535C94.2674 113.906 94.1862 114.272 94.0775 114.63C93.9872 114.938 93.8736 115.239 93.7379 115.53H96.2602Z" fill="#EC5238"/>
<path d="M99.0734 110.907C99.3953 110.711 99.7479 110.571 100.116 110.493C100.524 110.414 100.938 110.374 101.353 110.372C101.685 110.354 102.017 110.412 102.323 110.542C102.551 110.624 102.752 110.767 102.905 110.956C103.025 111.132 103.107 111.33 103.148 111.54C103.17 111.75 103.17 111.962 103.148 112.172C103.148 112.659 103.148 113.121 103.148 113.559C103.124 113.981 103.124 114.403 103.148 114.824C103.123 115.1 103.123 115.377 103.148 115.652C103.109 115.894 103.109 116.14 103.148 116.382H102.444L102.202 115.554L101.935 115.871L101.547 116.163C101.385 116.247 101.214 116.312 101.038 116.357C100.812 116.384 100.584 116.384 100.359 116.357C100.126 116.394 99.8884 116.394 99.6554 116.357C99.4531 116.273 99.2651 116.158 99.0976 116.017C98.9438 115.863 98.8205 115.681 98.734 115.481C98.6431 115.266 98.6016 115.033 98.6126 114.8C98.6084 114.497 98.6749 114.197 98.8066 113.924C98.9599 113.691 99.1681 113.498 99.4129 113.365C99.6992 113.231 100 113.133 100.31 113.073C100.706 113.046 101.103 113.046 101.499 113.073H102.153C102.164 112.862 102.164 112.651 102.153 112.44C102.175 112.276 102.163 112.109 102.117 111.949C102.071 111.79 101.993 111.642 101.887 111.515C101.622 111.319 101.292 111.232 100.965 111.272H100.529H100.068C99.91 111.306 99.7557 111.355 99.607 111.418L99.2189 111.588L99.0734 110.907ZM100.747 115.627C100.939 115.666 101.137 115.666 101.329 115.627C101.483 115.574 101.63 115.501 101.765 115.408C101.894 115.329 102.001 115.221 102.081 115.092C102.168 115.002 102.234 114.894 102.275 114.776V113.803H101.596H100.892C100.684 113.819 100.479 113.869 100.286 113.949C100.118 114.019 99.9689 114.127 99.8494 114.265C99.7481 114.406 99.6968 114.577 99.7039 114.751C99.6999 114.879 99.7238 115.007 99.7741 115.125C99.8244 115.242 99.8998 115.347 99.9949 115.433C100.203 115.614 100.471 115.71 100.747 115.7" fill="#EC5238"/>
<path d="M104.991 110.469H105.646L105.815 111.175C105.981 110.898 106.226 110.677 106.519 110.542C106.819 110.39 107.152 110.314 107.489 110.323C107.812 110.298 108.137 110.346 108.439 110.464C108.742 110.582 109.014 110.766 109.235 111.004C109.681 111.679 109.887 112.485 109.817 113.292C109.817 113.745 109.752 114.196 109.623 114.63C109.512 114.999 109.321 115.34 109.065 115.627C108.837 115.904 108.546 116.121 108.216 116.26C107.872 116.409 107.5 116.484 107.125 116.479C106.891 116.508 106.655 116.508 106.422 116.479C106.238 116.441 106.06 116.384 105.888 116.309V118.742H104.942L104.991 110.469ZM107.416 111.15C107.245 111.137 107.074 111.158 106.911 111.213C106.749 111.267 106.599 111.353 106.47 111.467C106.21 111.712 106.04 112.037 105.985 112.391V115.335C106.137 115.436 106.299 115.518 106.47 115.579C106.703 115.611 106.94 115.611 107.174 115.579C107.42 115.584 107.664 115.531 107.887 115.426C108.11 115.32 108.306 115.164 108.459 114.97C108.814 114.44 108.985 113.807 108.944 113.17C108.982 112.879 108.982 112.585 108.944 112.294C108.916 112.055 108.823 111.828 108.677 111.637C108.568 111.45 108.408 111.298 108.216 111.199C107.996 111.097 107.756 111.047 107.513 111.053" fill="#EC5238"/>
<path d="M115.347 115.968C115.088 116.146 114.801 116.277 114.498 116.357C114.168 116.406 113.833 116.406 113.503 116.357C113.107 116.364 112.712 116.298 112.339 116.163C112.043 116.013 111.786 115.797 111.588 115.53C111.385 115.235 111.237 114.905 111.151 114.557C111.051 114.143 111.002 113.718 111.005 113.292C110.952 112.468 111.183 111.652 111.66 110.98C111.9 110.72 112.193 110.515 112.52 110.381C112.847 110.246 113.199 110.185 113.552 110.201C113.875 110.172 114.199 110.172 114.522 110.201C114.765 110.265 115.001 110.355 115.225 110.469L114.958 111.272L114.352 111.029C114.118 111.002 113.883 111.002 113.649 111.029C112.533 111.029 112 111.783 112 113.292C111.975 113.575 111.975 113.86 112 114.143C112.052 114.395 112.15 114.634 112.291 114.849C112.424 115.06 112.608 115.236 112.824 115.36C113.087 115.493 113.379 115.559 113.673 115.554C113.931 115.558 114.187 115.508 114.425 115.408C114.62 115.346 114.801 115.247 114.958 115.116L115.347 115.968Z" fill="#EC5238"/>
<path d="M120.173 111.272H118.329V116.333H117.408V111.272H115.565V110.445H120.173V111.272Z" fill="#EC5238"/>
<path d="M121.118 110.469H121.967H123.083C123.664 110.422 124.246 110.549 124.756 110.834C124.925 110.959 125.06 111.125 125.149 111.316C125.238 111.508 125.278 111.718 125.265 111.929C125.265 112.215 125.18 112.494 125.023 112.732C124.832 113.014 124.549 113.221 124.223 113.316C124.597 113.344 124.945 113.519 125.193 113.802C125.399 114.064 125.503 114.393 125.484 114.727C125.507 114.989 125.459 115.252 125.343 115.488C125.228 115.724 125.05 115.924 124.829 116.065C124.222 116.376 123.544 116.519 122.864 116.479H121.943H121.118V110.469ZM123.204 112.902C123.34 112.925 123.48 112.925 123.616 112.902L123.956 112.707C124.068 112.635 124.16 112.534 124.223 112.415C124.255 112.304 124.255 112.186 124.223 112.075C124.235 111.952 124.218 111.827 124.171 111.713C124.124 111.598 124.051 111.497 123.956 111.418C123.647 111.268 123.304 111.201 122.962 111.223H121.943V112.926L123.204 112.902ZM122.04 115.506H122.476H122.986C123.394 115.534 123.803 115.459 124.174 115.287C124.298 115.201 124.397 115.084 124.461 114.947C124.525 114.81 124.551 114.659 124.538 114.508C124.543 114.378 124.517 114.248 124.462 114.129C124.407 114.011 124.325 113.907 124.223 113.827C123.88 113.62 123.481 113.527 123.083 113.559H122.04V115.506Z" fill="#EC5238"/>
<path d="M131.256 115.871C130.987 116.077 130.683 116.234 130.358 116.333C129.987 116.432 129.603 116.481 129.218 116.479C128.827 116.488 128.439 116.414 128.079 116.26C127.753 116.137 127.468 115.926 127.254 115.652C127.034 115.363 126.877 115.032 126.793 114.678C126.684 114.265 126.628 113.84 126.624 113.413C126.573 112.586 126.813 111.768 127.303 111.101C127.545 110.838 127.843 110.632 128.174 110.497C128.505 110.362 128.862 110.303 129.218 110.323C129.485 110.299 129.753 110.299 130.019 110.323C130.276 110.381 130.517 110.497 130.722 110.663C130.95 110.856 131.133 111.097 131.256 111.369C131.393 111.751 131.459 112.155 131.45 112.561C131.472 112.853 131.472 113.146 131.45 113.437H127.691C127.651 113.736 127.651 114.039 127.691 114.338C127.746 114.585 127.854 114.817 128.006 115.019C128.16 115.206 128.361 115.349 128.588 115.433C128.87 115.558 129.177 115.617 129.485 115.603C129.751 115.601 130.014 115.552 130.261 115.457C130.484 115.385 130.69 115.269 130.868 115.116L131.256 115.871ZM129.218 111.15C128.822 111.127 128.431 111.258 128.127 111.515C127.964 111.677 127.835 111.871 127.748 112.084C127.66 112.297 127.616 112.525 127.618 112.756H130.528C130.566 112.307 130.446 111.86 130.189 111.491C129.922 111.254 129.574 111.132 129.218 111.15Z" fill="#EC5238"/>
<path d="M136.519 113.73H133.851V116.333H132.929V110.445H133.851V112.902H136.519V110.445H137.44V116.333H136.519V113.73Z" fill="#EC5238"/>
<path d="M142.848 113.73H140.205V116.333H139.259V110.445H140.205V112.902H142.848V110.445H143.794V116.333H142.848V113.73Z" fill="#EC5238"/>
<path d="M146.559 112.708H147.116H147.602C147.937 112.705 148.271 112.745 148.596 112.829C148.84 112.909 149.064 113.042 149.251 113.219C149.421 113.364 149.54 113.56 149.59 113.778C149.629 114.004 149.629 114.234 149.59 114.46C149.609 114.748 149.565 115.037 149.46 115.306C149.355 115.575 149.193 115.818 148.984 116.017C148.416 116.386 147.743 116.557 147.068 116.504H145.516V110.469H146.437L146.559 112.708ZM146.559 115.53H147.407C147.772 115.567 148.136 115.463 148.426 115.238C148.529 115.128 148.608 114.998 148.658 114.855C148.708 114.713 148.728 114.562 148.717 114.411C148.721 114.128 148.627 113.853 148.45 113.632C148.161 113.408 147.796 113.303 147.432 113.34H146.995C146.851 113.317 146.703 113.317 146.559 113.34V115.53ZM150.633 110.469H151.579V116.358H150.633V110.469Z" fill="#EC5238"/>
<path d="M157.642 115.871C157.373 116.077 157.069 116.234 156.745 116.333C156.381 116.432 156.006 116.482 155.629 116.479C155.23 116.491 154.833 116.416 154.465 116.26C154.14 116.137 153.854 115.926 153.64 115.652C153.42 115.363 153.263 115.032 153.18 114.678C153.079 114.264 153.03 113.839 153.034 113.413C152.976 112.589 153.208 111.771 153.689 111.101C153.931 110.838 154.229 110.632 154.56 110.497C154.891 110.362 155.248 110.303 155.605 110.323C155.871 110.299 156.139 110.299 156.405 110.323C156.663 110.381 156.903 110.497 157.108 110.663C157.337 110.856 157.519 111.097 157.642 111.369C157.779 111.751 157.845 112.155 157.836 112.561C157.858 112.853 157.858 113.146 157.836 113.437H154.077C154.037 113.736 154.037 114.039 154.077 114.338C154.14 114.586 154.256 114.819 154.417 115.019C154.56 115.217 154.765 115.362 154.999 115.433C155.272 115.559 155.571 115.617 155.872 115.603C156.145 115.6 156.415 115.55 156.672 115.457C156.885 115.38 157.082 115.265 157.254 115.116L157.642 115.871ZM155.629 111.15C155.224 111.123 154.825 111.254 154.514 111.515C154.195 111.85 154.013 112.293 154.004 112.756H156.915C156.964 112.306 156.843 111.855 156.575 111.491C156.448 111.373 156.299 111.282 156.137 111.224C155.974 111.165 155.802 111.14 155.629 111.15Z" fill="#EC5238"/>
<path d="M35.7756 125.093L35.7998 124.363H35.7756L35.2906 125.117L32.6471 128.573H32.1135V122.684H33.0594V126.285L33.0108 126.967H33.0594L33.5202 126.261L36.1636 122.684H36.7214V128.573H35.7756V125.093Z" fill="#EC5238"/>
<path d="M46.4951 125.093L46.5679 123.974H46.5194L46.0828 124.874L44.6762 127.186H44.3367L42.8573 124.874L42.4692 123.974H42.445L42.5178 125.069V128.573H41.6689V122.684H42.5905L44.2154 125.336L44.5792 126.018H44.6034L44.943 125.312L46.4709 122.684H47.4167V128.573H46.4951V125.093Z" fill="#EC5238"/>
<path d="M50.9576 126.528L51.297 127.648L51.5639 126.504L52.7036 122.708H53.6495L51.9761 127.988C51.9761 128.378 51.7094 128.743 51.5881 129.108C51.4769 129.447 51.3305 129.773 51.1515 130.081C51.023 130.336 50.8507 130.567 50.6423 130.762C50.4531 130.924 50.2115 131.01 49.9632 131.006C49.7307 131.049 49.4923 131.049 49.2599 131.006L49.4297 130.203H49.7207C49.845 130.199 49.9667 130.166 50.0761 130.107C50.1856 130.048 50.2798 129.964 50.3513 129.862C50.5989 129.503 50.772 129.097 50.8605 128.67L48.4353 122.781H49.5024L50.9576 126.528Z" fill="#EC5238"/>
<path d="M58.2814 125.969H55.638V128.573H54.6921V122.684H55.638V125.142H58.2814V122.684H59.2273V128.573H58.2814V125.969Z" fill="#EC5238"/>
<path d="M64.7082 125.093L64.7325 124.363H64.7082L64.2232 125.117L61.5797 128.573H61.0461V122.684H61.9677V126.285L61.9435 126.967H61.992L62.4528 126.261L65.0962 122.684H65.6298V128.573H64.7082V125.093Z" fill="#EC5238"/>
<path d="M72.7114 130.081H72.0809L71.9111 128.572H67.4487V122.684H68.3703V127.745H70.941V122.684H71.8626V127.745H72.7114V130.081Z" fill="#EC5238"/>
<path d="M77.5376 125.093L77.5618 124.363H77.5376L77.0525 125.117L74.409 128.573H73.8755V122.684H74.8213V126.285L74.7728 126.967H74.8213L75.2821 126.261L77.9256 122.684H78.4834V128.573H77.5376V125.093Z" fill="#EC5238"/>
<path d="M83.8188 123.511H81.2239V128.573H80.2781V122.684H84.7646V128.573H83.8188V123.511Z" fill="#EC5238"/>
<path d="M86.4866 123.146C86.8065 122.947 87.1598 122.807 87.5294 122.733C87.937 122.654 88.3511 122.613 88.7662 122.611C89.0983 122.593 89.4302 122.651 89.7364 122.781C89.9578 122.863 90.1513 123.007 90.2941 123.195C90.4225 123.369 90.5133 123.568 90.5608 123.779C90.5833 123.989 90.5833 124.201 90.5608 124.412C90.5608 124.898 90.5608 125.361 90.5608 125.799C90.5608 126.237 90.5608 126.675 90.5608 127.064C90.5608 127.453 90.5608 127.648 90.5608 127.891C90.5812 128.139 90.63 128.384 90.7063 128.621H90.0031L89.7606 127.794C89.6942 127.917 89.6033 128.024 89.4938 128.11C89.3886 128.226 89.2659 128.325 89.1301 128.402C88.9611 128.489 88.7818 128.555 88.5965 128.597C88.3799 128.636 88.1583 128.636 87.9418 128.597C87.7024 128.594 87.4649 128.553 87.2384 128.475C87.0317 128.4 86.8421 128.284 86.6806 128.135C86.5326 127.985 86.4097 127.813 86.3168 127.624C86.2172 127.402 86.1675 127.161 86.1713 126.918C86.1629 126.611 86.2385 126.309 86.3896 126.042C86.5344 125.816 86.7349 125.632 86.9716 125.507C87.2591 125.355 87.5712 125.256 87.8932 125.215C88.2884 125.176 88.6864 125.176 89.0815 125.215H89.7121C89.7121 124.971 89.7121 124.777 89.7121 124.582C89.7442 124.258 89.6484 123.935 89.4454 123.682C89.3187 123.575 89.1714 123.497 89.0127 123.45C88.854 123.404 88.6875 123.392 88.5238 123.414H88.0873H87.6265L87.1657 123.56C87.0286 123.597 86.8978 123.655 86.7776 123.73L86.4866 123.146ZM88.1599 127.867C88.352 127.906 88.5499 127.906 88.742 127.867C88.9005 127.824 89.049 127.749 89.1786 127.648C89.2945 127.563 89.4002 127.465 89.4938 127.356C89.564 127.258 89.6211 127.152 89.6635 127.04V126.042H89.0088H88.3054C88.0897 126.062 87.8776 126.111 87.6749 126.188C87.5194 126.267 87.3797 126.375 87.2626 126.504C87.1526 126.642 87.0927 126.814 87.0929 126.991C87.0934 127.121 87.1219 127.249 87.1763 127.366C87.2308 127.484 87.3098 127.588 87.4081 127.672C87.6161 127.853 87.8847 127.949 88.1599 127.94" fill="#EC5238"/>
<path d="M95.6296 123.536H93.9076C93.9076 123.852 93.9076 124.217 93.9076 124.582C93.9076 124.947 93.9076 125.36 93.9076 125.725C93.9076 126.09 93.7865 126.48 93.7137 126.82C93.6492 127.146 93.5517 127.464 93.4227 127.769C93.3116 128.002 93.1641 128.216 92.9861 128.402C92.8096 128.553 92.5873 128.639 92.3556 128.645H91.9675H91.6765L91.822 127.867H92.113C92.1951 127.866 92.2762 127.848 92.3512 127.814C92.4262 127.781 92.4937 127.732 92.5495 127.672C92.7178 127.443 92.8262 127.175 92.8648 126.893C92.9806 126.389 93.0617 125.876 93.1074 125.36C93.1074 124.704 93.1074 123.828 93.1074 122.781H96.6238V128.67H95.6296V123.536Z" fill="#EC5238"/>
<path d="M99.243 124.947H99.7766H100.286C100.624 124.904 100.966 124.904 101.305 124.947C101.558 125.021 101.791 125.154 101.984 125.336C102.168 125.478 102.303 125.673 102.372 125.896C102.449 126.115 102.49 126.345 102.493 126.577C102.516 126.868 102.471 127.16 102.361 127.431C102.252 127.701 102.081 127.942 101.862 128.134C101.266 128.499 100.571 128.67 99.8736 128.621H98.2971V122.708H99.243V124.947ZM99.243 127.769H100.068C100.455 127.806 100.842 127.703 101.159 127.477C101.28 127.378 101.376 127.251 101.44 127.107C101.503 126.964 101.531 126.807 101.523 126.65C101.524 126.504 101.494 126.359 101.435 126.225C101.377 126.091 101.291 125.97 101.183 125.871C100.872 125.654 100.495 125.551 100.116 125.579H99.6795H99.243V127.769Z" fill="#EC5238"/>
<path d="M107.343 125.969H104.676V128.573H103.73V122.684H104.676V125.142H107.343V122.684H108.265V128.573H107.343V125.969Z" fill="#EC5238"/>
<path d="M111.029 124.947H111.563H112.048C112.393 124.937 112.738 124.986 113.067 125.093C113.313 125.154 113.539 125.28 113.722 125.458C113.876 125.616 113.992 125.807 114.061 126.017C114.098 126.243 114.098 126.473 114.061 126.699C114.086 126.986 114.047 127.274 113.947 127.544C113.846 127.813 113.686 128.057 113.479 128.256C112.909 128.622 112.237 128.792 111.563 128.743H109.987V122.708H110.932L111.029 124.947ZM111.029 127.769H111.854C112.226 127.81 112.6 127.706 112.897 127.477C113 127.367 113.078 127.237 113.129 127.094C113.179 126.952 113.199 126.801 113.188 126.65C113.197 126.362 113.092 126.083 112.897 125.871C112.616 125.648 112.259 125.544 111.903 125.579H111.466H111.029V127.769ZM115.031 122.708H115.977V128.597H115.031V122.708Z" fill="#EC5238"/>
<path d="M122.113 128.11C121.849 128.312 121.554 128.468 121.24 128.573C120.869 128.679 120.486 128.736 120.1 128.743C119.701 128.753 119.304 128.678 118.936 128.524C118.616 128.39 118.34 128.172 118.136 127.891C117.903 127.608 117.737 127.275 117.651 126.918C117.549 126.504 117.5 126.079 117.505 125.653C117.451 124.829 117.682 124.013 118.16 123.341C118.402 123.078 118.7 122.871 119.031 122.737C119.362 122.602 119.719 122.543 120.076 122.562C120.341 122.527 120.61 122.527 120.876 122.562C121.137 122.617 121.385 122.725 121.603 122.879C121.831 123.066 122.007 123.309 122.113 123.584C122.262 123.963 122.328 124.37 122.307 124.777C122.329 125.068 122.329 125.361 122.307 125.653H118.548C118.52 125.952 118.52 126.254 118.548 126.553C118.611 126.802 118.727 127.034 118.887 127.234C119.037 127.432 119.239 127.583 119.469 127.672C119.749 127.774 120.045 127.824 120.342 127.818C120.615 127.815 120.886 127.766 121.143 127.672C121.367 127.605 121.574 127.488 121.749 127.332L122.113 128.11ZM120.1 123.39C119.696 123.372 119.3 123.502 118.984 123.755C118.672 124.092 118.499 124.536 118.499 124.996H121.409C121.453 124.55 121.322 124.106 121.046 123.755C120.924 123.629 120.776 123.531 120.613 123.468C120.449 123.405 120.274 123.379 120.1 123.39Z" fill="#EC5238"/>
<path d="M128.661 126.528L129 127.647L129.267 126.504L130.407 122.708H131.353L129.582 127.988C129.437 128.377 129.316 128.742 129.194 129.107C129.073 129.442 128.927 129.767 128.758 130.081C128.62 130.337 128.439 130.567 128.224 130.762C128.037 130.928 127.794 131.015 127.545 131.005C127.321 131.049 127.09 131.049 126.866 131.005L127.012 130.202H127.327C127.451 130.197 127.572 130.163 127.681 130.104C127.79 130.045 127.885 129.962 127.957 129.862C128.206 129.505 128.371 129.098 128.443 128.669L126.017 122.781H127.109L128.661 126.528Z" fill="#EC5238"/>
<path d="M136.324 128.208C136.075 128.385 135.795 128.517 135.5 128.597C135.169 128.697 134.826 128.746 134.481 128.743C134.09 128.752 133.701 128.678 133.341 128.524C133.033 128.383 132.766 128.165 132.565 127.891C132.362 127.596 132.214 127.266 132.129 126.918C132.089 126.497 132.089 126.074 132.129 125.653C132.074 124.837 132.306 124.028 132.784 123.365C133.021 123.101 133.314 122.892 133.64 122.753C133.967 122.614 134.32 122.549 134.675 122.563C134.989 122.521 135.307 122.521 135.621 122.563C135.872 122.614 136.117 122.696 136.349 122.806L136.058 123.609C135.876 123.507 135.679 123.433 135.476 123.39C135.243 123.353 135.005 123.353 134.772 123.39C133.657 123.39 133.099 124.144 133.099 125.653C133.062 125.935 133.062 126.222 133.099 126.504C133.141 126.759 133.24 127 133.39 127.21C133.517 127.426 133.702 127.603 133.923 127.721C134.177 127.857 134.461 127.924 134.748 127.916C135.006 127.921 135.262 127.871 135.5 127.77C135.702 127.707 135.891 127.609 136.058 127.478L136.324 128.208Z" fill="#EC5238"/>
<path d="M140.496 123.536H138.774C138.774 123.852 138.774 124.217 138.774 124.582C138.774 124.947 138.774 125.36 138.774 125.725C138.774 126.09 138.653 126.48 138.58 126.82C138.515 127.146 138.418 127.464 138.289 127.769C138.178 128.008 138.021 128.223 137.828 128.402C137.664 128.557 137.447 128.644 137.222 128.645H136.834H136.543L136.688 127.867H136.979C137.144 127.859 137.3 127.79 137.416 127.672C137.574 127.438 137.682 127.172 137.731 126.893C137.847 126.389 137.928 125.876 137.974 125.36C137.974 124.704 137.974 123.828 138.095 122.781H141.587V128.67H140.666L140.496 123.536Z" fill="#EC5238"/>
<path d="M144.958 126.528L145.298 127.647L145.565 126.504L146.704 122.708H147.65L145.904 127.988C145.904 128.377 145.637 128.742 145.516 129.107C145.405 129.446 145.258 129.772 145.079 130.081C144.951 130.336 144.778 130.567 144.57 130.762C144.379 130.92 144.139 131.006 143.891 131.005C143.659 131.051 143.42 131.051 143.188 131.005L143.358 130.202H143.649C143.773 130.199 143.894 130.166 144.004 130.107C144.113 130.048 144.208 129.964 144.279 129.862C144.527 129.503 144.7 129.097 144.788 128.669L142.363 122.781H143.454L144.958 126.528Z" fill="#EC5238"/>
<path d="M152.112 123.511H149.639V128.573H148.693V122.684H152.112V123.511Z" fill="#EC5238"/>
<path d="M156.696 125.093L156.72 124.363H156.696L156.211 125.117L153.568 128.573H153.034V122.684H153.956V126.285L153.931 126.967H153.98L154.441 126.261L157.084 122.684H157.618V128.573H156.696V125.093Z" fill="#EC5238"/>
<path d="M25.5169 85.3823C26.5867 85.3242 27.6567 85.4903 28.659 85.87C29.6612 86.2498 30.5735 86.8349 31.3379 87.5881C32.1022 88.3413 32.7019 89.2459 33.0984 90.2445C33.495 91.243 33.6799 92.3135 33.6412 93.3877C33.6799 94.4619 33.495 95.5324 33.0984 96.5309C32.7019 97.5294 32.1022 98.4341 31.3379 99.1873C30.5735 99.9405 29.6612 100.526 28.659 100.905C27.6567 101.285 26.5867 101.451 25.5169 101.393C24.4451 101.455 23.3723 101.291 22.3671 100.913C21.362 100.535 20.4466 99.9503 19.6796 99.1967C18.9126 98.4432 18.3108 97.5373 17.9128 96.537C17.5148 95.5367 17.3292 94.464 17.3681 93.3877C17.3292 92.3113 17.5148 91.2387 17.9128 90.2384C18.3108 89.2381 18.9126 88.3322 19.6796 87.5787C20.4466 86.8251 21.362 86.2405 22.3671 85.8623C23.3723 85.4841 24.4451 85.3207 25.5169 85.3823ZM25.5169 98.8382C26.2264 98.8564 26.9319 98.7264 27.5886 98.4563C28.2453 98.1863 28.8388 97.7821 29.3314 97.2695C29.8241 96.7569 30.2051 96.1471 30.4502 95.4788C30.6953 94.8105 30.7992 94.0984 30.7553 93.3877C30.7955 92.6778 30.6891 91.9673 30.4426 91.3007C30.1962 90.6341 29.815 90.0258 29.3231 89.5139C28.8312 89.0021 28.2392 88.5979 27.5842 88.3265C26.9291 88.0552 26.2254 87.9227 25.5169 87.9372C24.8074 87.9229 24.1024 88.0554 23.4462 88.3265C22.79 88.5976 22.1964 89.0014 21.7026 89.5128C21.2089 90.0242 20.8254 90.6322 20.5762 91.2989C20.327 91.9656 20.2173 92.6766 20.2541 93.3877C20.2173 94.0988 20.327 94.8098 20.5762 95.4765C20.8254 96.1432 21.2089 96.7512 21.7026 97.2626C22.1964 97.774 22.79 98.1778 23.4462 98.4489C24.1024 98.72 24.8074 98.8525 25.5169 98.8382Z" fill="#59190F"/>
<path d="M36.8669 85.7234H39.5832V101.028H36.8669V85.7234ZM43.2694 92.8528L46.6647 96.4783C47.659 97.5976 49.09 99.0332 50.5208 98.4979V100.931C49.3265 101.134 48.099 100.962 47.0054 100.439C45.9119 99.9169 45.0054 99.0691 44.4093 98.0113L40.1895 92.9501L47.0043 85.6504H50.2539L43.2694 92.8528Z" fill="#59190F"/>
<path d="M59.6883 108.109C57.6029 108.171 55.5534 107.557 53.8436 106.357L55.1046 104.167C56.3896 105.095 57.9353 105.589 59.5185 105.579C60.1146 105.652 60.7196 105.589 61.2881 105.395C61.8566 105.2 62.3738 104.879 62.8009 104.455C63.2279 104.031 63.5537 103.516 63.7538 102.948C63.954 102.38 64.0234 101.773 63.9566 101.174V98.8629C63.2876 99.6345 62.46 100.252 61.5305 100.672C60.6011 101.092 59.5919 101.305 58.5726 101.296C55.1773 101.296 52.9463 99.2522 52.9463 94.7507V85.6504H55.6382V94.1424C55.6382 97.038 56.8023 98.7412 59.5913 98.7412C60.4406 98.7 61.2709 98.4742 62.0246 98.0792C62.7784 97.6843 63.4376 97.1298 63.9566 96.454V85.6504H66.6728V100.785C66.7915 101.747 66.6949 102.723 66.3901 103.643C66.0854 104.563 65.5802 105.403 64.9112 106.102C64.2422 106.801 63.4262 107.342 62.5227 107.685C61.6193 108.028 60.651 108.165 59.6883 108.085" fill="#59190F"/>
<path d="M70.8926 85.7229H73.3663L79.2353 93.3146L84.7891 85.7229H87.2143V101.028H84.498V89.8594L79.2111 96.9888H79.0898L73.6088 89.8594V101.028H70.8926V85.7229Z" fill="#59190F"/>
<path d="M104.336 99.3734C102.733 100.715 100.7 101.432 98.6126 101.393C97.5344 101.478 96.4507 101.33 95.4338 100.961C94.417 100.591 93.4906 100.008 92.7167 99.2499C91.9429 98.4919 91.3394 97.5767 90.9467 96.5657C90.554 95.5546 90.3811 94.4711 90.4397 93.3876C90.3699 92.3286 90.5243 91.2667 90.8928 90.2719C91.2613 89.2771 91.8356 88.3718 92.5779 87.6156C93.3201 86.8594 94.2136 86.2694 95.1994 85.8845C96.1851 85.4996 97.2409 85.3284 98.2973 85.3822C99.2312 85.3516 100.162 85.514 101.03 85.8593C101.899 86.2046 102.688 86.7255 103.347 87.3895C104.007 88.0536 104.523 88.8467 104.864 89.7194C105.206 90.5922 105.364 91.5261 105.33 92.463C105.347 93.084 105.29 93.7047 105.161 94.3122H93.4469C93.4799 94.9693 93.6455 95.6129 93.9335 96.204C94.2214 96.7951 94.6258 97.3215 95.1222 97.7514C95.6187 98.1812 96.1969 98.5056 96.8218 98.705C97.4468 98.9043 98.1054 98.9744 98.7581 98.9111C100.461 98.9621 102.124 98.3914 103.439 97.3051L104.336 99.3734ZM93.3257 92.0736H102.566C102.58 91.4927 102.47 90.9154 102.243 90.3808C102.015 89.8462 101.677 89.3667 101.249 88.9747C100.822 88.5826 100.315 88.2871 99.7642 88.1081C99.2132 87.9292 98.6303 87.8708 98.0549 87.9371C96.876 87.855 95.7113 88.2354 94.8065 88.9979C93.9017 89.7605 93.3273 90.8458 93.2045 92.025" fill="#59190F"/>
<path d="M119.591 94.5556H111.102V101.028H108.41V85.7229H111.102V92.025H119.591V85.7229H122.283V101.028H119.591V94.5556Z" fill="#59190F"/>
<path d="M124.611 85.7229H138.507V88.4481H132.905V101.028H130.189V88.4481H124.611V85.7229Z" fill="#59190F"/>
<path d="M140.787 85.7476H143.503V90.3221H145.928C150.609 90.3221 151.967 92.877 151.967 95.6022C151.967 98.3274 150.415 101.053 145.637 101.053H140.787V85.7476ZM143.503 92.877V98.4978H145.467C148.184 98.4978 149.154 97.5001 149.154 95.6995C149.154 93.8989 148.111 92.877 145.492 92.877H143.503ZM154.95 85.7476H157.666V101.053H154.95V85.7476Z" fill="#59190F"/>
<path d="M0.0281642 93.6555C-0.0589069 94.6321 0.0564269 95.6163 0.366989 96.5461C0.677552 97.4759 1.17664 98.3311 1.83272 99.0579C2.4888 99.7847 3.28768 100.367 4.17918 100.769C5.07068 101.171 6.03548 101.384 7.01279 101.393C8.10319 101.4 9.18382 101.188 10.1916 100.77C11.1994 100.352 12.114 99.7368 12.8818 98.9599V101.271C12.9485 101.87 12.8791 102.477 12.679 103.045C12.4788 103.613 12.153 104.128 11.726 104.552C11.2989 104.976 10.7817 105.297 10.2132 105.492C9.64472 105.686 9.03974 105.749 8.44358 105.676C6.8604 105.686 5.31472 105.192 4.02968 104.264L2.76867 106.454C4.47847 107.654 6.52803 108.268 8.61336 108.206C9.5761 108.286 10.5444 108.149 11.4479 107.806C12.3513 107.463 13.1674 106.922 13.8364 106.223C14.5054 105.524 15.0105 104.684 15.3153 103.764C15.62 102.845 15.7166 101.868 15.598 100.907V85.7474H12.8818V87.256C11.5698 86.0243 9.82749 85.36 8.03134 85.4068C6.95072 85.3575 5.87213 85.5406 4.86778 85.9437C3.86343 86.3468 2.95646 86.9606 2.20781 87.744C1.45916 88.5274 0.886055 89.4622 0.526854 90.486C0.167654 91.5097 0.0306947 92.5986 0.125119 93.6798L0.0281642 93.6555ZM3.05968 93.3391C3.05507 92.6001 3.20654 91.8685 3.50419 91.1925C3.80185 90.5164 4.23889 89.9114 4.78652 89.4171C5.33415 88.9228 5.97995 88.5506 6.68137 88.3249C7.38278 88.0992 8.12383 88.0251 8.85583 88.1077C10.4133 88.1376 11.8956 88.785 12.9787 89.9083V96.5753C12.3627 97.2614 11.6164 97.8171 10.7835 98.2098C9.95062 98.6026 9.04783 98.8245 8.12829 98.8626C7.42319 98.869 6.7246 98.7269 6.07758 98.4457C5.43056 98.1644 4.84952 97.7502 4.37191 97.2298C3.89429 96.7093 3.53069 96.0941 3.30466 95.424C3.07863 94.7539 2.99524 94.0436 3.05968 93.3391Z" fill="#59190F"/>
</svg>
