<svg width="195" height="82" viewBox="0 0 195 82" fill="none" xmlns="http://www.w3.org/2000/svg">
<path d="M39.3205 48.7383L31.3884 56.7251L12.578 62.4665L0 75.1146V79.4918H39.3205V58.061L34.9579 62.4665V75.1146H6.1757L14.901 66.3604L33.7114 60.619L39.3205 54.9629V48.7383Z" fill="#368F42"/>
<path d="M27.9039 50.8987L9.12182 56.5833L4.39095 61.3299V5.08116C7.13959 5.403 9.77752 6.35477 12.101 7.86289C14.4245 9.37101 16.3712 11.3951 17.7905 13.7785L19.6603 16.8766L21.5583 13.7785C22.9804 11.3915 24.9315 9.36527 27.2602 7.85696C29.5889 6.34865 32.2325 5.39883 34.9861 5.08116V40.7234L39.3771 36.3178V0.448242H37.1959C33.8249 0.471558 30.5016 1.24909 27.468 2.72418C24.4345 4.19927 21.7671 6.33477 19.6603 8.97508C17.5718 6.32839 14.9159 4.18755 11.89 2.71142C8.86416 1.23528 5.54579 0.461755 2.18121 0.448242H0V71.9032L11.3316 60.5341L30.1136 54.8495L39.2355 45.6974V39.5012L27.9039 50.8987Z" fill="#EC5238"/>
<path d="M57.7627 6.70109H53.145V11.1635H51.502V0.902832H53.145V5.2231H57.7627V0.902832H59.4341V11.1635H57.7627V6.70109Z" fill="black"/>
<path d="M61.9553 0.902832H63.5701V6.72952L63.4001 8.86123H63.4567L64.4766 6.9569L68.386 0.902832H69.8874V11.1635H68.2727V5.33679L68.4426 3.20508H68.386L67.3661 5.10941L63.4567 11.1635H61.9553V0.902832Z" fill="black"/>
<path d="M72.4087 0.902832H74.0235V6.72952L73.8535 8.86123H73.9101L74.93 6.9569L78.8677 0.902832H80.3691V11.1635H78.7544V5.33679L78.896 3.20508H78.8677L77.8478 5.10941L73.9101 11.1635H72.4087V0.902832Z" fill="black"/>
<path d="M55.468 26.9096C55.8351 26.9011 56.1985 26.834 56.5446 26.7107C56.8571 26.5718 57.1371 26.3684 57.3662 26.1138C57.607 25.8302 57.7899 25.5018 57.9045 25.1474C58.0481 24.7369 58.1151 24.3033 58.1026 23.8684V22.2483C58.1129 21.8228 58.0459 21.399 57.9045 20.9977C57.8011 20.6385 57.6169 20.3079 57.3662 20.0313C57.1371 19.7767 56.8571 19.5734 56.5446 19.4344C56.202 19.2985 55.8364 19.231 55.468 19.2355C55.0902 19.2272 54.7147 19.2949 54.3633 19.4344C54.0508 19.5734 53.7708 19.7767 53.5417 20.0313C53.3009 20.3149 53.118 20.6433 53.0034 20.9977C52.8857 21.4039 52.8284 21.8253 52.8335 22.2483V23.8684C52.8264 24.3009 52.8837 24.7319 53.0034 25.1474C53.1314 25.4958 53.3131 25.8219 53.5417 26.1138C53.7708 26.3684 54.0508 26.5718 54.3633 26.7107C54.7185 26.8365 55.0915 26.9037 55.468 26.9096ZM55.468 28.3876C54.845 28.3892 54.2282 28.2635 53.6551 28.0181C53.1227 27.7974 52.6477 27.4571 52.2669 27.0233C51.8439 26.5391 51.5343 25.9662 51.3605 25.3464C51.1461 24.6079 51.0409 23.8417 51.0487 23.0726C51.041 22.2941 51.1461 21.5186 51.3605 20.7703C51.5407 20.1617 51.8498 19.5993 52.2669 19.1218C52.6386 18.6713 53.1155 18.3198 53.6551 18.0986C54.2302 17.8629 54.8469 17.7469 55.468 17.7575C56.0887 17.7522 56.7045 17.868 57.2811 18.0986C57.8164 18.3275 58.2915 18.6778 58.6692 19.1218C59.0667 19.6083 59.3651 20.1684 59.5474 20.7703C59.7755 21.5156 59.8809 22.2932 59.8592 23.0726C59.8808 23.8426 59.7754 24.6108 59.5474 25.3464C59.3714 25.9595 59.0726 26.5301 58.6692 27.0233C58.2827 27.4507 57.8094 27.7899 57.2811 28.0181C56.7063 28.2577 56.0905 28.3832 55.468 28.3876Z" fill="black"/>
<path d="M63.5983 22.6464H66.2331C66.4084 22.6592 66.5843 22.6355 66.7501 22.5768C66.9158 22.5181 67.0677 22.4257 67.1962 22.3053C67.3271 22.1893 67.4287 22.0438 67.4927 21.8807C67.5567 21.7177 67.5814 21.5417 67.5645 21.3673V20.6852C67.5814 20.5108 67.5567 20.3348 67.4927 20.1718C67.4287 20.0087 67.3271 19.8632 67.1962 19.7472C67.0677 19.6268 66.9158 19.5344 66.7501 19.4757C66.5843 19.417 66.4084 19.3933 66.2331 19.4061H63.5983V22.6464ZM61.927 28.1888V17.9282H66.318C66.7258 17.902 67.1345 17.9646 67.5159 18.1118C67.8973 18.259 68.2425 18.4872 68.5277 18.7808C69.0642 19.4009 69.3385 20.2064 69.2925 21.0263C69.3326 21.8452 69.059 22.6486 68.5277 23.2717C68.2425 23.5653 67.8973 23.7935 67.5159 23.9407C67.1345 24.0879 66.7258 24.1505 66.318 24.1243H63.4851V28.1888H61.927Z" fill="black"/>
<path d="M71.1055 17.9282H76.8846V19.4062H72.7769V28.1889H71.1055V17.9282Z" fill="black"/>
<path d="M80.9074 19.463L79.4059 23.9823H82.4371L80.9074 19.463ZM83.7403 28.1889L82.8054 25.3466H78.9811L78.1027 28.1889H76.4031L79.8875 17.9282H81.984L85.4684 28.1889H83.7403Z" fill="black"/>
<path d="M93.287 23.7265H88.6694V28.1889H86.998V17.9282H88.6694V22.2485H93.287V17.9282H94.9585V28.1889H93.287V23.7265Z" fill="black"/>
<path d="M97.4797 17.9282H99.0945V23.7549L98.9245 25.8866H98.9528L100.001 23.9823L103.91 17.9282H105.412V28.1889H103.797V22.3622L103.967 20.2305H103.91L102.891 22.1348L98.9528 28.1889H97.4797V17.9282Z" fill="black"/>
<path d="M110.823 28.3875C110.099 28.3941 109.383 28.2387 108.726 27.9328C108.127 27.6403 107.603 27.2122 107.197 26.6822L108.301 25.6305C108.596 26.0101 108.962 26.3286 109.378 26.5685C109.824 26.8005 110.32 26.9177 110.823 26.9096C111.369 26.9307 111.911 26.7925 112.381 26.5116C112.565 26.3823 112.712 26.2063 112.806 26.0017C112.901 25.797 112.94 25.5709 112.919 25.3463V25.2042C112.935 24.9968 112.902 24.7885 112.823 24.5961C112.745 24.4037 112.622 24.2323 112.466 24.0957C112.052 23.8081 111.55 23.6772 111.049 23.7262H109.406V22.2482H110.964C111.437 22.2773 111.905 22.1473 112.296 21.8787C112.443 21.7302 112.557 21.5521 112.63 21.3561C112.703 21.1601 112.734 20.9507 112.721 20.7418C112.737 20.5468 112.704 20.3508 112.625 20.172C112.545 19.9932 112.423 19.8372 112.268 19.7186C111.864 19.4579 111.386 19.338 110.908 19.3775C110.438 19.3643 109.973 19.4617 109.548 19.6617C109.195 19.8116 108.884 20.0458 108.641 20.3439L107.508 19.3775C107.895 18.8837 108.389 18.4851 108.953 18.2122C109.57 17.9126 110.25 17.7664 110.936 17.7858C111.881 17.7277 112.818 17.9878 113.599 18.5248C113.891 18.7716 114.124 19.0811 114.281 19.4304C114.438 19.7797 114.515 20.1598 114.505 20.5428C114.53 20.8377 114.492 21.1344 114.394 21.4135C114.297 21.6927 114.142 21.9481 113.939 22.1629C113.549 22.5535 113.041 22.8034 112.494 22.8735C112.785 22.8991 113.071 22.9661 113.344 23.0725C113.601 23.1879 113.84 23.3412 114.052 23.5272C114.259 23.7178 114.423 23.9504 114.534 24.2094C114.649 24.5282 114.707 24.8651 114.704 25.2042C114.709 25.6438 114.622 26.0796 114.449 26.4832C114.271 26.8679 114.01 27.2078 113.684 27.478C113.319 27.7588 112.906 27.9706 112.466 28.1033C111.941 28.2568 111.397 28.3334 110.851 28.3307" fill="black"/>
<path d="M120.114 19.463L118.641 23.9823H121.644L120.114 19.463ZM122.947 28.1889L122.041 25.3466H118.216L117.31 28.1889H115.638L119.123 17.9282H121.191L124.675 28.1889H122.947Z" fill="black"/>
<path d="M133.939 28.1889H126.233V17.9282H127.876V26.7109H132.296V17.9282H133.939V26.7109H135.469V30.3774H133.939V28.1889Z" fill="black"/>
<path d="M137.168 17.9282H138.783V23.7549L138.613 25.8866H138.67L139.69 23.9823L143.627 17.9282H145.129V28.1889H143.514V22.3622L143.656 20.2305H143.627L142.579 22.1348L138.67 28.1889H137.168V17.9282Z" fill="black"/>
<path d="M147.622 17.9282H149.237V23.7549L149.095 25.8866H149.123L150.143 23.9823L154.081 17.9282H155.582V28.1889H153.968V22.3622L154.138 20.2305H154.081L153.061 22.1348L149.123 28.1889H147.622V17.9282Z" fill="black"/>
<path d="M54.3914 45.4128C53.6677 45.4193 52.9516 45.2639 52.2951 44.958C51.6824 44.674 51.1477 44.2448 50.7371 43.7074L51.8703 42.6558C52.1653 43.0353 52.5309 43.3538 52.9468 43.5937C53.3896 43.8342 53.8882 43.952 54.3914 43.9348C54.9382 43.9559 55.4795 43.8177 55.9496 43.5369C56.1278 43.4019 56.2701 43.225 56.3639 43.0217C56.4578 42.8185 56.5004 42.5952 56.4879 42.3715V42.2294C56.4974 42.0227 56.4616 41.8164 56.3833 41.6249C56.305 41.4334 56.186 41.2614 56.0345 41.1209C55.617 40.842 55.1182 40.7119 54.6181 40.7514H52.975V39.2735H54.5332C55.0057 39.3025 55.4742 39.1725 55.8646 38.904C56.0116 38.7555 56.1255 38.5773 56.1988 38.3813C56.2721 38.1853 56.303 37.9759 56.2896 37.767V37.6249C56.2985 37.4308 56.2621 37.2372 56.1834 37.0596C56.1047 36.882 55.9858 36.7252 55.8362 36.6017C55.4295 36.3485 54.9541 36.2293 54.4765 36.2606C54.0067 36.2407 53.5395 36.3384 53.1168 36.5449C52.7368 36.7289 52.4064 37.0019 52.1535 37.3407L51.0203 36.3743C51.4131 35.8865 51.9058 35.4891 52.4651 35.209C53.0925 34.9092 53.7819 34.7631 54.4765 34.7826C55.413 34.7197 56.3428 34.9805 57.1111 35.5216C57.4115 35.7628 57.6522 36.0705 57.8144 36.4206C57.9766 36.7707 58.0559 37.1537 58.046 37.5397C58.0652 37.8341 58.0249 38.1294 57.9275 38.4078C57.8301 38.6862 57.6778 38.942 57.4793 39.1598C57.0747 39.5457 56.5593 39.7943 56.0062 39.8703C56.2985 39.8893 56.5856 39.9565 56.856 40.0693C57.1177 40.1764 57.3577 40.3305 57.5642 40.5241C57.7711 40.7147 57.9354 40.9472 58.046 41.2062C58.1878 41.518 58.2557 41.8585 58.2443 42.201C58.2499 42.6406 58.1629 43.0764 57.9892 43.48C57.7923 43.8527 57.5336 44.1891 57.2243 44.4748C56.8594 44.7556 56.4466 44.9674 56.0062 45.1001C55.4817 45.2536 54.9378 45.3302 54.3914 45.3275" fill="black"/>
<path d="M66.6012 43.7642V36.4311H63.3151V38.2786C63.3151 38.9892 63.3151 39.6429 63.3151 40.2113C63.3151 40.7798 63.3151 41.2914 63.1168 41.7178C63.058 42.1077 62.9534 42.4893 62.8052 42.8547C62.7016 43.1423 62.5686 43.4185 62.4086 43.6789L66.6012 43.7642ZM59.2075 43.7642H60.284C60.5022 43.4962 60.6832 43.1998 60.8222 42.8831C61.0067 42.5019 61.1493 42.1016 61.2472 41.6893C61.3683 41.1748 61.4534 40.6525 61.5021 40.1261C61.5021 39.5197 61.5021 38.8376 61.5021 38.0796V34.9531H68.1594V43.7642H69.6891V47.4307H68.1594V45.2138H60.6522V47.4307H59.1226L59.2075 43.7642Z" fill="black"/>
<path d="M73.117 39.6717H75.7799C75.9549 39.6813 76.1301 39.6561 76.2954 39.5976C76.4606 39.539 76.6127 39.4483 76.743 39.3307C76.8722 39.2133 76.9726 39.0676 77.0364 38.9049C77.1003 38.7422 77.1259 38.5669 77.1113 38.3927V37.7106C77.1282 37.5362 77.1036 37.3602 77.0395 37.1972C76.9755 37.0341 76.8739 36.8886 76.743 36.7726C76.6127 36.655 76.4606 36.5643 76.2954 36.5057C76.1301 36.4472 75.9549 36.422 75.7799 36.4315H73.117V39.6717ZM71.4739 45.2142V34.9536H75.8648C76.2726 34.9274 76.6813 34.99 77.0627 35.1372C77.4441 35.2844 77.7893 35.5126 78.0746 35.8062C78.611 36.4263 78.8853 37.2318 78.8393 38.0516C78.8794 38.8706 78.6059 39.674 78.0746 40.297C77.7868 40.5856 77.4405 40.8085 77.0593 40.9507C76.678 41.093 76.2705 41.1511 75.8648 41.1213H73.0319V45.2142H71.4739Z" fill="black"/>
<path d="M83.4285 36.488L81.9555 41.0072H84.9583L83.4285 36.488ZM86.2613 45.2138L85.355 42.3715H81.5305L80.6239 45.2138H78.9526L82.437 34.9531H84.505L87.9895 45.2138H86.2613Z" fill="black"/>
<path d="M91.1908 43.7931H94.0237C94.3943 43.8123 94.7585 43.6905 95.0435 43.452C95.1672 43.3245 95.2636 43.1731 95.3269 43.0069C95.3902 42.8407 95.4191 42.6634 95.4118 42.4856V42.0024C95.4197 41.8203 95.3912 41.6385 95.3279 41.4676C95.2647 41.2968 95.168 41.1404 95.0435 41.0076C94.7585 40.7691 94.3943 40.6473 94.0237 40.6666H91.1908V43.7931ZM91.1908 39.3023H93.7403C94.0888 39.3206 94.4318 39.2093 94.7036 38.9896C94.8206 38.8704 94.9113 38.7278 94.9698 38.5711C95.0284 38.4144 95.0535 38.2471 95.0435 38.0801V37.5969C95.0531 37.4342 95.0276 37.2713 94.969 37.1192C94.9103 36.9672 94.8199 36.8296 94.7036 36.7158C94.5751 36.5954 94.4232 36.5029 94.2575 36.4442C94.0917 36.3855 93.9156 36.3619 93.7403 36.3747H91.1908V39.3023ZM89.5193 34.9536H94.0519C94.7929 34.9263 95.5151 35.1916 96.0633 35.6926C96.3076 35.9426 96.4968 36.2413 96.6188 36.5693C96.7408 36.8973 96.7929 37.2474 96.7715 37.5969C96.8208 37.9267 96.8208 38.2619 96.7715 38.5917C96.6706 38.8337 96.5265 39.0552 96.3465 39.2454C96.1952 39.4186 95.9992 39.5464 95.7801 39.6149L95.1567 39.7855C95.3894 39.797 95.6187 39.845 95.8366 39.9276C96.0934 40.0142 96.3263 40.1603 96.5165 40.3539C96.7485 40.557 96.9324 40.8094 97.0547 41.0929C97.2248 41.4263 97.3031 41.7991 97.2814 42.173C97.2898 42.5705 97.2225 42.966 97.0831 43.3383C96.9732 43.6863 96.7896 44.0062 96.5448 44.2763C96.3201 44.5548 96.0274 44.7703 95.695 44.9016C95.3707 45.066 95.0099 45.1443 94.6468 45.1289H89.6609L89.5193 34.9536Z" fill="black"/>
<path d="M103.146 43.935C103.513 43.929 103.877 43.8618 104.222 43.7361C104.535 43.5971 104.814 43.3938 105.044 43.1392C105.284 42.8556 105.467 42.5272 105.582 42.1728C105.725 41.7623 105.793 41.3287 105.78 40.8938V39.2737C105.79 38.8482 105.723 38.4244 105.582 38.0231C105.478 37.6639 105.294 37.3333 105.044 37.0567C104.814 36.8021 104.535 36.5988 104.222 36.4598C103.88 36.3239 103.514 36.2564 103.146 36.2609C102.777 36.25 102.41 36.3178 102.069 36.4598C101.744 36.5911 101.453 36.7953 101.219 37.0567C100.978 37.3403 100.795 37.6687 100.681 38.0231C100.563 38.4293 100.506 38.8507 100.511 39.2737V40.8938C100.504 41.3262 100.561 41.7573 100.681 42.1728C100.809 42.5212 100.991 42.8473 101.219 43.1392C101.453 43.4006 101.744 43.6048 102.069 43.7361C102.414 43.8645 102.778 43.9318 103.146 43.935ZM103.146 45.413C102.521 45.4278 101.902 45.3015 101.332 45.0435C100.8 44.8228 100.325 44.4824 99.9444 44.0487C99.5322 43.5571 99.2238 42.9866 99.0378 42.3718C98.8234 41.6333 98.7184 40.8671 98.7262 40.098C98.7185 39.3195 98.8234 38.5439 99.0378 37.7957C99.23 37.1922 99.538 36.6322 99.9444 36.1472C100.316 35.6967 100.793 35.3452 101.332 35.124C101.908 34.8883 102.524 34.7723 103.146 34.7829C103.766 34.7754 104.383 34.8913 104.959 35.124C105.494 35.3529 105.969 35.7031 106.347 36.1472C106.754 36.6268 107.054 37.1892 107.225 37.7957C107.463 38.5393 107.578 39.317 107.565 40.098C107.578 40.8696 107.463 41.638 107.225 42.3718C107.06 42.9894 106.76 43.5623 106.347 44.0487C105.96 44.4761 105.487 44.8153 104.959 45.0435C104.389 45.2988 103.77 45.4249 103.146 45.413Z" fill="black"/>
<path d="M113.57 43.935C113.938 43.9318 114.302 43.8645 114.647 43.7361C114.972 43.6048 115.263 43.4006 115.497 43.1392C115.725 42.8473 115.907 42.5212 116.035 42.1728C116.155 41.7573 116.212 41.3262 116.205 40.8938V39.2737C116.21 38.8507 116.153 38.4293 116.035 38.0231C115.921 37.6687 115.738 37.3403 115.497 37.0567C115.263 36.7953 114.972 36.5911 114.647 36.4598C114.306 36.3178 113.939 36.25 113.57 36.2609C113.202 36.25 112.835 36.3178 112.494 36.4598C112.178 36.5922 111.896 36.7965 111.672 37.0567C111.422 37.3333 111.238 37.6639 111.134 38.0231C110.993 38.4244 110.926 38.8482 110.936 39.2737V40.8938C110.923 41.3287 110.991 41.7623 111.134 42.1728C111.249 42.5272 111.432 42.8556 111.672 43.1392C111.896 43.3994 112.178 43.6037 112.494 43.7361C112.839 43.8645 113.203 43.9318 113.57 43.935ZM113.57 45.413C112.946 45.4249 112.327 45.2988 111.757 45.0435C111.229 44.8153 110.756 44.4761 110.369 44.0487C109.956 43.5623 109.656 42.9894 109.491 42.3718C109.253 41.638 109.138 40.8696 109.151 40.098C109.138 39.317 109.253 38.5393 109.491 37.7957C109.662 37.1892 109.962 36.6268 110.369 36.1472C110.747 35.7031 111.222 35.3529 111.757 35.124C112.333 34.8913 112.95 34.7754 113.57 34.7829C114.192 34.7723 114.808 34.8883 115.384 35.124C115.923 35.3452 116.4 35.6967 116.772 36.1472C117.178 36.6322 117.486 37.1922 117.678 37.7957C117.893 38.5439 117.997 39.3195 117.99 40.098C117.998 40.8671 117.893 41.6333 117.678 42.3718C117.492 42.9866 117.184 43.5571 116.772 44.0487C116.391 44.4824 115.916 44.8228 115.384 45.0435C114.814 45.3015 114.195 45.4278 113.57 45.413Z" fill="black"/>
<path d="M127.537 45.2138H125.582L123.089 41.1209H123.061L120.624 45.2138H118.783L122.097 39.9555L118.896 34.9531H120.851L123.174 38.7618H123.202L125.554 34.9531H127.395L124.165 39.9555L127.537 45.2138Z" fill="black"/>
<path d="M130.766 39.6716H133.401C133.763 39.6893 134.118 39.5673 134.392 39.3305C134.512 39.207 134.604 39.0596 134.662 38.898C134.721 38.7363 134.745 38.5641 134.732 38.3926V37.7104C134.746 37.5388 134.723 37.366 134.665 37.2041C134.606 37.0422 134.513 36.895 134.392 36.7725C134.118 36.5358 133.763 36.4137 133.401 36.4314H130.766V39.6716ZM129.095 45.2141V34.9534H133.514C133.917 34.9314 134.32 34.9961 134.697 35.1431C135.073 35.2902 135.413 35.5162 135.695 35.8061C136.239 36.4234 136.524 37.2283 136.489 38.0515C136.518 38.8739 136.234 39.6767 135.695 40.2969C135.411 40.5817 135.069 40.8025 134.693 40.9446C134.317 41.0867 133.915 41.1469 133.514 41.1212H130.681V45.2141H129.095Z" fill="black"/>
<path d="M141.05 36.488L139.576 41.0072H142.636L141.05 36.488ZM143.882 45.2138L142.948 42.3715H139.123L138.245 45.2138H136.545L140.03 34.9531H142.126L145.61 45.2138H143.882Z" fill="black"/>
<path d="M153.429 40.7514H148.812V45.2138H147.14V34.9531H148.812V39.2734H153.429V34.9531H155.101V45.2138H153.429V40.7514Z" fill="black"/>
<path d="M157.622 45.2138V34.9531H164.166V36.4027H159.265V39.2734H163.713V40.723H159.265V43.7358H164.166V45.2138H157.622Z" fill="black"/>
<path d="M172.58 40.7514H167.962V45.2138H166.291V34.9531H167.962V39.2734H172.58V34.9531H174.251V45.2138H172.58V40.7514Z" fill="black"/>
<path d="M176.772 34.9531H178.387V40.7798L178.217 42.9115H178.245L179.293 41.0072L183.203 34.9531H184.704V45.2138H183.09V39.3587L183.26 37.2554H183.203L182.183 39.1597L178.245 45.2138H176.772V34.9531Z" fill="black"/>
<path d="M192.665 39.6715V36.4313H190.059C189.879 36.4195 189.699 36.4436 189.529 36.5022C189.359 36.5607 189.202 36.6526 189.067 36.7724C188.936 36.8884 188.835 37.0339 188.771 37.1969C188.707 37.36 188.682 37.5359 188.699 37.7103V38.3925C188.684 38.571 188.71 38.7505 188.773 38.9178C188.837 39.0851 188.937 39.2358 189.067 39.3589C189.349 39.5805 189.701 39.6916 190.059 39.6715H192.665ZM186.574 43.7644H187.481L188.557 41.7748C188.672 41.5735 188.804 41.3832 188.954 41.2064C189.128 41.0669 189.331 40.9696 189.549 40.9221C189.186 40.9222 188.828 40.8465 188.496 40.6996C188.164 40.5528 187.867 40.3382 187.622 40.0694C187.161 39.5136 186.928 38.8021 186.971 38.0798C186.925 37.26 187.199 36.4545 187.736 35.8344C188.02 35.5497 188.362 35.3289 188.738 35.1868C189.114 35.0447 189.516 34.9845 189.917 35.0102H194.336V45.2708H192.665V41.0927H190.795L189.067 44.1907C188.89 44.5113 188.649 44.7919 188.359 45.015C188.11 45.1604 187.825 45.2296 187.537 45.214H186.546L186.574 43.7644Z" fill="black"/>
<path d="M51.502 51.9785H53.0884V57.8052L52.9468 59.9369H52.9751L54.0232 58.0326L57.9326 51.9785H59.4341V62.2392H57.8193V56.3841L57.9893 54.2808H57.9326L56.9128 56.1851L52.9751 62.2392H51.502V51.9785Z" fill="black"/>
<path d="M73.2302 54.3945H73.1735L72.3519 56.043L70.114 60.1359L67.876 56.043L67.0545 54.3945H66.9978V62.2392H65.4114V51.9785H67.3661L70.114 57.1799H70.199L72.9469 51.9785H74.8166V62.2392H73.2302V54.3945Z" fill="black"/>
<path d="M77.3379 62.2392V51.9785H83.8819V53.4281H79.0093V56.2988H83.4286V57.7768H79.0093V60.7612H83.8819V62.2392H77.3379Z" fill="black"/>
<path d="M92.3522 60.7896V53.4565H88.9527V55.304C88.9527 56.0146 88.9527 56.6683 88.9527 57.2367C88.9239 57.7431 88.8576 58.2466 88.7543 58.7432C88.7039 59.1318 88.6089 59.5133 88.4711 59.8801C88.347 60.1636 88.205 60.4389 88.0461 60.7043L92.3522 60.7896ZM84.9584 60.7896H86.0632C86.2715 60.5147 86.4517 60.2195 86.6013 59.9085C86.7626 59.5209 86.8952 59.1219 86.998 58.7147C87.1191 58.2002 87.2043 57.6779 87.253 57.1515C87.253 56.5451 87.253 55.863 87.253 55.105V51.9785H93.9386V60.7896H95.4401V64.4561H93.9102V62.2392H86.4313V64.4561H84.8733L84.9584 60.7896Z" fill="black"/>
<path d="M97.2246 51.9785H98.8394V57.8052L98.6694 59.9369H98.7261L99.7459 58.0326L103.684 51.9785H105.157V62.2392H103.542V56.3841L103.712 54.2808H103.684L102.635 56.1851L98.7261 62.2392H97.2246V51.9785Z" fill="black"/>
<path d="M115.384 62.2392H107.678V51.9785H109.35V60.7612H113.741V51.9785H115.412V60.7612H116.942V64.4277H115.384V62.2392Z" fill="black"/>
<path d="M118.641 51.9785H120.256V57.8052L120.086 59.9369H120.114L121.163 58.0326L125.072 51.9785H126.573V62.2392H124.959V56.3841L125.129 54.2808H125.072L124.052 56.1851L120.114 62.2392H118.641V51.9785Z" fill="black"/>
<path d="M135.384 57.7768H130.738V62.2392H129.095V51.9785H130.738V56.2988H135.384V51.9785H137.027V62.2392H135.384V57.7768Z" fill="black"/>
<path d="M143.401 62.4096C142.81 62.4423 142.219 62.3389 141.674 62.1073C141.129 61.8758 140.644 61.5223 140.256 61.0738C139.427 59.9319 139.025 58.5327 139.123 57.123C139.105 56.3552 139.201 55.5889 139.407 54.8492C139.573 54.238 139.862 53.6674 140.256 53.1722C140.618 52.7229 141.085 52.3712 141.616 52.149C142.182 51.9164 142.789 51.8004 143.401 51.8079C144.186 51.782 144.961 51.9791 145.639 52.3764C146.268 52.805 146.76 53.4071 147.055 54.1102L145.667 54.8776C145.512 54.4173 145.227 54.0124 144.846 53.7123C144.426 53.4111 143.917 53.2609 143.401 53.2859C143.053 53.2635 142.705 53.3239 142.385 53.4622C142.065 53.6005 141.782 53.8128 141.56 54.0818C141.075 54.726 140.835 55.5216 140.88 56.3272V57.8904C140.829 58.6966 141.071 59.4939 141.56 60.1358C141.781 60.4082 142.063 60.6246 142.382 60.7678C142.702 60.911 143.051 60.9768 143.401 60.9601C143.943 60.9845 144.476 60.8131 144.902 60.4769C145.299 60.1562 145.603 59.734 145.781 59.2547L147.112 60.0506C146.808 60.7564 146.306 61.3587 145.667 61.7843C144.994 62.2228 144.203 62.4413 143.401 62.4096Z" fill="black"/>
<path d="M148.868 51.9784H150.512V56.2987H152.296L154.109 53.0869C154.277 52.7519 154.519 52.4602 154.817 52.2342C155.088 52.0605 155.403 51.9714 155.724 51.9784H156.517V53.4564H155.582L154.109 56.0429C154.002 56.2717 153.847 56.4751 153.656 56.6398C153.508 56.7766 153.335 56.8828 153.146 56.9524C153.358 57.0029 153.559 57.0894 153.741 57.2082C153.958 57.3845 154.132 57.608 154.251 57.8619L155.894 60.7042H156.772V62.1822H155.752C155.463 62.1845 155.178 62.1057 154.931 61.9548C154.634 61.7159 154.392 61.4153 154.223 61.0737L152.296 57.6914H150.512V62.1822H148.868V51.9784Z" fill="black"/>
<path d="M162.239 60.9604C162.61 60.9624 162.977 60.8848 163.316 60.733C163.652 60.6229 163.948 60.4152 164.166 60.1362C164.4 59.8587 164.582 59.5409 164.704 59.1982C164.834 58.7843 164.901 58.3531 164.902 57.9192V56.2991C164.899 55.8746 164.832 55.4531 164.704 55.0485C164.589 54.6941 164.407 54.3657 164.166 54.0821C163.932 53.8207 163.641 53.6165 163.316 53.4852C162.975 53.3432 162.608 53.2754 162.239 53.2863C161.871 53.2817 161.505 53.3493 161.163 53.4852C160.85 53.6242 160.571 53.8275 160.341 54.0821C160.101 54.3657 159.918 54.6941 159.803 55.0485C159.675 55.4531 159.609 55.8746 159.605 56.2991V57.9192C159.607 58.3531 159.673 58.7843 159.803 59.1982C159.925 59.5409 160.107 59.8587 160.341 60.1362C160.555 60.4073 160.839 60.6138 161.163 60.733C161.503 60.8787 161.869 60.9559 162.239 60.9604ZM162.239 62.41C161.628 62.4175 161.021 62.3015 160.455 62.0689C159.914 61.8484 159.43 61.5084 159.038 61.0741C158.641 60.5771 158.342 60.0077 158.16 59.3972C157.932 58.6616 157.827 57.8933 157.848 57.1234C157.827 56.344 157.932 55.5664 158.16 54.8211C158.342 54.2192 158.641 53.6591 159.038 53.1726C159.42 52.7209 159.907 52.3696 160.455 52.1494C161.021 51.9167 161.628 51.8007 162.239 51.8083C162.861 51.7977 163.477 51.9137 164.052 52.1494C164.592 52.3706 165.069 52.7221 165.441 53.1726C165.858 53.6501 166.167 54.2125 166.347 54.8211C166.561 55.5693 166.666 56.3449 166.659 57.1234C166.666 57.8925 166.562 58.6587 166.347 59.3972C166.167 60.0142 165.858 60.5857 165.441 61.0741C165.06 61.5078 164.585 61.8482 164.052 62.0689C163.477 62.3046 162.861 62.4206 162.239 62.41Z" fill="black"/>
<path d="M168.727 51.9785H174.478V53.4281H170.37V62.2392H168.727V51.9785Z" fill="black"/>
<path d="M179.633 60.9604C180.004 60.9624 180.371 60.8848 180.71 60.733C181.046 60.6229 181.342 60.4152 181.56 60.1362C181.794 59.8587 181.977 59.5409 182.098 59.1982C182.228 58.7843 182.295 58.3531 182.296 57.9192V56.2991C182.293 55.8746 182.226 55.4531 182.098 55.0485C181.984 54.6941 181.801 54.3657 181.56 54.0821C181.326 53.8207 181.035 53.6165 180.71 53.4852C180.369 53.3432 180.002 53.2754 179.633 53.2863C179.265 53.2817 178.9 53.3493 178.557 53.4852C178.244 53.6242 177.965 53.8275 177.736 54.0821C177.495 54.3657 177.312 54.6941 177.197 55.0485C177.069 55.4531 177.003 55.8746 176.999 56.2991V57.9192C177.001 58.3531 177.067 58.7843 177.197 59.1982C177.319 59.5409 177.501 59.8587 177.736 60.1362C177.949 60.4073 178.234 60.6138 178.557 60.733C178.898 60.8787 179.263 60.9559 179.633 60.9604ZM179.633 62.41C179.022 62.4175 178.415 62.3015 177.849 62.0689C177.308 61.8484 176.824 61.5084 176.432 61.0741C176.035 60.5771 175.736 60.0077 175.554 59.3972C175.326 58.6616 175.221 57.8933 175.243 57.1234C175.221 56.344 175.326 55.5664 175.554 54.8211C175.736 54.2192 176.035 53.6591 176.432 53.1726C176.814 52.7209 177.301 52.3696 177.849 52.1494C178.415 51.9167 179.022 51.8007 179.633 51.8083C180.255 51.7977 180.871 51.9137 181.447 52.1494C181.986 52.3706 182.463 52.7221 182.835 53.1726C183.252 53.6501 183.561 54.2125 183.741 54.8211C183.956 55.5693 184.061 56.3449 184.053 57.1234C184.061 57.8925 183.956 58.6587 183.741 59.3972C183.561 60.0142 183.252 60.5857 182.835 61.0741C182.454 61.5078 181.979 61.8482 181.447 62.0689C180.871 62.3046 180.255 62.4206 179.633 62.41Z" fill="black"/>
<path d="M59.3208 71.3914H59.2358L58.4426 73.0684L56.2046 77.1612L53.9666 73.0684L53.145 71.3914H53.0601V79.2645H51.502V69.0039H53.4567L56.2046 74.2053H56.2896L59.0092 69.0039H60.9072V79.2645H59.3208V71.3914Z" fill="black"/>
<path d="M63.4285 79.2645V69.0039H69.9724V70.4535H65.0715V73.3242H69.5191V74.7737H65.0715V77.7866H69.9724V79.2645H63.4285Z" fill="black"/>
<path d="M78.386 74.8022H73.7683V79.2645H72.0969V69.0039H73.7683V73.3242H78.386V69.0039H80.0574V79.2645H78.386V74.8022Z" fill="black"/>
<path d="M82.5786 79.2645V69.0039H89.1226V70.4535H84.2217V73.3242H88.6693V74.7737H84.2217V77.7866H89.1226V79.2645H82.5786Z" fill="black"/>
<path d="M97.593 77.7866V70.4819H94.1653V72.3294C94.1653 73.0399 94.1653 73.6937 94.1653 74.2621C94.1653 74.8306 94.1652 75.3422 93.9669 75.7685C93.9081 76.1585 93.8035 76.5401 93.6554 76.9054C93.5517 77.1931 93.4187 77.4693 93.2587 77.7297L97.593 77.7866ZM90.1992 77.7866H91.2757C91.4999 77.5334 91.6817 77.2455 91.8139 76.9339C91.9984 76.5526 92.141 76.1523 92.2389 75.7401C92.3627 75.2165 92.4478 74.6845 92.4938 74.1484C92.4938 73.58 92.4938 72.8978 92.4938 72.1304V69.0039H99.1512V77.7866H100.681V81.4815H99.1512V79.2645H91.644V81.4815H90.1143L90.1992 77.7866Z" fill="black"/>
<path d="M101.814 77.7865H102.72L104.109 74.9442C104.236 74.6876 104.409 74.4565 104.619 74.2621C104.771 74.1077 104.97 74.0079 105.185 73.9778C104.983 73.9198 104.798 73.8124 104.647 73.6652C104.446 73.4869 104.29 73.2627 104.194 73.0115L103.004 70.4818H102.097V69.0038H102.89C103.22 68.9929 103.546 69.082 103.825 69.2596C104.136 69.4645 104.374 69.763 104.505 70.1123L106.035 73.3241H107.65V69.0038H109.293V73.3241H110.907L112.409 70.1123C112.559 69.7744 112.793 69.4808 113.089 69.2596C113.379 69.0829 113.713 68.994 114.052 69.0038H114.845V70.4818H113.939L112.749 73.0115C112.643 73.2574 112.488 73.4796 112.296 73.6652C112.134 73.8127 111.94 73.9198 111.729 73.9778C111.951 74.013 112.157 74.1117 112.324 74.2621C112.533 74.4509 112.697 74.6838 112.805 74.9442L114.194 77.7865H115.1V79.2645H114.08C113.781 79.2706 113.487 79.1917 113.23 79.0371C112.963 78.7738 112.742 78.4661 112.579 78.1276L110.907 74.7737H109.293V79.2645H107.65V74.7737H106.035L104.363 78.1276C104.2 78.4736 103.969 78.783 103.684 79.0371C103.429 79.1963 103.133 79.2755 102.834 79.2645H101.814V77.7865Z" fill="black"/>
<path d="M124.789 71.3914H124.732L123.911 73.0684L121.673 77.1612L119.435 73.0684L118.641 71.3914H118.556V79.2645H116.97V69.0039H118.953L121.673 74.2053H121.758L124.505 69.0039H126.375V79.2645H124.789V71.3914Z" fill="black"/>
<path d="M128.896 79.2645V69.0039H135.469V70.4535H130.568V73.3242H134.987V74.7737H130.568V77.7866H135.469V79.2645H128.896Z" fill="black"/>
<path d="M143.882 74.8022H139.237V79.2645H137.594V69.0039H139.237V73.3242H143.882V69.0039H145.526V79.2645H143.882V74.8022Z" fill="black"/>
<path d="M151.843 70.4535V79.2645H150.2V70.4535H147.14V69.0039H154.902V70.4535H151.843Z" fill="black"/>
<path d="M159.152 70.5387L157.679 75.058H160.681L159.152 70.5387ZM161.985 79.2645L161.078 76.4223H157.254L156.347 79.2645H154.676L158.16 69.0039H160.228L163.713 79.2645H161.985Z" fill="black"/>
</svg>
