<svg width="100" height="100" viewBox="0 0 100 100" fill="none" xmlns="http://www.w3.org/2000/svg">
<rect width="100" height="100" fill="white"/>
<circle cx="50" cy="50" r="49.5" stroke="#E0E0E0"/>
<path d="M59.6839 70.2671V67.3193C63.0685 64.319 65.7193 59.9236 67.172 54.6806C67.2929 54.7421 67.4213 54.7875 67.5539 54.8156C69.2687 55.1007 71.1108 51.9354 71.6799 47.7425C72.249 43.5496 71.328 39.9117 69.6132 39.6192C69.3364 39.5905 69.0569 39.6272 68.7968 39.7261C68.5367 39.8251 68.3034 39.9837 68.1155 40.1892L68.0032 39.4392L68.5873 36.6564C69.2088 33.6561 69.8228 30.5508 68.8569 27.6556C68.3145 26.1868 67.4788 24.8443 66.4007 23.7102C62.9544 20.0532 58.3237 17.7406 53.3339 17.1846C48.3705 16.6536 43.3516 17.272 38.6646 18.9922C35.8641 19.9598 32.6741 22.1125 33.2207 24.9928C31.7755 24.4528 30.1506 25.6004 29.5965 27.033C29.0424 28.4656 29.267 30.0333 29.4991 31.5934L30.7571 39.9192C30.4254 39.6685 30.0086 39.5581 29.5965 39.6117C27.8817 39.9042 26.9532 43.5421 27.5223 47.735C28.0914 51.9278 29.9335 55.0932 31.6408 54.8081C31.7741 54.7824 31.9028 54.7369 32.0226 54.6731C33.5203 59.9236 36.1411 64.3415 39.5108 67.3118V70.2146C27.7319 71.4297 17.3983 74.7675 10 79.4555C14.4603 85.782 20.367 90.948 27.2267 94.5219C34.0865 98.0958 41.7003 99.974 49.4324 99.9997C57.1645 100.025 64.7906 98.1978 71.6738 94.6696C78.5571 91.1413 84.4978 86.0148 89 79.718C81.714 74.955 71.4328 71.5497 59.6839 70.2671Z" fill="#E0E0E0"/>
</svg>
