<svg width="31" height="32" viewBox="0 0 31 32" fill="none" xmlns="http://www.w3.org/2000/svg">
<path d="M15.1617 3.36C14.1599 3.35716 13.1797 3.65109 12.3448 4.2047C11.5098 4.75831 10.8576 5.5468 10.4703 6.4707C10.0829 7.3946 9.97788 8.41251 10.1684 9.39603C10.3589 10.3795 10.8365 11.2846 11.5408 11.997C12.2451 12.7095 13.1447 13.1973 14.1259 13.3991C15.1072 13.6009 16.1263 13.5075 17.0545 13.1307C17.9828 12.754 18.7787 12.1108 19.3418 11.2822C19.905 10.4537 20.2101 9.47692 20.2187 8.47515C20.227 7.80601 20.1024 7.14187 19.8519 6.5213C19.6015 5.90074 19.2302 5.33612 18.7597 4.86022C18.2893 4.38433 17.7289 4.00665 17.1113 3.74911C16.4936 3.49157 15.8309 3.35931 15.1617 3.36V3.36ZM15.7823 0C16.3108 0.106667 16.8442 0.179394 17.363 0.32C19.3834 0.869593 21.1262 2.15292 22.2508 3.91912C23.3753 5.68532 23.8008 7.80744 23.444 9.87064C23.0872 11.9339 21.9738 13.7898 20.3214 15.0758C18.669 16.3618 16.5964 16.9853 14.5088 16.8244C12.4211 16.6636 10.4685 15.73 9.03255 14.2061C7.59663 12.6822 6.78064 10.6776 6.74408 8.58405C6.70752 6.49054 7.45301 4.45864 8.83484 2.88554C10.2167 1.31243 12.1355 0.311208 14.2163 0.0775757C14.3181 0.0775757 14.4199 0.0242424 14.5217 0H15.7823Z" fill="#4F4F4F"/>
<path fill-rule="evenodd" clip-rule="evenodd" d="M26.9774 32V30.4388C27.017 28.8024 26.4557 27.2083 25.3998 25.9576C24.3439 24.7069 22.8663 23.8863 21.2465 23.6509C20.8565 23.5934 20.4625 23.5675 20.0683 23.5733H10.2744C8.62564 23.5294 7.01818 24.0928 5.75772 25.1566C4.49727 26.2204 3.67171 27.7103 3.43803 29.343C3.38551 29.7204 3.36442 30.1015 3.375 30.4824V32H0.000472691V30.4436C-0.0242373 27.9867 0.84886 25.6053 2.45582 23.7466C4.06278 21.8878 6.29304 20.6797 8.72775 20.3491C9.19675 20.283 9.66987 20.2506 10.1435 20.2521H20.175C22.5261 20.233 24.8095 21.0392 26.6274 22.5302C28.4454 24.0213 29.6828 26.1027 30.1241 28.4121C30.2566 29.0827 30.3215 29.7649 30.318 30.4485V32H26.9774Z" fill="#4F4F4F"/>
</svg>
